<svg width="40" height="28" viewBox="0 0 40 28" fill="none" xmlns="http://www.w3.org/2000/svg">
<path fill-rule="evenodd" clip-rule="evenodd" d="M24.7601 27.3651C25.4679 28.0729 26.6154 28.0729 27.3232 27.3651L39.4066 15.2817C40.1144 14.5739 40.1144 13.4264 39.4066 12.7186L27.3232 0.635274C26.6154 -0.0725681 25.4679 -0.0725681 24.7601 0.635274C24.0523 1.34312 24.0523 2.49055 24.7601 3.19839L33.7491 12.1877L13.9583 12.1877C12.2345 12.1877 9.60836 11.6555 7.4653 10.1125C5.41464 8.63613 3.6875 6.15953 3.6875 1.91683C3.6875 0.91585 2.87601 0.104334 1.875 0.104334C0.873991 0.104334 0.0624988 0.91585 0.0624989 1.91683C0.0624991 7.3408 2.36312 10.9059 5.34719 13.0545C8.23886 15.1365 11.6544 15.8127 13.9583 15.8127L33.7491 15.8127L24.7601 24.8019C24.0523 25.5097 24.0523 26.6573 24.7601 27.3651Z" fill="#121212"/>
</svg>
