<svg width="59" height="59" viewBox="0 0 59 59" fill="none" xmlns="http://www.w3.org/2000/svg">
<path d="M57.3333 29.1667C57.3333 44.7227 44.7227 57.3333 29.1667 57.3333C13.6106 57.3333 1 44.7227 1 29.1667C1 13.6106 13.6106 1 29.1667 1C44.7227 1 57.3333 13.6106 57.3333 29.1667Z" fill="#121212" stroke="#FAFAFA" stroke-width="2"/>
<path d="M21.6808 17.333C22.6892 17.333 23.6208 17.4099 24.4757 17.6403C25.3304 17.794 26.0316 18.111 26.6559 18.4952C27.2802 18.8793 27.7412 19.4267 28.0581 20.1279C28.3655 20.8291 28.5287 21.6838 28.5287 22.6155C28.5287 23.7008 28.2983 24.6324 27.7508 25.3336C27.2802 26.0346 26.5118 26.6589 25.5706 27.12C26.8959 27.5042 27.9044 28.2053 28.519 29.1369C29.1337 30.0685 29.5276 31.2306 29.5276 32.5561C29.5276 33.6414 29.2971 34.573 28.9033 35.351C28.519 36.1289 27.8949 36.83 27.1937 37.291C26.4925 37.7618 25.6378 38.1459 24.7061 38.3763C23.7745 38.6069 22.8429 38.7606 21.9112 38.7606L11.5 38.7798V17.333H21.6808ZM21.0565 26.0346C21.9112 26.0346 22.6124 25.8042 23.1502 25.4104C23.688 25.0165 23.9282 24.325 23.9282 23.4703C23.9282 22.9997 23.8514 22.5387 23.6976 22.2313C23.5439 21.924 23.3135 21.6838 22.9965 21.4534C22.6892 21.2997 22.3723 21.146 21.988 21.0691C21.6039 20.9923 21.2102 20.9923 20.749 20.9923H16.2445V26.0442C16.2445 26.0346 21.0565 26.0346 21.0565 26.0346ZM21.287 35.2069C21.7576 35.2069 22.2186 35.1301 22.6124 35.0532C22.9965 34.9764 23.3904 34.8228 23.6976 34.5826C24.0051 34.3426 24.2451 34.112 24.4757 33.7279C24.6294 33.3436 24.7829 32.873 24.7829 32.3255C24.7829 31.2403 24.4757 30.4624 23.8514 29.9149C23.227 29.4442 22.3723 29.2138 21.3637 29.2138H16.2445V35.1973H21.287V35.2069Z" fill="white"/>
<path d="M36.4554 35.2964C37.0797 35.9207 38.0113 36.2281 39.2503 36.2281C40.1052 36.2281 40.883 35.9976 41.5073 35.6038C42.1317 35.1332 42.5158 34.6722 42.6695 34.2015H46.4728C45.8486 36.0648 44.9169 37.3903 43.6779 38.245C42.4391 39.023 40.9599 39.484 39.1734 39.484C37.9346 39.484 36.8397 39.2534 35.8311 38.8597C34.8226 38.4756 34.0448 37.9281 33.3436 37.1501C32.6424 36.4489 32.1046 35.5942 31.7877 34.5857C31.4034 33.5773 31.2402 32.4919 31.2402 31.2434C31.2402 30.0812 31.3938 28.9863 31.7877 27.9779C32.1814 26.9693 32.7193 26.1146 33.4204 25.3366C34.1216 24.6355 34.9763 24.0112 35.9079 23.627C36.9165 23.2428 37.9249 23.0028 39.1734 23.0028C40.4989 23.0028 41.661 23.2332 42.6695 23.7807C43.6779 24.3281 44.4559 24.9428 45.0803 25.8744C45.7046 26.7293 46.1655 27.7377 46.4824 28.823C46.6361 29.9083 46.713 31.0032 46.6361 32.2422H35.3701C35.3701 33.5101 35.8311 34.6722 36.4554 35.2964ZM41.3536 27.1326C40.8063 26.5852 39.9514 26.2779 38.943 26.2779C38.2418 26.2779 37.704 26.4315 37.2334 26.662C36.7628 26.8926 36.4554 27.2095 36.1481 27.5168C35.8407 27.8242 35.6775 28.2179 35.6007 28.6022C35.5238 28.9863 35.4469 29.3032 35.4469 29.6106H42.4391C42.2854 28.4581 41.8916 27.6801 41.3536 27.1326ZM34.5154 18.9785H43.2169V21.0722H34.5154V18.9785Z" fill="white"/>
</svg>
