<svg width="266" height="267" viewBox="0 0 266 267" fill="none" xmlns="http://www.w3.org/2000/svg">
<path opacity="0.05" d="M19.4839 21.5811C24.4397 20.5029 29.3941 18.809 34.3472 16.4994C39.303 13.9298 44.2588 11.7734 49.2147 10.0302C54.1705 9.84416 59.1263 10.4763 64.0821 11.9266C69.0352 14.4032 73.9897 16.8702 78.9455 19.3275C83.9013 20.7341 88.8571 21.317 93.8129 21.0762C98.7688 19.292 103.725 17.111 108.68 14.5332C113.633 12.2509 118.588 10.5953 123.544 9.56641C128.5 10.2259 133.455 11.5914 138.411 13.663C143.367 16.2709 148.321 18.5983 153.275 20.6452C158.23 21.2691 163.186 21.0502 168.142 19.9884C173.098 17.687 178.054 15.2515 183.009 12.6819C187.965 10.9251 192.92 9.94404 197.873 9.73881C202.829 11.1755 207.784 13.1293 212.74 15.6004C217.696 18.066 222.652 20.0089 227.608 21.4292C232.561 21.2048 237.515 20.206 242.471 18.4327C249.159 16.9988 250.926 19.1387 247.77 24.8526C241.397 29.428 235.53 34.0021 230.169 38.5748C227.922 43.1475 227.671 47.7202 229.414 52.2929C234.468 56.8684 240.187 61.4424 246.572 66.0151C251.785 70.5878 255.392 75.1606 257.392 79.7333C255.394 84.3087 251.79 88.8828 246.58 93.4555C240.196 98.0282 234.475 102.601 229.418 107.174C227.672 111.746 227.921 116.32 230.165 120.896C235.523 125.469 241.389 130.041 247.762 134.614C252.655 139.187 255.847 143.761 257.339 148.336C254.848 152.909 250.854 157.482 245.357 162.054C239.005 166.627 233.471 171.201 228.753 175.777C227.519 180.349 228.267 184.922 230.998 189.495C236.625 194.067 242.597 198.641 248.916 203.217C253.453 207.79 256.208 212.362 257.183 216.935C254.216 221.508 249.86 226.082 244.113 230.657C239.376 236.166 234.639 242.015 229.902 248.205C225.165 252.466 220.429 254.866 215.692 255.405C210.955 251.992 206.218 247.324 201.481 241.399C196.744 235.458 192.007 230.76 187.27 227.304C182.533 227.794 177.796 230.15 173.06 234.372C168.323 240.554 163.586 246.411 158.849 251.945C154.112 254.5 149.375 255.029 144.638 253.529C139.901 248.603 135.164 243.004 130.427 236.732C125.691 231.755 120.954 228.472 116.217 226.885C111.48 229.359 106.743 233.34 102.006 238.83C97.2692 245.025 92.5322 250.268 87.7953 254.559C83.0585 255.137 78.3216 253.736 73.5847 250.356C68.8478 244.445 64.1122 238.512 59.3781 232.558C54.6412 229.071 49.9043 227.553 45.1674 228.001C40.4305 232.197 35.6936 237.381 30.9567 243.554C24.4465 247.963 20.6113 247.156 19.451 241.133C19.2485 236.253 18.678 231.374 17.7393 226.495C16.4313 221.616 15.1944 216.737 14.0286 211.857C13.4649 206.978 13.3103 202.099 13.5648 197.22C14.5417 192.343 15.6869 187.466 17.0005 182.586C18.1389 177.707 18.9667 172.828 19.4839 167.949C19.1746 163.07 18.5138 158.19 17.5013 153.311C16.1823 148.432 14.9672 143.553 13.8562 138.674C13.391 133.794 13.339 128.915 13.7002 124.036C14.7483 119.157 15.9332 114.279 17.255 109.403C18.3332 104.523 19.0789 99.6441 19.4921 94.7649C19.0789 89.8857 18.3332 85.0065 17.255 80.1273C15.9332 75.2481 14.7483 70.3689 13.7002 65.4897C13.339 60.6105 13.391 55.7313 13.8562 50.8521C14.9672 45.9729 16.1823 41.0937 17.5013 36.2145C18.5138 31.3353 19.1746 26.4575 19.4839 21.5811Z" stroke="#484848" stroke-width="2" stroke-linecap="round" stroke-dasharray="2 10"/>
<path opacity="0.09" d="M33.1241 16.9842C38.0135 15.478 42.9304 13.6473 47.8746 11.4921C52.7899 9.68049 57.6541 8.4715 62.4675 7.86513C67.1457 8.85665 71.766 10.5326 76.3284 12.893C80.8399 15.8559 85.3695 18.6214 89.9172 21.1892C94.5668 22.5188 99.2841 23.0482 104.069 22.7772C108.967 21.1674 113.889 19.2794 118.834 17.1133C123.742 15.3862 128.596 14.2959 133.397 13.8422C138.062 14.9891 142.671 16.7932 147.225 19.2545C151.736 22.2229 156.268 24.946 160.821 27.4236C165.483 28.6005 170.213 28.9772 175.011 28.5535C179.918 26.8455 184.844 24.9071 189.789 22.7383C194.689 21.1094 199.532 20.1444 204.32 19.8435C208.972 21.1431 213.573 23.07 218.121 25.6242C222.633 28.5872 227.169 31.2584 231.73 33.6379C236.405 34.6621 241.149 34.8847 245.96 34.3056C251.383 33.4982 251.316 35.5631 245.757 40.5005C239.602 44.4427 234.448 48.471 230.297 52.5854C229.518 56.9823 230.5 61.5294 233.242 66.2267C238.375 71.1262 243.706 76.0411 249.235 80.9713C253.024 85.7571 255.19 90.4044 255.735 94.9131C252.698 99.1218 248.353 103.218 242.7 107.203C236.342 111.131 230.714 115.12 225.816 119.172C224.017 123.482 224.024 127.947 225.836 132.566C230.471 137.42 235.61 142.319 241.253 147.261C245.726 152.105 248.736 156.824 250.284 161.417C248.21 165.707 244.634 169.869 239.556 173.902C233.174 177.828 227.227 181.789 221.715 185.786C218.935 190.016 217.956 194.399 218.778 198.934C222.767 203.734 227.55 208.603 233.127 213.54C238.141 218.426 241.894 223.208 244.388 227.884C243.329 232.257 240.616 236.492 236.249 240.588C231.127 246.112 226.039 251.215 220.985 255.899C216.172 257.766 211.515 257.785 207.011 255.957C202.774 250.99 198.595 245.348 194.474 239.029C190.27 233.664 185.944 229.743 181.495 227.266C176.737 228.495 171.846 231.26 166.825 235.562C161.701 241.107 156.621 246.12 151.585 250.599C146.799 252.114 142.171 251.777 137.701 249.589C133.483 244.394 129.314 238.632 125.194 232.305C120.972 227.153 116.621 223.516 112.143 221.394C107.354 222.98 102.44 226.033 97.3999 230.553C92.2762 236.095 87.2057 240.994 82.1882 245.25C77.4324 246.41 72.8345 245.719 68.3945 243.177C64.1939 237.771 60.0331 231.912 55.912 225.599C51.6703 220.678 47.2951 217.338 42.7862 215.578C37.9679 217.511 33.0302 220.838 27.9733 225.559C20.9997 230.797 16.8622 230.962 15.5608 226.055C15.3047 221.353 14.7623 216.628 13.9336 211.878C12.9795 207.118 12.2039 202.374 11.6067 197.647C11.7297 192.977 12.2602 188.342 13.1985 183.742C14.7557 179.194 16.411 174.656 18.1643 170.127C19.6207 165.571 20.7375 160.985 21.5149 156.372C21.4742 151.688 21.1008 146.979 20.3946 142.242C19.4241 137.48 18.5681 132.728 17.8266 127.986C17.7233 123.297 18.0301 118.645 18.7473 114.029C20.1627 109.469 21.7445 104.923 23.4926 100.391C25.0826 95.846 26.3752 91.277 27.3705 86.6842C27.5561 82.0203 27.3737 77.3252 26.8231 72.599C25.8771 67.8393 24.9774 63.085 24.1239 58.3359C23.8106 53.6298 23.8954 48.9573 24.3783 44.3184C25.6274 39.7444 27.1027 35.1909 28.8042 30.6579C30.4868 26.1205 31.9268 21.5626 33.1241 16.9842Z" stroke="#484848" stroke-width="2" stroke-linecap="round" stroke-dasharray="6 2"/>
<path opacity="0.13" d="M46.32 12.7974C51.1597 11.1762 56.0034 9.54035 60.8509 7.88992C65.5542 7.06992 70.1385 6.9486 74.6037 7.52598C78.8231 9.56325 82.9559 12.1007 87.0021 15.1383C91.0202 18.3572 95.0965 21.2265 99.2309 23.7461C103.596 24.931 108.085 25.3723 112.7 25.0703C117.507 23.6599 122.341 22.0835 127.201 20.3409C131.968 19.1625 136.627 18.6139 141.176 18.6949C145.473 20.2762 149.667 22.459 153.756 25.243C157.767 28.5023 161.813 31.5523 165.893 34.393C170.172 36.063 174.58 36.9845 179.117 37.1577C183.87 36.0437 188.677 34.621 193.539 32.8896C198.351 31.4303 203.073 30.5066 207.706 30.1187C212.084 31.2086 216.347 32.9773 220.497 35.4246C224.515 38.6268 228.545 41.7658 232.588 44.8417C236.791 46.9594 241.118 48.3544 245.57 49.0267C249.916 49.1978 248.743 51.3965 242.052 55.6227C236.766 59.1138 232.771 62.8261 230.066 66.7597C230.596 71.2415 232.537 75.9637 235.889 80.9261C240.701 86.1372 245.318 91.3165 249.74 96.4641C252.061 101.251 252.824 105.772 252.026 110.028C248.135 113.757 243.223 117.313 237.289 120.696C231.051 124.025 225.578 127.485 220.872 131.075C219.023 135.154 218.789 139.507 220.172 144.134C224.085 149.192 228.489 154.334 233.384 159.559C237.386 164.635 240.155 169.5 241.691 174.153C240.004 178.257 236.866 182.115 232.278 185.728C226.075 189.063 219.977 192.416 213.985 195.787C209.956 199.492 207.46 203.46 206.498 207.69C208.679 212.453 211.948 217.401 216.303 222.535C221.141 227.753 225.291 232.853 228.754 237.834C229.446 242.344 228.516 246.577 225.966 250.534C220.611 255.063 215.425 258.614 210.406 261.187C205.924 260.612 201.715 258.431 197.78 254.644C194.205 248.727 190.654 242.672 187.129 236.478C183.32 231.954 179.252 228.942 174.928 227.442C170.04 229.227 164.952 232.201 159.663 236.363C154.269 241.138 148.993 245.225 143.834 248.623C139.159 249.16 134.77 248.032 130.665 245.239C127.003 239.849 123.419 233.99 119.914 227.66C116.232 222.392 112.321 218.461 108.182 215.869C103.475 216.613 98.5285 218.756 93.3422 222.297C87.9454 227.091 82.6113 231.516 77.34 235.573C72.4882 237.168 67.9167 237.108 63.6255 235.394C59.842 230.716 56.1914 225.259 52.6735 219.022C49.0867 213.189 45.3087 208.471 41.3397 204.866C36.821 204.504 32.0379 205.695 26.9903 208.439C19.5478 213.15 14.9825 213.355 13.2946 209.054C13.004 204.518 12.5447 199.954 11.9169 195.362C11.405 190.788 11.1616 186.261 11.1866 181.779C11.9889 177.427 13.1674 173.141 14.7219 168.92C16.7648 164.782 18.8319 160.648 20.9233 156.518C22.6181 152.321 23.9555 148.063 24.9354 143.744C25.12 139.287 25.0009 134.779 24.5781 130.221C23.9341 125.626 23.4114 121.051 23.0102 116.497C23.2321 112.049 23.8532 107.669 24.8737 103.356C26.5955 99.1638 28.5077 95.0023 30.6103 90.8717C32.637 86.731 34.4114 82.5474 35.9335 78.3208C36.695 73.9646 37.0707 69.5427 37.0606 65.0551C36.5325 60.4792 35.9575 55.894 35.3355 51.2994C35.0719 46.7686 35.1562 42.2971 35.5885 37.8848C36.8193 33.6086 38.3685 29.3865 40.236 25.2187C42.3624 21.0951 44.3904 16.9546 46.32 12.7974Z" stroke="#484848" stroke-width="2" stroke-linecap="round" stroke-dasharray="2 1"/>
<path opacity="0.17" d="M59.1473 9.12041C63.8694 7.76946 68.5243 6.67251 73.1122 5.82954C77.4094 6.12119 81.5258 7.10662 85.4614 8.78584C89.094 11.6473 92.6485 14.8052 96.125 18.2595C99.6556 21.5158 103.304 24.3107 107.07 26.6443C111.185 27.6433 115.469 27.981 119.922 27.6573C124.602 26.4706 129.296 25.2213 134.005 23.9094C138.548 23.2526 142.931 23.2061 147.155 23.77C151.025 25.7148 154.752 28.205 158.337 31.2407C161.81 34.7195 165.327 38.0205 168.889 41.1436C172.721 43.2342 176.729 44.6382 180.914 45.3557C185.427 44.8128 190.033 43.9039 194.733 42.6291C199.426 41.3894 204.015 40.5455 208.501 40.0973C212.656 40.9374 216.635 42.4566 220.436 44.6551C223.985 47.8398 227.495 51.1686 230.967 54.6414C234.574 57.6036 238.325 59.9998 242.222 61.8301C245.661 63.2736 244.061 65.9139 237.422 69.7509C233.426 73.0591 230.793 76.7211 229.522 80.737C231.05 85.4764 233.579 90.4747 237.109 95.7321C241.247 101.144 244.892 106.43 248.046 111.59C248.933 116.163 248.389 120.366 246.414 124.197C241.861 127.363 236.553 130.335 230.49 133.112C224.452 135.891 219.185 138.872 214.691 142.054C212.795 145.909 212.328 150.131 213.289 154.721C216.491 159.893 220.161 165.187 224.301 170.602C227.795 175.847 230.27 180.83 231.726 185.551C230.378 189.547 227.674 193.19 223.612 196.482C217.753 199.311 211.732 202.098 205.55 204.844C200.611 207.908 196.887 211.288 194.38 214.984C194.747 219.423 196.334 224.178 199.141 229.248C203.21 234.642 207.127 239.998 210.893 245.317C212.881 250.175 213.516 254.682 212.798 258.838C207.583 261.602 202.696 263.098 198.137 263.327C194.346 260.588 190.868 256.636 187.704 251.471C184.82 245.222 181.858 239.277 178.816 233.638C175.23 230.107 171.268 228.031 166.932 227.41C161.879 229.546 156.608 232.53 151.117 236.361C145.607 240.267 140.3 243.389 135.195 245.726C130.789 245.367 126.761 243.539 123.114 240.244C120.038 234.737 117.06 228.851 114.181 222.586C111.057 217.264 107.632 213.11 103.905 210.122C99.4148 210.094 94.5858 211.372 89.4177 213.956C83.8879 217.939 78.3926 221.788 72.932 225.503C67.9496 227.369 63.332 227.824 59.0793 226.868C55.568 223.046 52.3108 218.241 49.3079 212.453C46.4145 206.241 43.3581 200.659 40.1387 195.708C36.2635 193.293 32.0059 192.361 27.366 192.914C22.0959 195.892 16.6849 199.415 11.1331 203.483C12.0872 199.422 12.6797 195.268 12.9106 191.02C12.6672 186.649 12.3827 182.268 12.0572 177.876C12.0681 173.571 12.4063 169.351 13.0716 165.215C14.5053 161.279 16.2638 157.424 18.3472 153.653C20.7638 149.97 23.1366 146.276 25.4658 142.571C27.3127 138.741 28.798 134.817 29.9217 130.8C30.2956 126.589 30.3966 122.308 30.2248 117.956C29.8807 113.559 29.6625 109.195 29.5701 104.863C30.0772 100.684 30.9654 96.6046 32.2348 92.6252C34.1983 88.8254 36.3685 85.079 38.7453 81.386C41.1301 77.6951 43.3122 73.9518 45.2916 70.1561C46.5822 66.1822 47.4899 62.1093 48.0148 57.9374C47.9364 53.6066 47.7251 49.2429 47.3811 44.8463C47.1986 40.4915 47.2851 36.2062 47.6404 31.9904C48.7429 27.9679 50.2097 24.0396 52.0407 20.2055C54.3619 16.4981 56.7308 12.8031 59.1473 9.12041Z" stroke="#484848" stroke-width="2" stroke-linecap="round" stroke-dasharray="3 9"/>
<path opacity="0.21" d="M71.6981 6.26504C76.1432 5.53938 80.4348 5.25573 84.5727 5.41408C88.2759 6.80324 91.7692 8.7945 95.0528 11.3879C98.0474 14.805 101.008 18.3146 103.935 21.9167C107.04 25.0187 110.326 27.6 113.794 29.6605C117.708 30.4567 121.818 30.6964 126.122 30.3796C130.642 29.4396 135.155 28.5272 139.659 27.6424C143.912 27.4702 147.962 27.876 151.807 28.8598C155.214 31.1019 158.449 33.8304 161.512 37.0452C164.435 40.6663 167.409 44.1415 170.434 47.4707C173.772 49.9005 177.328 51.7136 181.102 52.91C185.294 52.9048 189.63 52.4959 194.108 51.6834C198.645 50.7055 203.089 49.9868 207.441 49.5271C211.427 50.1193 215.189 51.3436 218.728 53.2002C221.882 56.1628 224.931 59.4262 227.874 62.9905C230.839 66.4841 233.933 69.6141 237.155 72.3805C239.837 75.2587 238.335 78.6598 232.649 82.5838C230.088 85.9917 228.785 89.8412 228.741 94.1323C230.85 99.1791 233.555 104.435 236.855 109.899C240.047 115.325 242.55 120.51 244.366 125.454C243.927 129.604 242.234 133.315 239.285 136.587C234.273 139.135 228.742 141.501 222.692 143.685C216.915 145.964 211.896 148.51 207.632 151.321C205.696 154.948 205.005 159.012 205.56 163.513C208.078 168.703 211.036 174.048 214.434 179.546C217.39 184.89 219.526 189.945 220.841 194.71C219.772 198.641 217.472 202.141 213.939 205.208C208.555 207.626 202.809 209.916 196.699 212.079C191.196 214.455 186.578 217.141 182.844 220.138C181.54 223.987 181.449 228.261 182.569 232.961C185.422 238.269 188.556 243.673 191.971 249.175C194.618 254.41 196.323 259.315 197.087 263.89C192.466 264.498 188.297 263.816 184.582 261.842C181.709 257.465 179.102 252.338 176.758 246.461C174.465 240.433 171.953 235.03 169.221 230.253C165.692 227.747 161.705 226.546 157.261 226.648C152.058 228.915 146.666 231.718 141.086 235.059C135.629 238.048 130.463 240.209 125.588 241.54C121.58 240.398 118.019 237.985 114.904 234.299C112.439 228.762 110.078 222.925 107.823 216.789C105.277 211.482 102.378 207.181 99.1263 203.885C94.9693 203.178 90.3925 203.663 85.3958 205.341C79.8836 208.488 74.3524 211.689 68.8022 214.944C63.7023 216.916 59.0036 217.744 54.7063 217.429C51.325 214.502 48.3191 210.506 45.6888 205.439C43.4218 199.336 41.0868 193.427 38.6839 187.712C35.6885 183.686 32.2573 180.901 28.3903 179.359C23.6328 180.355 18.556 182.261 13.1598 185.078C13.8477 181.166 14.2645 177.16 14.4102 173.058C14.3338 168.878 14.3374 164.727 14.4211 160.603C15.0058 156.655 15.9416 152.831 17.2286 149.129C19.2154 145.674 21.4578 142.308 23.9558 139.031C26.6278 135.813 29.196 132.56 31.6605 129.271C33.5905 125.796 35.1641 122.195 36.3814 118.469C36.9118 114.502 37.2034 110.452 37.2561 106.317C37.1849 102.139 37.2402 98.006 37.422 93.9169C38.1693 90.0262 39.2786 86.2611 40.7499 82.6215C42.889 79.2192 45.2463 75.8933 47.8218 72.6441C50.4774 69.4229 52.9832 66.1492 55.3392 62.823C57.1013 59.2883 58.5007 55.6264 59.5372 51.8372C59.9204 47.8188 60.1061 43.7311 60.0943 39.5741C60.0489 35.4053 60.1769 31.2959 60.4785 27.2459C61.3988 23.4159 62.6832 19.7137 64.3317 16.1392C66.6103 12.7857 69.0657 9.49436 71.6981 6.26504Z" stroke="#484848" stroke-width="2" stroke-linecap="round" stroke-dasharray="1 1"/>
<path opacity="0.25" d="M83.9722 4.67826C87.9413 4.83661 91.6758 5.52107 95.1758 6.73165C98.1646 9.07459 100.951 11.8694 103.534 15.1162C105.926 18.796 108.353 22.394 110.815 25.9104C113.598 28.7189 116.619 30.9937 119.878 32.735C123.644 33.3452 127.61 33.5153 131.774 33.2454C136.114 32.5773 140.409 32.0092 144.659 31.5408C148.582 31.8102 152.261 32.6182 155.697 33.965C158.629 36.4328 161.371 39.3305 163.921 42.6583C166.305 46.3494 168.741 49.9245 171.229 53.3834C174.063 56.077 177.141 58.2258 180.461 59.8297C184.282 60.3176 188.292 60.3879 192.492 60.0406C196.835 59.365 201.118 58.823 205.342 58.4146C209.211 58.8013 212.833 59.7367 216.207 61.2208C219.085 63.8109 221.783 66.806 224.301 70.2062C226.682 73.9023 229.133 77.4467 231.654 80.8394C233.699 85.1462 232.617 89.5465 228.408 94.0405C227.181 97.7641 226.979 101.946 227.803 106.587C230.064 111.876 232.553 117.265 235.269 122.755C237.35 127.963 238.646 132.817 239.155 137.317C237.561 140.876 234.914 143.96 231.214 146.571C225.942 148.48 220.352 150.244 214.442 151.863C208.989 153.69 204.253 155.838 200.236 158.307C198.27 161.699 197.375 165.569 197.549 169.919C199.421 175.033 201.7 180.328 204.386 185.805C206.799 191.162 208.568 196.228 209.691 201.003C208.834 204.892 206.895 208.295 203.874 211.21C199.044 213.317 193.723 215.202 187.911 216.865C182.18 218.568 177.019 220.525 172.428 222.736C169.728 225.798 168.116 229.347 167.591 233.383C168.971 238.276 170.924 243.426 173.451 248.83C172.334 252.369 169.574 249.333 165.171 239.721C163.27 234.357 161.009 229.798 158.386 226.045C154.778 224.486 150.681 224.019 146.093 224.645C140.8 226.841 135.388 229.303 129.857 232.031C124.618 234.108 119.752 235.354 115.258 235.77C111.757 233.974 108.74 231.098 106.208 227.143C104.359 221.664 102.614 215.954 100.973 210.014C99.0074 204.795 96.6596 200.429 93.9291 196.915C90.1983 195.631 85.9879 195.415 81.2981 196.268C75.9495 198.589 70.5129 201.106 64.9885 203.819C59.818 205.743 55.0395 206.79 50.653 206.96C47.2739 204.892 44.3693 201.767 41.9391 197.584C40.1418 191.991 38.4169 186.236 36.7642 180.32C34.7283 175.259 32.2892 171.096 29.4467 167.832C25.5937 166.82 21.273 166.85 16.4846 167.923C16.9791 164.114 17.3226 160.237 17.515 156.292C17.7386 152.358 18.1413 148.506 18.7232 144.736C19.8943 141.23 21.4038 137.876 23.2515 134.674C25.691 131.738 28.307 128.879 31.0996 126.098C33.916 123.33 36.5802 120.495 39.092 117.591C41.0396 114.433 42.6514 111.126 43.9274 107.667C44.5879 103.929 45.048 100.103 45.3079 96.1884C45.4828 92.2357 45.7839 88.3396 46.211 84.5001C47.1649 80.897 48.4527 77.4422 50.0744 74.1357C52.3341 71.1185 54.8172 68.2016 57.5238 65.3849C60.3702 62.631 63.1186 59.8315 65.7688 56.9866C67.9287 53.9246 69.7614 50.7158 71.2671 47.3603C72.1162 43.7101 72.7218 39.9507 73.084 36.0821C73.2501 32.1224 73.4868 28.196 73.7941 24.3027C74.5458 20.6088 75.6171 17.0583 77.0079 13.6513C79.0654 10.5433 81.3868 7.55232 83.9722 4.67826Z" stroke="#484848" stroke-width="2" stroke-linecap="round" stroke-dasharray="4 7"/>
<path opacity="0.29" d="M95.8725 4.85476C99.1689 6.00304 102.182 7.65925 104.912 9.8234C107.149 12.8779 109.234 16.2083 111.168 19.8146C113.061 23.489 115.072 26.9503 117.201 30.1987C119.785 32.6322 122.647 34.5613 125.788 35.9859C129.453 36.4627 133.3 36.6146 137.329 36.4418C141.465 36.0689 145.517 35.8492 149.484 35.7827C153.045 36.4523 156.334 37.6119 159.349 39.2614C161.819 41.8947 164.084 44.902 166.142 48.2833C168.019 51.9864 169.946 55.5998 171.923 59.1234C174.258 62.0069 176.852 64.4194 179.705 66.3609C183.117 67.2949 186.759 67.8166 190.632 67.9262C194.748 67.5892 198.849 67.2798 202.935 66.9978C206.728 67.251 210.275 67.945 213.575 69.08C216.312 71.2322 218.803 73.8314 221.047 76.8777C222.981 80.4779 224.894 84.1163 226.786 87.7931C228.912 91.0524 231.263 93.9029 233.84 96.3447C230.06 98.4893 227.166 101.125 225.158 104.251C224.971 108.387 225.511 112.924 226.779 117.863C228.791 123.218 230.74 128.538 232.626 133.823C233.54 138.569 233.657 142.872 232.976 146.731C230.446 149.568 227.074 151.939 222.862 153.843C217.519 155.121 212.021 156.311 206.367 157.414C201.283 158.835 196.861 160.623 193.1 162.779C191.116 165.918 190.042 169.561 189.878 173.706C191.158 178.655 192.806 183.808 194.821 189.165C196.699 194.446 198.088 199.453 198.987 204.188C198.283 208.037 196.654 211.374 194.1 214.198C189.868 216.091 185.076 217.675 179.725 218.948C174.072 220.051 168.71 221.317 163.639 222.745C159.9 224.912 157.05 227.572 155.09 230.725C154.95 234.884 155.526 239.441 156.818 244.397C157.141 246.033 156.001 241.747 153.4 231.539C151.646 227.116 149.418 223.549 146.715 220.84C142.936 220.072 138.688 220.15 133.974 221.076C128.69 223.021 123.378 225.018 118.039 227.064C113.168 228.265 108.736 228.675 104.743 228.292C101.819 225.98 99.3953 222.77 97.4705 218.662C96.2226 213.327 95.0701 207.82 94.0132 202.14C92.6141 197.078 90.8195 192.729 88.6297 189.094C85.3967 187.345 81.6426 186.535 77.3671 186.662C72.3116 188.196 67.0942 190.022 61.715 192.14C56.5467 193.878 51.7252 194.993 47.2505 195.485C43.7777 194.163 40.8383 191.88 38.4321 188.635C36.8923 183.826 35.5794 178.609 34.4933 172.982C33.334 167.493 31.8829 162.527 30.1402 158.085C27.4501 155.352 24.2221 153.589 20.4561 152.797C20.9063 149.095 21.332 145.377 21.7333 141.645C22.3773 138.05 23.2614 134.587 24.3854 131.255C26.1161 128.263 28.1442 125.434 30.4697 122.768C33.2391 120.352 36.1054 117.989 39.0687 115.68C41.9327 113.313 44.6083 110.842 47.0952 108.269C49.0259 105.385 50.6459 102.329 51.9553 99.1035C52.7323 95.5794 53.3447 91.9657 53.7925 88.2622C54.1961 84.5311 54.7224 80.8696 55.3712 77.2776C56.5011 73.9522 57.9356 70.7941 59.6748 67.8034C62.0062 65.144 64.5585 62.6055 67.3316 60.1879C70.2972 57.8801 73.2097 55.5412 76.069 53.1714C78.5511 50.5956 80.754 47.8634 82.6774 44.9748C83.9796 41.7449 85.015 38.3672 85.7835 34.8415C86.2302 31.1343 86.656 27.4171 87.0607 23.6897C87.7132 20.0966 88.6092 16.6401 89.7487 13.32C91.495 10.3332 93.5363 7.51147 95.8725 4.85476Z" stroke="#484848" stroke-width="2" stroke-linecap="round" stroke-dasharray="4 5"/>
<path opacity="0.33" d="M107.185 7.19778C109.665 9.27825 111.869 11.7671 113.798 14.6644C115.342 18.1406 116.819 21.7148 118.228 25.3873C119.785 28.8452 121.537 32.0081 123.486 34.8758C125.993 36.9154 128.795 38.5132 131.891 39.6692C135.486 40.0858 139.228 40.283 143.117 40.2609C147.025 40.2054 150.807 40.3393 154.465 40.6626C157.648 41.6891 160.54 43.1517 163.141 45.0503C165.169 47.7999 166.986 50.8672 168.591 54.2525C170.003 57.9203 171.463 61.5208 172.969 65.0537C174.823 68.0624 176.943 70.6763 179.33 72.8954C182.313 74.2258 185.558 75.1621 189.065 75.7045C192.914 75.7414 196.802 75.7185 200.729 75.6357C204.458 75.8522 207.968 76.3931 211.259 77.2582C213.981 78.9772 216.41 81.1308 218.546 83.7189C220.22 87.0019 221.771 90.4648 223.2 94.1076C224.665 97.702 226.281 101.071 228.047 104.216C225.611 106.789 223.951 109.882 223.069 113.494C223.514 118 224.378 122.786 225.66 127.852C227.113 133.033 228.3 138.034 229.222 142.856C229.023 146.929 228.08 150.504 226.396 153.582C223.175 155.63 219.319 157.25 214.826 158.443C209.585 159.136 204.309 159.807 198.999 160.455C194.317 161.523 190.23 162.99 186.738 164.857C184.762 167.736 183.544 171.125 183.082 175.022C183.83 179.731 184.907 184.659 186.311 189.808C187.682 194.93 188.691 199.811 189.338 204.452C188.732 208.253 187.358 211.539 185.216 214.31C181.586 216.08 177.382 217.468 172.607 218.474C167.272 219.105 162.006 219.783 156.81 220.507C152.425 221.774 148.699 223.482 145.632 225.63C144.107 228.815 143.313 232.489 143.249 236.654C143.907 236.857 143.489 232.097 141.995 222.372C140.146 218.997 137.758 216.425 134.833 214.656C130.85 214.464 126.468 214.87 121.687 215.875C116.534 217.429 111.453 218.874 106.445 220.212C102.067 220.611 98.1731 220.286 94.7649 219.237C92.4552 216.549 90.6362 213.129 89.3077 208.977C88.6253 203.861 88.0259 198.622 87.5095 193.258C86.6443 188.416 85.3852 184.16 83.7322 180.493C81.0317 178.393 77.7899 177.098 74.0069 176.608C69.3539 177.416 64.4678 178.572 59.3485 180.075C54.2704 181.517 49.462 182.557 44.9233 183.195C41.3018 182.464 38.2265 180.918 35.6974 178.558C34.1922 174.67 33.0512 170.238 32.2743 165.263C31.7678 159.89 31.1368 154.7 30.3812 149.694C28.9157 145.746 26.942 142.557 24.4601 140.126C25.0556 136.598 25.7322 133.126 26.4899 129.711C27.6317 126.552 29.0337 123.569 30.6961 120.759C32.9146 118.319 35.3676 116.038 38.0551 113.916C41.0336 111.989 44.0359 110.078 47.0622 108.183C49.8921 106.153 52.5156 103.986 54.9327 101.682C56.8178 99.0223 58.4278 96.1778 59.7629 93.1491C60.6516 89.8179 61.41 86.401 62.0381 82.8984C62.6548 79.3882 63.3893 75.9553 64.2417 72.5997C65.5244 69.5359 67.0788 66.6542 68.9048 63.9545C71.2741 61.619 73.8556 59.424 76.6492 57.3697C79.6686 55.4699 82.6754 53.5618 85.6698 51.6453C88.396 49.549 90.8945 47.2984 93.1653 44.8936C94.8867 42.1238 96.3433 39.1766 97.5351 36.0518C98.3223 32.6559 99.016 29.1956 99.616 25.6709C100.276 22.1896 101.086 18.8089 102.046 15.5287C103.481 12.567 105.194 9.79 107.185 7.19778Z" stroke="#484848" stroke-width="2" stroke-linecap="round" stroke-dasharray="7 8"/>
<path opacity="0.37" d="M117.595 11.9372C119.227 14.7426 120.643 17.8173 121.843 21.1612C122.844 24.7551 123.879 28.3052 124.95 31.8114C126.349 34.9075 128.007 37.6788 129.926 40.1253C132.452 41.8133 135.264 43.1423 138.364 44.1124C141.894 44.5461 145.522 44.856 149.249 45.0419C152.902 45.3219 156.389 45.808 159.711 46.5003C162.514 47.8421 165.012 49.5643 167.206 51.6668C168.825 54.4872 170.232 57.5737 171.425 60.9261C172.424 64.5221 173.461 68.0701 174.537 71.5699C175.946 74.6532 177.616 77.4106 179.547 79.8421C182.086 81.513 184.912 82.826 188.024 83.7811C191.561 84.2042 195.194 84.5087 198.921 84.6947C202.569 84.981 206.049 85.4757 209.363 86.1787C212.152 87.5376 214.635 89.276 216.813 91.3939C218.421 94.2293 219.818 97.3275 221.005 100.688C222.002 104.287 223.041 107.832 224.121 111.326C222.825 114.47 222.102 118.072 221.951 122.133C222.595 126.829 223.39 131.647 224.338 136.586C225.035 141.325 225.355 145.763 225.298 149.898C224.122 153.138 222.305 155.866 219.849 158.081C216.192 159.336 212.082 160.229 207.518 160.758C202.517 160.938 197.571 161.161 192.679 161.427C188.419 162.2 184.682 163.39 181.467 164.999C179.51 167.615 178.178 170.73 177.469 174.344C177.758 178.757 178.332 183.397 179.189 188.264C180.083 193.16 180.725 197.855 181.115 202.348C180.549 206.077 179.372 209.314 177.581 212.059C174.518 213.789 170.913 215.086 166.767 215.949C161.926 216.257 156.997 216.493 151.978 216.659C147.332 217.122 143.113 217.927 139.321 219.074C136.702 221.16 134.726 223.759 133.391 226.873C133.343 226.004 132.713 221.327 131.501 212.843C129.362 210.465 126.682 208.764 123.461 207.74C119.309 207.879 114.856 208.392 110.102 209.278C105.211 210.341 100.489 211.192 95.9358 211.831C92.1387 211.527 88.8519 210.584 86.0754 209.004C84.3813 206.071 83.1511 202.556 82.3849 198.459C82.2124 193.625 82.1082 188.705 82.0725 183.7C81.6914 179.126 80.9299 175.027 79.788 171.404C77.6232 169.055 74.9192 167.382 71.676 166.385C67.5044 166.548 63.0387 167.079 58.279 167.977C53.3893 169.038 48.6738 169.879 44.1325 170.5C40.3559 170.169 37.0913 169.199 34.3388 167.589C32.6685 164.626 31.4599 161.086 30.713 156.97C30.549 152.125 30.4464 147.201 30.4051 142.198C30.012 137.639 29.2343 133.561 28.0718 129.964C28.9812 126.738 30.0436 123.636 31.259 120.659C32.9167 118.036 34.8198 115.607 36.9685 113.373C39.5663 111.502 42.3284 109.76 45.2548 108.149C48.3205 106.652 51.3529 105.127 54.3519 103.573C57.0843 101.81 59.6094 99.8804 61.9273 97.7853C63.7619 95.2999 65.3606 92.6276 66.7234 89.7682C67.7247 86.616 68.6268 83.3863 69.4298 80.0789C70.2499 76.7853 71.1787 73.5769 72.2163 70.4538C73.6347 67.6389 75.2921 65.0135 77.1887 62.5777C79.5643 60.5288 82.1396 58.6397 84.9147 56.9104C87.9351 55.374 90.975 53.8548 94.0343 52.353C96.9265 50.7139 99.6459 48.9383 102.192 47.0261C104.28 44.7463 106.122 42.2689 107.719 39.5937C108.888 36.5788 109.913 33.4473 110.794 30.1994C111.58 26.8784 112.423 23.6027 113.322 20.3723C114.528 17.3843 115.953 14.5726 117.595 11.9372Z" stroke="#484848" stroke-width="2" stroke-linecap="round" stroke-dasharray="7 9"/>
<path opacity="0.41" d="M126.787 19.0294C127.664 22.2681 128.423 25.6279 129.066 29.1088C129.733 32.5678 130.535 35.8829 131.472 39.0541C132.884 41.7291 134.588 44.0934 136.585 46.1471C139.191 47.5635 142.051 48.7119 145.165 49.5924C148.607 50.1236 152.093 50.6101 155.624 51.0519C158.983 51.6705 162.145 52.4984 165.111 53.5357C167.524 55.1507 169.633 57.0893 171.436 59.3513C172.676 62.203 173.709 65.2749 174.534 68.5672C175.166 72.0639 175.828 75.5269 176.52 78.9562C177.517 82.0678 178.761 84.9164 180.254 87.5021C182.345 89.4604 184.734 91.1032 187.421 92.4304C190.599 93.2434 193.924 93.9016 197.397 94.4049C200.916 94.8547 204.333 95.4137 207.649 96.0818C210.539 97.1946 213.147 98.6071 215.472 100.319C217.185 102.673 218.624 105.316 219.791 108.249C220.573 111.587 221.275 115.007 221.898 118.51C221.361 122.173 221.164 126.16 221.308 130.473C221.775 135.093 222.194 139.665 222.564 144.188C222.434 148.241 221.894 151.905 220.944 155.18C218.992 157.5 216.526 159.333 213.545 160.681C209.685 161.195 205.532 161.427 201.084 161.379C196.432 161.141 191.89 161.006 187.456 160.975C183.626 161.513 180.24 162.474 177.297 163.857C175.38 166.215 173.967 169.048 173.057 172.357C172.95 176.432 173.087 180.738 173.468 185.275C173.931 189.887 174.226 194.341 174.352 198.637C173.781 202.272 172.737 205.457 171.219 208.193C168.666 209.942 165.63 211.236 162.114 212.076C157.869 212.224 153.44 212.194 148.825 211.988C144.249 211.822 139.897 211.868 135.769 212.127C132.425 213.126 129.576 214.596 127.22 216.538C125.66 214.819 124.025 210.521 122.316 203.644C119.78 202.086 116.757 201.042 113.247 200.51C109.012 200.747 104.599 201.169 100.008 201.777C95.5023 202.296 91.2494 202.548 87.2499 202.532C84.0906 201.632 81.4426 200.192 79.3061 198.214C78.1981 195.152 77.5167 191.642 77.2621 187.684C77.5292 183.173 77.849 178.606 78.2216 173.984C78.2588 169.714 77.9401 165.82 77.2653 162.302C75.6261 159.799 73.4613 157.85 70.7709 156.456C67.1351 156.061 63.1592 156.023 58.8433 156.341C54.2372 156.965 49.7065 157.51 45.2512 157.975C41.3591 157.846 37.9049 157.256 34.8887 156.205C32.9124 154.062 31.4409 151.384 30.4741 148.173C30.3192 144.107 30.397 139.795 30.7074 135.238C31.0573 130.639 31.2095 126.249 31.1639 122.067C32.4986 119.297 34.0179 116.702 35.7218 114.283C37.8465 112.262 40.1737 110.434 42.7033 108.798C45.5545 107.463 48.496 106.216 51.5278 105.057C54.5776 103.914 57.5499 102.698 60.4448 101.409C63.0459 99.8403 65.4495 98.0846 67.6556 96.1415C69.4389 93.7971 71.0306 91.2691 72.4307 88.5573C73.5451 85.5782 74.59 82.5331 75.5654 79.4221C76.5765 76.345 77.6859 73.3612 78.8936 70.4706C80.4307 67.8927 82.1723 65.5088 84.1184 63.3189C86.4852 61.5245 89.0327 59.9035 91.7608 58.4558C94.7351 57.2416 97.7531 56.069 100.815 54.9377C103.795 53.7292 106.655 52.4068 109.395 50.9704C111.776 49.1931 113.948 47.216 115.912 45.0392C117.465 42.4764 118.851 39.7544 120.068 36.8732C121.083 33.7998 122.077 30.7067 123.051 27.5939C124.157 24.6072 125.403 21.7524 126.787 19.0294Z" stroke="#484848" stroke-width="2" stroke-linecap="round" stroke-dasharray="6 4"/>
<path opacity="0.45" d="M134.496 28.1447C134.816 31.5011 135.14 34.8558 135.468 38.2087C136.031 41.3525 136.809 44.3033 137.802 47.0611C139.352 49.3262 141.201 51.3256 143.348 53.0595C146.038 54.3074 148.933 55.3744 152.033 56.2604C155.337 56.9608 158.631 57.673 161.913 58.3972C164.941 59.3469 167.748 60.4922 170.333 61.8328C172.356 63.6777 174.08 65.7881 175.506 68.1641C176.394 71.0147 177.086 74.0419 177.582 77.2457C177.89 80.6169 178.218 83.9679 178.566 87.2988C179.187 90.3916 180.035 93.2816 181.111 95.9687C182.754 98.148 184.695 100.064 186.935 101.716C189.701 102.898 192.657 103.911 195.803 104.753C199.121 105.444 202.41 106.163 205.667 106.909C208.634 107.91 211.369 109.119 213.87 110.538C215.798 112.467 217.43 114.658 218.764 117.112C219.578 120.032 220.212 123.113 220.665 126.355C220.446 130.312 220.363 134.424 220.417 138.692C220.437 142.916 220.287 146.951 219.968 150.795C219.054 153.975 217.759 156.725 216.083 159.044C213.587 160.442 210.706 161.41 207.442 161.948C203.586 161.819 199.562 161.499 195.368 160.989C191.138 160.438 187.044 160.043 183.086 159.803C179.671 160.168 176.623 160.946 173.943 162.137C172.081 164.252 170.613 166.807 169.539 169.803C169.106 173.519 168.874 177.46 168.842 181.628C168.916 185.918 168.887 190.09 168.756 194.145C168.138 197.654 167.17 200.771 165.85 203.495C163.723 205.307 161.193 206.667 158.26 207.574C154.644 207.718 150.798 207.6 146.72 207.222C142.466 206.644 138.282 206.145 134.166 205.723C130.476 205.783 127.117 206.213 124.089 207.014C121.378 208.006 119.715 206.414 119.099 202.24C118.1 199.528 116.608 197.255 114.624 195.42C111.688 194.431 108.367 193.788 104.659 193.491C100.473 193.615 96.2343 193.786 91.9438 194.003C87.9396 193.966 84.25 193.65 80.8752 193.056C78.3755 191.68 76.3684 189.865 74.8541 187.612C74.2842 184.518 74.0904 181.09 74.2727 177.326C74.9066 173.165 75.5754 168.971 76.279 164.744C76.6699 160.795 76.7337 157.137 76.4704 153.771C75.3197 151.197 73.6744 149.062 71.5345 147.366C68.4603 146.501 65.0183 145.963 61.2082 145.753C56.983 145.915 52.7353 146.096 48.4653 146.296C44.5388 146.189 40.9505 145.781 37.7006 145.073C35.356 143.562 33.5043 141.611 32.1452 139.219C31.7102 136.005 31.632 132.474 31.9104 128.625C32.5811 124.431 33.257 120.23 33.9382 116.023C35.7241 113.848 37.6883 111.871 39.831 110.092C42.3175 108.7 44.9476 107.471 47.7213 106.406C50.6808 105.545 53.6712 104.719 56.6926 103.928C59.6337 103.051 62.4757 102.06 65.2187 100.956C67.6652 99.5188 69.9351 97.8852 72.0284 96.0553C73.7745 93.831 75.3677 91.4351 76.8082 88.8674C78.0337 86.0624 79.2167 83.2074 80.3569 80.3024C81.5427 77.4485 82.8147 74.6937 84.1731 72.0379C85.8118 69.693 87.6207 67.5393 89.5996 65.5767C91.9349 64.0187 94.4304 62.6386 97.0861 61.4365C99.9782 60.5001 102.929 59.6291 105.937 58.8236C108.931 58.0056 111.851 57.1028 114.698 56.1153C117.288 54.8396 119.711 53.3778 121.966 51.7298C123.865 49.6772 125.599 47.4397 127.169 45.0172C128.476 42.3041 129.712 39.5084 130.876 36.63C132.024 33.7332 133.23 30.9048 134.496 28.1447Z" stroke="#484848" stroke-width="2" stroke-linecap="round" stroke-dasharray="10 10"/>
<path opacity="0.49" d="M140.597 38.6993C140.638 41.9033 140.791 45.0246 141.057 48.0634C141.724 50.7982 142.651 53.3396 143.839 55.6878C145.595 57.6072 147.622 59.3251 149.92 60.8415C152.659 62.0243 155.539 63.1032 158.56 64.0783C161.662 64.9926 164.699 65.9542 167.67 66.9632C170.323 68.2138 172.741 69.6389 174.924 71.2384C176.552 73.2568 177.896 75.4857 178.958 77.9252C179.521 80.7408 179.902 83.6916 180.1 86.7774C180.119 90.0016 180.15 93.214 180.195 96.4146C180.472 99.4452 180.949 102.324 181.627 105.05C182.83 107.387 184.317 109.509 186.088 111.417C188.402 112.922 190.933 114.264 193.683 115.442C196.707 116.412 199.77 117.354 202.872 118.268C205.836 119.282 208.64 120.418 211.282 121.677C213.449 123.288 215.339 125.109 216.952 127.138C218 129.588 218.8 132.224 219.353 135.048C219.068 138.958 218.769 142.85 218.457 146.725C217.898 150.269 217.122 153.522 216.13 156.484C214.567 158.687 212.688 160.469 210.493 161.829C207.686 162.369 204.618 162.561 201.288 162.406C197.598 161.771 193.831 161.032 189.985 160.188C186.213 159.438 182.581 158.878 179.09 158.508C176.065 158.76 173.335 159.403 170.899 160.437C169.094 162.319 167.592 164.603 166.391 167.291C165.684 170.638 165.14 174.201 164.76 177.98C164.491 181.911 164.167 185.77 163.788 189.554C163.088 192.906 162.14 195.929 160.944 198.623C159.148 200.516 157.035 201.984 154.606 203.027C151.586 203.286 148.333 203.233 144.847 202.87C141.074 202.123 137.265 201.327 133.422 200.482C129.73 199.843 126.216 199.442 122.88 199.28C119.021 198.889 116.225 196.932 114.492 193.409C112.904 191.484 110.869 189.893 108.389 188.636C105.15 187.944 101.651 187.448 97.8942 187.147C93.9225 187.007 90.0111 186.822 86.1599 186.592C82.7489 186.032 79.6884 185.21 76.9783 184.125C75.1333 182.392 73.744 180.318 72.8102 177.903C72.713 174.861 72.9401 171.576 73.4913 168.049C74.4104 164.245 75.3515 160.426 76.3145 156.59C76.9883 152.97 77.3697 149.57 77.4588 146.389C76.7484 143.806 75.5868 141.561 73.9741 139.655C71.4698 138.416 68.5911 137.457 65.3378 136.779C61.5698 136.487 57.6989 136.271 53.725 136.133C49.8826 135.896 46.2635 135.492 42.8679 134.921C40.1797 133.82 37.9252 132.394 36.1043 130.643C35.1968 128.208 34.7043 125.462 34.6269 122.405C35.1913 118.868 35.9363 115.195 36.862 111.387C39.039 109.893 41.3588 108.59 43.8213 107.477C46.5216 106.682 49.3048 105.997 52.1709 105.423C55.1091 104.946 58.029 104.446 60.9306 103.924C63.7015 103.223 66.3641 102.378 68.9184 101.388C71.2021 100.036 73.3389 98.4886 75.3289 96.745C77.0395 94.633 78.6371 92.3679 80.1219 89.9498C81.4573 87.3324 82.7673 84.681 84.0519 81.9956C85.3874 79.3782 86.7983 76.8615 88.2847 74.4456C89.9985 72.3379 91.8521 70.4145 93.8454 68.6753C96.1323 67.3283 98.5546 66.1619 101.112 65.1762C103.885 64.4774 106.724 63.8673 109.629 63.3459C112.564 62.8678 115.464 62.3418 118.33 61.7679C121.028 60.9705 123.607 60.0122 126.064 58.8929C128.238 57.3947 130.266 55.7026 132.15 53.8167C133.767 51.5798 135.284 49.2074 136.702 46.6995C138.006 44.0405 139.304 41.3737 140.597 38.6993Z" stroke="#484848" stroke-width="2" stroke-linecap="round" stroke-dasharray="5 1"/>
<path opacity="0.53" d="M145.15 49.9508C145.195 52.8208 145.431 55.5723 145.86 58.2053C146.775 60.5314 147.955 62.6915 149.401 64.6856C151.36 66.3592 153.54 67.8962 155.941 69.2966C158.648 70.5032 161.427 71.6642 164.279 72.7795C167.097 73.9166 169.808 75.1222 172.411 76.3964C174.648 77.896 176.648 79.5442 178.41 81.3411C179.644 83.4671 180.618 85.7582 181.33 88.2143C181.59 90.9494 181.685 93.7874 181.616 96.7284C181.377 99.7753 181.145 102.82 180.92 105.862C180.883 108.782 181.018 111.596 181.324 114.302C182.097 116.716 183.133 118.968 184.432 121.058C186.255 122.817 188.309 124.431 190.595 125.9C193.231 127.15 195.966 128.341 198.799 129.471C201.642 130.592 204.404 131.764 207.085 132.987C209.436 134.415 211.564 135.985 213.469 137.696C214.85 139.73 215.967 141.93 216.819 144.296C216.209 147.777 215.502 151.104 214.696 154.276C213.563 156.924 212.219 159.236 210.667 161.213C208.643 162.436 206.387 163.284 203.898 163.758C200.992 163.57 197.928 163.128 194.705 162.431C191.298 161.44 187.875 160.421 184.436 159.375C181.119 158.528 177.934 157.893 174.882 157.471C170.227 158.944 166.26 161.516 162.981 165.188C162.054 168.165 161.252 171.344 160.577 174.725C160.014 178.281 159.425 181.798 158.811 185.276C157.999 188.439 157.024 191.34 155.885 193.978C154.323 195.941 152.527 197.527 150.497 198.734C147.997 199.195 145.291 199.326 142.378 199.126C139.151 198.423 135.832 197.573 132.422 196.578C128.985 195.534 125.609 194.591 122.294 193.748C117.65 192.233 113.851 189.98 110.897 186.988C108.741 185.599 106.237 184.428 103.382 183.475C100.025 182.837 96.538 182.279 92.9226 181.802C89.3304 181.31 85.8879 180.725 82.5951 180.046C78.2142 177.311 75.0052 173.843 72.9681 169.643C73.2747 166.715 73.8493 163.62 74.692 160.357C75.8294 156.91 76.9738 153.459 78.1251 150.003C79.0165 146.709 79.6526 143.576 80.0335 140.601C78.1844 136.284 75.1564 132.703 70.9495 129.859C67.7078 129.149 64.3024 128.54 60.7334 128.034C57.1064 127.564 53.5908 127.025 50.1867 126.415C47.2628 125.506 44.6767 124.386 42.4282 123.054C40.978 121.224 39.9374 119.138 39.3065 116.796C41.0032 111.993 43.9484 108.345 48.1419 105.854C50.8938 105.564 53.6761 105.322 56.489 105.13C59.2864 104.918 62.0393 104.632 64.7477 104.272C67.3016 103.67 69.7543 102.904 72.106 101.973C74.2286 100.676 76.2347 99.195 78.1244 97.5301C79.809 95.532 81.4119 93.4058 82.9333 91.1515C84.3598 88.7403 85.7747 86.3106 87.178 83.8622C88.6326 81.5012 90.15 79.2381 91.7302 77.0728C93.4932 75.2 95.3644 73.5031 97.344 71.9822C99.5594 70.8334 101.885 69.8629 104.319 69.0707C106.942 68.5741 109.63 68.1819 112.384 67.8941C115.196 67.7052 118.001 67.5029 120.799 67.287C123.506 66.925 126.134 66.4395 128.684 65.8306C131.031 64.893 133.263 63.774 135.381 62.4735C137.268 60.8003 139.053 58.9623 140.735 56.9595C142.253 54.7006 143.725 52.3644 145.15 49.9508Z" stroke="#484848" stroke-width="2" stroke-linecap="round" stroke-dasharray="2 8"/>
<path opacity="0.56" d="M148.405 61.1217C149.416 65.8071 151.378 70.0064 154.289 73.7196C158.787 76.6158 163.615 79.3439 168.773 81.9039C173.408 84.7326 177.289 87.9467 180.416 91.5464C181.645 96.123 182.096 101.098 181.768 106.47C180.835 112.156 180.194 117.692 179.846 123.079C181.04 127.67 183.182 131.777 186.274 135.397C190.89 138.236 195.776 140.934 200.933 143.492C205.456 146.378 209.19 149.668 212.134 153.361C209.808 158.344 206.88 162.16 203.351 164.808C198.5 164.873 193.167 163.998 187.35 162.182C181.272 159.856 175.465 158.057 169.927 156.784C165.534 157.743 161.808 160.003 158.748 163.563C156.733 169.155 154.905 175.11 153.263 181.428C151.188 186.903 148.573 191.325 145.416 194.692C140.921 195.455 135.87 195.134 130.265 193.729C124.178 191.387 118.253 189.359 112.489 187.645C109.269 184.428 104.874 181.814 99.3025 179.805C92.7768 178.284 86.6582 176.554 80.9468 174.613C77.5082 171.509 75.4889 167.676 74.8891 163.115C76.5899 157.373 78.7266 151.407 81.2991 145.218C82.9683 139.492 83.4774 134.362 82.8264 129.827C79.3342 126.75 74.7178 124.249 68.9772 122.323C62.4515 120.803 56.4199 119.029 50.8827 117.002C47.7167 113.757 45.9689 109.785 45.6393 105.085C50.7592 104.891 55.964 104.859 61.2537 104.989C66.2923 104.63 71.0422 103.709 75.5036 102.225C79.2677 99.3832 82.7489 95.9926 85.9472 92.0537C88.9242 87.6777 91.9974 83.4891 95.1668 79.4881C98.8797 76.546 102.941 74.2821 107.35 72.6962C112.351 72.2704 117.494 72.119 122.78 72.2422C127.929 72.0976 132.826 71.4636 137.472 70.3403C141.43 67.8754 145.074 64.8026 148.405 61.1217Z" stroke="#484848" stroke-width="2" stroke-linecap="round" stroke-dasharray="9 6"/>
<path opacity="0.6" d="M150.749 71.5117C152.465 75.4722 154.99 79.0988 158.325 82.3913C162.724 85.2497 167.198 88.0755 171.748 90.8689C175.493 93.9955 178.493 97.4289 180.745 101.169C181.295 105.605 181.177 110.318 180.389 115.307C179.059 120.516 177.947 125.637 177.053 130.67C177.427 135.181 178.644 139.345 180.703 143.162C184.309 146.346 188.366 149.345 192.874 152.158C197.335 154.988 201.311 158.019 204.801 161.25C201.727 164.282 198.196 166.197 194.208 166.995C189.39 165.782 184.33 163.98 179.028 161.587C173.734 159.215 168.688 157.445 163.889 156.277C159.923 157.138 156.415 159.113 153.365 162.203C151.037 167.041 148.857 172.245 146.826 177.816C144.587 182.88 142.022 187.151 139.132 190.629C135.341 191.917 131.116 192.145 126.455 191.314C121.22 189.084 115.932 186.725 110.591 184.239C106.385 181.597 101.476 179.244 95.8647 177.18C90.1892 175.139 85.1635 172.833 80.7876 170.261C78.6442 166.772 77.7178 162.781 78.0085 158.289C80.1303 153.048 82.5654 147.676 85.3139 142.175C87.2838 136.996 88.2855 132.215 88.319 127.831C85.9012 124.452 82.4031 121.518 77.8247 119.029C72.0869 117.017 66.4588 114.958 60.9402 112.852C58.5678 108.561 60.5965 105.855 67.0263 104.734C71.5251 104.401 75.7851 103.482 79.806 101.978C83.3295 99.2703 86.6726 96.1234 89.8352 92.5373C92.8835 88.6727 96.0157 85.0089 99.2318 81.5458C102.843 79.0506 106.706 77.1693 110.821 75.9018C115.396 75.7531 120.108 75.9368 124.959 76.4528C129.812 76.9799 134.53 77.1818 139.115 77.0585C143.245 75.8264 147.123 73.9775 150.749 71.5117Z" stroke="#484848" stroke-width="2" stroke-linecap="round" stroke-dasharray="9 6"/>
<path opacity="0.64" d="M152.606 80.6476C154.965 84.0528 157.899 87.2783 161.407 90.324C165.434 93.2034 169.332 96.1248 173.101 99.0883C175.907 102.353 178.012 105.839 179.416 109.548C179.356 113.716 178.737 118.062 177.558 122.586C175.905 127.256 174.405 131.879 173.056 136.457C172.704 140.717 173.061 144.754 174.129 148.57C176.648 151.925 179.712 155.109 183.322 158.123C183.221 162.671 178.715 163.441 169.805 160.435C165.259 158.201 160.908 156.587 156.752 155.594C153.156 156.372 149.851 158.08 146.837 160.717C144.288 164.817 141.851 169.272 139.525 174.079C137.124 178.65 134.546 182.663 131.791 186.12C128.498 187.861 124.909 188.666 121.026 188.533C116.649 186.837 112.137 184.716 107.489 182.17C102.876 179.688 98.0187 177.283 92.9175 174.955C88.4158 172.434 84.6726 169.677 81.688 166.681C80.7313 163.046 80.7636 159.099 81.7852 154.84C84.1977 150.143 86.823 145.378 89.661 140.547C91.8387 135.924 93.2347 131.547 93.8491 127.416C92.4226 123.929 90.0174 120.751 86.6335 117.881C81.9081 115.434 77.0022 113.043 71.9159 110.707C68.3684 107.091 69.1207 104.986 74.1727 104.392C78.1223 103.941 81.8986 102.942 85.5018 101.392C88.7906 98.8461 91.9766 95.9737 95.0596 92.775C98.0991 89.438 101.204 86.3072 104.373 83.3825C107.813 81.3139 111.423 79.7868 115.204 78.8013C119.311 78.8519 123.531 79.2644 127.864 80.0387C132.273 81.0445 136.631 81.8898 140.939 82.5746C144.995 82.4634 148.884 81.821 152.606 80.6476Z" stroke="#484848" stroke-width="2" stroke-linecap="round"/>
<path opacity="0.68" d="M154.348 88.2983C157.091 91.3394 160.142 94.3096 163.503 97.2088C166.91 100.098 170.049 103.047 172.921 106.056C174.793 109.293 176.043 112.668 176.67 116.182C176.09 119.966 175.056 123.853 173.569 127.842C171.681 131.924 169.89 135.983 168.194 140.018C167.24 143.887 166.851 147.629 167.027 151.244C168.466 154.578 170.463 157.786 173.018 160.866C172.315 163.403 167.992 162.599 160.048 158.455C156.18 156.491 152.444 155.114 148.841 154.322C145.571 155.023 142.47 156.472 139.536 158.668C136.871 162.061 134.278 165.775 131.758 169.811C129.23 173.812 126.622 177.458 123.934 180.749C120.967 182.799 117.831 184.096 114.526 184.639C110.889 183.709 107.126 182.216 103.237 180.159C98.8857 177.597 94.6485 175.011 90.5251 172.401C87.3729 169.57 84.9753 166.571 83.3322 163.403C83.3946 159.85 84.2169 156.127 85.799 152.234C88.3851 148.116 91.1003 143.968 93.9448 139.789C96.2478 135.734 97.9391 131.816 99.0188 128.034C98.4703 124.62 97.0833 121.394 94.8576 118.354C91.2815 115.621 87.3446 112.968 83.047 110.394C82.6462 106.252 85.8754 103.068 92.7349 100.842C95.787 98.498 98.791 95.9338 101.747 93.1491C104.695 90.3436 107.688 87.737 110.726 85.3294C113.93 83.6613 117.239 82.4534 120.653 81.7058C124.271 81.8826 127.971 82.4212 131.752 83.3216C135.622 84.6031 139.486 85.8636 143.343 87.103C147.099 87.8912 150.768 88.2897 154.348 88.2983Z" stroke="#484848" stroke-width="2" stroke-linecap="round" stroke-dasharray="2 1"/>
<path opacity="0.72" d="M156.179 94.5239C158.925 97.3226 161.745 100.111 164.639 102.89C167.244 105.708 169.515 108.572 171.452 111.482C172.453 114.524 172.935 117.636 172.898 120.818C171.906 124.131 170.562 127.492 168.865 130.902C166.838 134.358 164.864 137.806 162.942 141.247C161.539 144.617 160.555 147.929 159.992 151.183C160.442 154.297 161.401 157.342 162.868 160.317C161.415 161.575 157.252 159.957 150.38 155.464C147.11 153.842 143.911 152.738 140.783 152.151C137.818 152.761 134.934 153.953 132.131 155.728C129.458 158.444 126.822 161.442 124.224 164.722C121.641 168.096 119.032 171.276 116.396 174.26C113.645 176.434 110.82 178.057 107.921 179.13C104.855 178.994 101.712 178.299 98.4898 177.046C94.9788 174.375 91.7947 171.66 88.9374 168.901C87.159 165.994 86.042 162.995 85.5863 159.903C86.4538 156.632 87.8702 153.284 89.8354 149.859C92.4786 146.343 95.1883 142.819 97.9644 139.285C100.309 135.808 102.196 132.395 103.625 129.047C103.806 125.867 103.311 122.782 102.14 119.792C99.749 116.969 96.92 114.205 93.6529 111.5C92.8579 106.886 95.39 103.315 101.249 100.788C104.06 98.6916 106.853 96.4662 109.629 94.1121C112.413 91.8231 115.223 89.717 118.057 87.794C120.977 86.4863 123.948 85.5582 126.972 85.0096C130.104 85.2445 133.283 85.8153 136.51 86.7222C139.797 88.0875 143.095 89.5355 146.405 91.0663C149.694 92.4425 152.952 93.595 156.179 94.5239Z" stroke="#484848" stroke-width="2" stroke-linecap="round" stroke-dasharray="1 1"/>
<path opacity="0.76" d="M158.05 99.578C160.414 102.172 162.686 104.772 164.867 107.376C166.586 110.004 167.968 112.65 169.015 115.313C169.264 118.019 169.108 120.745 168.547 123.493C167.268 126.276 165.728 129.073 163.927 131.886C161.867 134.712 159.826 137.538 157.803 140.362C156.112 143.169 154.711 145.961 153.602 148.737C153.238 151.475 153.284 154.189 153.741 156.881C151.458 157.458 147.401 155.643 141.568 151.435C138.817 150.182 136.088 149.352 133.381 148.946C130.722 149.455 128.086 150.398 125.473 151.773C122.9 153.865 120.337 156.188 117.786 158.745C115.243 161.467 112.696 164.11 110.145 166.671C107.569 168.765 104.975 170.506 102.362 171.892C99.7039 172.41 97.0216 172.47 94.3153 172.072C92.0063 169.425 90.0922 166.758 88.5729 164.069C88.0292 161.328 88.0033 158.56 88.4954 155.766C89.9303 152.924 91.7313 150.06 93.8984 147.176C96.4838 144.273 99.0937 141.367 101.728 138.459C104.032 135.57 106.007 132.699 107.652 129.845C108.395 127.036 108.628 124.255 108.349 121.502C107.065 118.799 105.354 116.119 103.217 113.463C102.906 108.353 105.309 104.407 110.427 101.626C112.985 99.8202 115.539 97.9572 118.088 96.037C120.646 94.2341 123.211 92.5911 125.783 91.1081C128.384 90.1169 131 89.4262 133.632 89.0362C136.295 89.2748 138.974 89.8044 141.669 90.625C144.389 91.9074 147.115 93.3333 149.847 94.9028C152.585 96.5377 155.32 98.0961 158.05 99.578Z" stroke="#484848" stroke-width="2" stroke-linecap="round" stroke-dasharray="3 6"/>
<path opacity="0.8" d="M159.66 103.845C162.692 108.506 164.774 113.137 165.906 117.737C164.641 122.261 162.394 126.755 159.166 131.218C155.177 135.655 151.555 140.103 148.299 144.563C145.276 149.18 140.637 149.853 134.382 146.581C129.765 145.418 125.108 145.54 120.411 146.947C115.647 150.368 110.873 154.145 106.089 158.28C101.329 161.582 96.6034 163.845 91.9126 165.066C90.5578 160.262 90.6663 155.504 92.238 150.793C96.1838 146.161 100.577 141.541 105.417 136.935C109.33 132.299 112.045 127.626 113.562 122.916C112.155 118.11 109.589 113.267 105.863 108.386C110.361 107.534 114.883 105.923 119.43 103.555C123.997 100.58 128.554 97.8666 133.104 95.4139C137.607 94.4218 142.079 94.3665 146.522 95.2479C150.914 97.7349 155.293 100.601 159.66 103.845Z" stroke="#484848" stroke-width="2" stroke-linecap="round" stroke-dasharray="6 2"/>
<path opacity="0.84" d="M160.495 107.689C161.914 111.601 162.528 115.419 162.338 119.141C160.477 122.67 157.974 126.123 154.829 129.5C151.144 132.816 147.632 136.152 144.295 139.506C142.099 142.996 140.716 146.58 140.146 150.257C136.633 146.692 133.055 143.705 129.411 141.295C125.573 140.544 121.632 140.656 117.589 141.633C113.389 143.98 109.15 146.655 104.873 149.66C98.8653 151.366 96.2554 149.84 97.0429 145.083C100.928 141.564 105.019 138.07 109.315 134.599C112.975 131.051 115.877 127.416 118.02 123.693C118.193 119.741 117.417 115.676 115.693 111.499C119.535 110.239 123.425 108.581 127.363 106.523C131.32 104.297 135.249 102.322 139.148 100.598C142.921 99.9259 146.618 99.9185 150.238 100.576C153.71 102.503 157.129 104.874 160.495 107.689Z" stroke="#484848" stroke-width="2" stroke-linecap="round" stroke-dasharray="7 5"/>
<path opacity="0.88" d="M159.943 111.389C159.97 114.369 159.445 117.238 158.368 119.995C156.274 122.546 153.804 125.019 150.96 127.415C147.767 129.742 144.628 132.08 141.545 134.43C139.012 136.888 136.926 139.44 135.288 142.083C132.601 139.626 129.821 137.635 126.948 136.11C123.855 135.667 120.653 135.75 117.343 136.359C113.862 137.82 110.328 139.535 106.741 141.503C105.027 140.185 107.34 136.894 113.68 131.63C116.885 129.098 119.661 126.48 122.01 123.774C123.197 120.835 123.755 117.766 123.682 114.568C126.916 113.265 130.178 111.821 133.469 110.234C136.744 108.714 139.979 107.401 143.172 106.297C146.225 105.88 149.192 105.889 152.072 106.324C154.771 107.632 157.395 109.321 159.943 111.389Z" stroke="#484848" stroke-width="2" stroke-linecap="round" stroke-dasharray="6 2"/>
<path opacity="0.92" d="M157.423 115.03C155.077 118.83 151.739 122.341 147.407 125.56C142.302 128.552 137.568 131.653 133.205 134.863C129.007 132.646 124.471 131.581 119.598 131.667C113.788 133.121 113.474 132.058 118.655 128.477C123.395 125.079 127.038 121.358 129.583 117.316C134.712 115.266 139.761 113.489 144.73 111.986C149.249 112.015 153.48 113.03 157.423 115.03Z" stroke="#484848" stroke-width="2" stroke-linecap="round"/>
<path opacity="0.96" d="M152.541 118.515C150.022 120.594 147.134 122.532 143.877 124.329C140.273 125.988 136.723 127.668 133.227 129.369C130.306 128.426 127.198 127.959 123.905 127.969C123.925 126.545 127.09 123.777 133.398 119.664C136.927 118.597 140.375 117.741 143.742 117.093C146.842 117.137 149.775 117.611 152.541 118.515Z" stroke="#484848" stroke-width="2" stroke-linecap="round" stroke-dasharray="2 10"/>
</svg>
