<svg width="60" height="60" viewBox="0 0 60 60" fill="none" xmlns="http://www.w3.org/2000/svg">
<g clip-path="url(#clip0_852_640)">
<path d="M9 0.5H51C55.6944 0.5 59.5 4.30558 59.5 9V51C59.5 55.6944 55.6944 59.5 51 59.5H9C4.30558 59.5 0.5 55.6944 0.5 51V9C0.5 4.30558 4.30558 0.5 9 0.5Z" stroke="#121212"/>
<path d="M30 33.3984L14.0625 45.9375L13.5938 21.0938" fill="black" fill-opacity="0.05"/>
<path d="M14.0625 45.9375H11.3672C9.96094 45.9375 8.78906 44.7656 8.78906 43.2422V16.7578H14.0625V45.9375Z" fill="#121212"/>
<path d="M45.9375 45.9375H48.6328C50.0391 45.9375 51.2109 44.7656 51.2109 43.2422V16.7578H45.9375V45.9375Z" fill="#121212"/>
<path d="M11.3672 16.7578L30 30.2344L48.6328 16.7578" stroke="#121212" stroke-width="7" stroke-linecap="round"/>
</g>
<defs>
<clipPath id="clip0_852_640">
<rect width="60" height="60" fill="white"/>
</clipPath>
</defs>
</svg>
