<svg width="68" height="68" viewBox="0 0 68 68" fill="none" xmlns="http://www.w3.org/2000/svg">
<g filter="url(#filter0_bd_986_123)">
<circle cx="34" cy="30" r="30" fill="white" fill-opacity="0.1" shape-rendering="crispEdges"/>
</g>
<path fill-rule="evenodd" clip-rule="evenodd" d="M44.5 31.5H40C37.5145 31.5 35.5 33.5145 35.5 36V40.5C35.5 42.9855 37.5145 45 40 45H44.5C46.9855 45 49 42.9855 49 40.5V36C49 33.5145 46.9855 31.5 44.5 31.5ZM28 31.5H23.5C21.0145 31.5 19 33.5145 19 36V40.5C19 42.9855 21.0145 45 23.5 45H28C30.4855 45 32.5 42.9855 32.5 40.5V36C32.5 33.5145 30.4855 31.5 28 31.5ZM44.5 15H40C37.5145 15 35.5 17.0145 35.5 19.5V24C35.5 26.4855 37.5145 28.5 40 28.5H44.5C46.9855 28.5 49 26.4855 49 24V19.5C49 17.0145 46.9855 15 44.5 15ZM32.5 19.5V24C32.5 26.4855 30.4855 28.5 28 28.5H23.5C21.0145 28.5 19 26.4855 19 24V19.5C19 17.0145 21.0145 15 23.5 15H28C30.4855 15 32.5 17.0145 32.5 19.5Z" fill="black"/>
<defs>
<filter id="filter0_bd_986_123" x="-16" y="-20" width="100" height="100" filterUnits="userSpaceOnUse" color-interpolation-filters="sRGB">
<feFlood flood-opacity="0" result="BackgroundImageFix"/>
<feGaussianBlur in="BackgroundImageFix" stdDeviation="10"/>
<feComposite in2="SourceAlpha" operator="in" result="effect1_backgroundBlur_986_123"/>
<feColorMatrix in="SourceAlpha" type="matrix" values="0 0 0 0 0 0 0 0 0 0 0 0 0 0 0 0 0 0 127 0" result="hardAlpha"/>
<feOffset dy="4"/>
<feGaussianBlur stdDeviation="2"/>
<feComposite in2="hardAlpha" operator="out"/>
<feColorMatrix type="matrix" values="0 0 0 0 0 0 0 0 0 0 0 0 0 0 0 0 0 0 0.25 0"/>
<feBlend mode="normal" in2="effect1_backgroundBlur_986_123" result="effect2_dropShadow_986_123"/>
<feBlend mode="normal" in="SourceGraphic" in2="effect2_dropShadow_986_123" result="shape"/>
</filter>
</defs>
</svg>
