<svg width="98" height="88" viewBox="0 0 98 88" fill="none" xmlns="http://www.w3.org/2000/svg">
<g filter="url(#filter0_d_852_468)">
<path d="M73.1759 25.9295C72.2526 25.6084 71.2959 25.3047 70.3109 25.0174C70.4728 24.3498 70.6214 23.6909 70.7535 23.0432C72.9222 12.4074 71.5042 3.83909 66.6622 1.01805C62.0192 -1.68695 54.426 1.13345 46.7573 7.87603C46.0199 8.52439 45.2804 9.21085 44.5412 9.93027C44.0487 9.45428 43.5569 8.9943 43.0665 8.55432C35.0294 1.34472 26.9735 -1.69351 22.1362 1.13569C17.4977 3.84854 16.124 11.9035 18.0762 21.9831C18.2647 22.9567 18.4851 23.951 18.7343 24.9618C17.5942 25.2888 16.4935 25.6374 15.4403 26.0082C6.0177 29.3272 0 34.5288 0 39.9243C0 45.4967 6.46 51.086 16.2744 54.475C17.0489 54.7425 17.8525 54.9954 18.6807 55.2354C18.4119 56.3287 18.1781 57.4001 17.9818 58.4451C16.1204 68.3498 17.574 76.2144 22.2002 78.9102C26.9786 81.6941 34.998 78.8325 42.807 71.9363C43.4242 71.3912 44.0436 70.8131 44.6641 70.2071C45.4684 70.9896 46.2714 71.7302 47.0702 72.4248C54.6341 79.0007 62.1046 81.6561 66.7265 78.9529C71.5001 76.161 73.0515 67.7124 71.0374 57.4334C70.8835 56.6483 70.7045 55.8463 70.5035 55.0301C71.0667 54.8619 71.6196 54.6882 72.1587 54.5077C82.3616 51.0924 89 45.5711 89 39.9243C89 34.5093 82.7882 29.2726 73.1759 25.9295ZM70.9629 50.8616C70.4762 51.0244 69.9769 51.1817 69.4681 51.3342C68.3417 47.7317 66.8215 43.9009 64.9612 39.943C66.7365 36.0794 68.1979 32.2976 69.2927 28.7184C70.2031 28.9845 71.0868 29.2653 71.9383 29.5615C80.1742 32.4259 85.198 36.661 85.198 39.9243C85.198 43.4002 79.7724 47.9125 70.9629 50.8616ZM67.3076 58.1794C68.1982 62.7246 68.3254 66.8341 67.7354 70.0466C67.2054 72.9333 66.1394 74.8579 64.8213 75.6287C62.0165 77.2689 56.0185 75.1368 49.5498 69.513C48.8082 68.8683 48.0613 68.1799 47.3119 67.4514C49.8197 64.6805 52.326 61.4591 54.7722 57.8815C59.0747 57.4958 63.1396 56.8652 66.8258 56.0043C67.0074 56.7442 67.1686 57.4699 67.3076 58.1794ZM30.3421 75.3452C27.6018 76.323 25.4192 76.351 24.0999 75.5824C21.2926 73.9465 20.1255 67.6319 21.7175 59.1614C21.8998 58.1914 22.1168 57.1949 22.367 56.1764C26.0128 56.9909 30.0479 57.577 34.3607 57.9302C36.8233 61.431 39.4021 64.6488 42.0008 67.4663C41.433 68.0201 40.8675 68.5472 40.3051 69.044C36.852 72.0935 33.3917 74.257 30.3421 75.3452ZM17.504 50.8403C13.1643 49.3418 9.58038 47.3941 7.12378 45.2688C4.91637 43.3589 3.80189 41.4628 3.80189 39.9243C3.80189 36.6501 8.63351 32.4739 16.6918 29.6355C17.6696 29.291 18.6931 28.9664 19.7553 28.6615C20.869 32.3216 22.3299 36.1482 24.093 40.0177C22.3071 43.9447 20.8254 47.8323 19.7008 51.5352C18.9436 51.3153 18.2099 51.0839 17.504 50.8403ZM21.8075 21.2455C20.1349 12.6095 21.2457 6.09484 24.041 4.46009C27.0185 2.71858 33.6025 5.2016 40.5419 11.4267C40.9855 11.8246 41.4308 12.2411 41.8774 12.6719C39.2915 15.4771 36.7364 18.6708 34.2956 22.1509C30.1099 22.5428 26.1031 23.1725 22.4193 24.0156C22.1877 23.0744 21.9825 22.1496 21.8075 21.2455ZM60.198 30.8227C59.3174 29.2859 58.4133 27.7854 57.4916 26.3259C60.3313 26.6886 63.052 27.17 65.6069 27.7592C64.8399 30.2428 63.8838 32.8396 62.7584 35.5018C61.9511 33.9533 61.0972 32.392 60.198 30.8227ZM44.5425 15.4171C46.2962 17.3366 48.0524 19.4796 49.7798 21.8049C48.0391 21.7218 46.2768 21.6786 44.5 21.6786C42.74 21.6786 40.9907 21.7208 39.2608 21.8025C40.9899 19.4989 42.7614 17.3587 44.5425 15.4171ZM28.7866 30.8493C27.9069 32.3904 27.0689 33.9432 26.2742 35.4989C25.167 32.8461 24.2199 30.2374 23.4461 27.7185C25.9854 27.1444 28.6933 26.675 31.5149 26.3192C30.5802 27.7922 29.6687 29.304 28.7866 30.8493ZM31.5962 53.8033C28.6809 53.4747 25.9324 53.0295 23.3937 52.4712C24.1798 49.9074 25.1479 47.243 26.2785 44.5331C27.0752 46.0876 27.9166 47.6411 28.8016 49.1855C29.7032 50.759 30.6374 52.3003 31.5962 53.8033ZM44.6476 64.7022C42.8456 62.7379 41.0482 60.5651 39.2928 58.2279C40.9969 58.2954 42.7343 58.33 44.5 58.33C46.3141 58.33 48.1074 58.2887 49.8725 58.2093C48.1394 60.5886 46.3895 62.7648 44.6476 64.7022ZM62.7947 44.3949C63.9842 47.1342 64.987 49.7846 65.7832 52.3048C63.2028 52.8995 60.4167 53.3785 57.4812 53.7345C58.4051 52.2553 59.3171 50.7291 60.2132 49.1591C61.1199 47.5708 61.9807 45.9801 62.7947 44.3949ZM56.9199 47.2401C55.5286 49.6772 54.1003 52.0037 52.6503 54.1997C50.0093 54.3905 47.2809 54.4888 44.5 54.4888C41.7304 54.4888 39.0363 54.4019 36.442 54.2318C34.9336 52.0069 33.4742 49.6735 32.0918 47.2611C30.7131 44.8552 29.4445 42.429 28.2947 40.0164C29.4442 37.5983 30.7098 35.1693 32.0806 32.7678L32.0803 32.7683C33.4547 30.3603 34.9012 28.0383 36.3958 25.8274C39.0426 25.6252 41.7568 25.5198 44.4998 25.5198C47.2552 25.5198 49.9731 25.626 52.6191 25.8299C54.0908 28.0247 55.5275 30.3392 56.9074 32.7475C58.3029 35.1828 59.5848 37.5955 60.7441 39.9619C59.5883 42.3689 58.3092 44.8059 56.9199 47.2401ZM64.763 4.34581C67.7434 6.08219 68.9024 13.085 67.0298 22.2679C66.9104 22.8538 66.7759 23.4506 66.6298 24.0555C62.9374 23.1947 58.9278 22.5542 54.7299 22.1563C52.2844 18.6379 49.7502 15.4393 47.2064 12.6702C47.8903 12.0055 48.5733 11.3717 49.2534 10.7736C55.8239 4.99657 61.965 2.7157 64.763 4.34581ZM44.5 31.895C48.8892 31.895 52.4474 35.4898 52.4474 39.9243C52.4474 44.3586 48.8892 47.9535 44.5 47.9535C40.1108 47.9535 36.5526 44.3586 36.5526 39.9243C36.5526 35.4898 40.1108 31.895 44.5 31.895Z" fill="#00D8FF"/>
</g>
<defs>
<filter id="filter0_d_852_468" x="0" y="0" width="98" height="88" filterUnits="userSpaceOnUse" color-interpolation-filters="sRGB">
<feFlood flood-opacity="0" result="BackgroundImageFix"/>
<feColorMatrix in="SourceAlpha" type="matrix" values="0 0 0 0 0 0 0 0 0 0 0 0 0 0 0 0 0 0 127 0" result="hardAlpha"/>
<feOffset dx="5" dy="4"/>
<feGaussianBlur stdDeviation="2"/>
<feComposite in2="hardAlpha" operator="out"/>
<feColorMatrix type="matrix" values="0 0 0 0 0 0 0 0 0 0 0 0 0 0 0 0 0 0 0.25 0"/>
<feBlend mode="normal" in2="BackgroundImageFix" result="effect1_dropShadow_852_468"/>
<feBlend mode="normal" in="SourceGraphic" in2="effect1_dropShadow_852_468" result="shape"/>
</filter>
</defs>
</svg>
