<svg width="118" height="97" viewBox="0 0 118 97" fill="none" xmlns="http://www.w3.org/2000/svg">
<g filter="url(#filter0_d_852_476)">
<path d="M73.8991 28.0605L61.8615 31.9912L51.3891 36.6132L48.4593 37.3867C47.7131 38.0964 46.9307 38.8153 46.0846 39.5431C45.1565 40.3437 44.2921 41.0717 43.6279 41.5994C42.8909 42.1818 41.799 43.2735 41.2441 43.965C40.4161 45.0021 39.761 46.103 39.479 46.9494C38.9785 48.478 39.2243 50.0247 40.1887 51.4533C41.4261 53.2729 43.8918 55.1289 46.767 56.3937C48.2319 57.0398 50.6976 57.8677 52.5536 58.3317C55.6379 59.1142 61.6067 59.9605 64.8913 60.0878C65.5554 60.1151 66.4472 60.1151 66.4834 60.0878C66.5563 60.0422 67.0659 59.0687 67.6573 57.8587C69.6772 53.737 71.1329 49.8701 71.9245 46.5672C72.3976 44.5657 72.7706 41.8997 73.0162 38.7427C73.0799 37.86 73.1072 34.903 73.0526 33.902C72.9707 32.2644 72.825 30.936 72.5978 29.6349C72.5614 29.4438 72.5521 29.2709 72.5704 29.2619C72.6067 29.2345 72.7159 29.1981 74.199 28.7704L73.8988 28.0608V28.0607H73.8991V28.0605ZM71.1513 29.6712C71.2605 29.6712 71.5515 32.4643 71.6242 34.2295C71.6425 34.6026 71.6332 34.8482 71.6151 34.8482C71.5425 34.8482 70.0775 33.984 69.0313 33.3289C68.1214 32.7556 66.3928 31.6092 66.1197 31.3908C66.0286 31.3271 66.0377 31.3181 66.784 31.0632C68.0485 30.6355 71.0512 29.6712 71.1513 29.6712ZM65.0187 31.6911C65.1007 31.6911 65.3099 31.8092 65.8103 32.1186C67.6846 33.2923 70.2323 34.7117 71.3241 35.1849C71.6606 35.3306 71.697 35.2758 70.9238 35.8036C69.2678 36.9319 67.2023 38.0418 64.6728 39.161C64.2271 39.3611 63.8541 39.5158 63.8451 39.5158C63.8269 39.5158 63.8813 39.2885 63.9541 39.0154C64.5636 36.7497 64.9094 34.4569 64.9278 32.6191C64.9368 31.709 64.9368 31.709 65.0187 31.6819C65.0005 31.6911 65.0096 31.6911 65.0187 31.6911ZM63.754 32.1732C63.8085 32.2277 63.7722 34.2659 63.6994 34.8209C63.5356 36.1493 63.2809 37.3867 62.8624 38.7789C62.7624 39.1153 62.6713 39.3975 62.6533 39.4156C62.6166 39.4611 61.3701 38.242 60.9608 37.7688C60.2509 36.9499 59.6961 36.131 59.2867 35.3304C59.0774 34.9209 58.7499 34.1204 58.7771 34.093C58.9226 33.9929 63.7177 32.1369 63.754 32.1732ZM57.8035 34.5116C57.8126 34.5116 57.8216 34.5116 57.8309 34.5206C57.849 34.5388 57.9127 34.6845 57.9674 34.8481C58.2584 35.6397 58.9135 36.8044 59.4777 37.5505C60.0964 38.3693 60.9063 39.2427 61.5794 39.8159C61.7979 39.9979 61.9979 40.1707 62.0252 40.1981C62.0798 40.2527 62.0981 40.2436 60.6148 40.8078C58.8954 41.4628 57.021 42.1179 54.8737 42.8093C54.3607 42.9747 53.8483 43.1415 53.3362 43.3098C53.2542 43.3372 53.2816 43.2916 53.5181 42.9186C54.5827 41.2535 56.2021 37.9872 57.112 35.6761C57.2668 35.2758 57.4214 34.8755 57.4488 34.7845C57.4852 34.6571 57.5306 34.6116 57.6488 34.5478C57.7125 34.5298 57.7762 34.5116 57.8035 34.5116ZM55.984 35.2667C56.0112 35.2851 55.5472 36.2584 55.0922 37.15C54.2096 38.8697 53.2452 40.5622 51.9532 42.6184C51.7349 42.9732 51.5256 43.3008 51.4982 43.3372C51.4529 43.4009 51.4346 43.3827 51.289 43.1006C50.9797 42.491 50.7247 41.7086 50.5884 40.9897C50.4518 40.28 50.4792 39.0426 50.6339 38.2783C50.7521 37.7143 50.7431 37.7234 51.016 37.5869C52.1806 36.9955 55.9475 35.2303 55.984 35.2667ZM71.679 35.9036V36.2858C71.679 38.3148 71.4606 41.099 71.1421 43.128C71.0874 43.4828 71.0418 43.7738 71.0329 43.7831C71.0329 43.7831 70.769 43.7103 70.4597 43.6192C69.0949 43.1916 67.6118 42.5638 66.2743 41.827C65.3916 41.3446 64.1088 40.553 64.1452 40.5165C64.1542 40.5075 64.5364 40.3074 64.9822 40.0708C66.7657 39.1428 68.4761 38.1419 69.9593 37.1502C70.5142 36.7771 71.3512 36.1767 71.5334 36.0129L71.679 35.9036ZM49.1144 38.5968C49.1508 38.5968 49.1417 38.6695 49.087 38.9971C49.0506 39.2337 49.0051 39.6704 48.9872 39.9706C48.9141 41.299 49.1327 42.2818 49.7878 43.6282C49.9697 44.0014 50.1154 44.3107 50.1062 44.3197C50.0424 44.3744 44.0193 46.1395 42.1267 46.6581C41.5626 46.8128 41.0713 46.9493 41.0348 46.9583C40.9712 46.9765 40.962 46.9675 40.9893 46.8126C41.1986 45.4753 42.2177 43.7283 43.637 42.2542C44.5833 41.2717 45.3385 40.6985 46.6304 39.9614C47.5586 39.4337 48.987 38.6423 49.0961 38.6059C49.0963 38.5967 49.1053 38.5968 49.1144 38.5968ZM63.3082 41.1352C63.3172 41.1262 63.5356 41.2445 63.7994 41.3991C65.7466 42.5274 68.4579 43.5738 70.7689 44.1105L70.9783 44.1562L70.687 44.3197C69.4769 44.993 65.5009 46.649 61.434 48.1684C60.8424 48.3867 60.2602 48.6053 60.1508 48.6506C60.0416 48.6961 59.9415 48.7235 59.9415 48.7144C59.9415 48.7051 60.1054 48.3867 60.3146 47.9955C61.4518 45.8665 62.5984 43.2734 63.1807 41.4719C63.2536 41.299 63.299 41.1445 63.3082 41.1352ZM61.8615 41.6084C61.8708 41.6177 61.7979 41.8086 61.7069 42.027C60.9153 43.9467 59.878 46.0395 58.5496 48.387C58.213 48.9874 57.9309 49.4698 57.9217 49.4698C57.9127 49.4698 57.6397 49.3059 57.3122 49.1057C55.3831 47.9229 53.6726 46.4671 52.5536 45.0568L52.3899 44.8566L53.2177 44.6292C56.1839 43.8195 58.7041 42.946 61.2063 41.8725C61.5612 41.7268 61.8525 41.6084 61.8615 41.6084ZM70.851 44.7475C70.86 44.9568 70.3959 46.831 70.0138 48.1866C69.6954 49.324 69.4223 50.2157 68.922 51.7897C68.7036 52.4813 68.5127 53.0544 68.5034 53.0544C68.4945 53.0544 68.4398 53.0452 68.3852 53.0272C65.6829 52.5357 63.2627 51.8533 60.988 50.9436C60.3511 50.6888 59.4413 50.2792 59.3867 50.2339C59.3686 50.2155 59.9145 49.9608 60.606 49.6605C64.7458 47.85 69.0404 45.7936 70.5142 44.9113C70.6871 44.802 70.8236 44.7475 70.851 44.7475ZM50.097 45.4572C50.1153 45.4753 48.9598 47.1404 47.3402 49.4059C46.7761 50.1975 46.121 51.1255 45.8753 51.4713C45.6297 51.8171 45.2566 52.363 45.0473 52.6906L44.665 53.2819L44.2556 52.9362C43.7734 52.5358 42.9364 51.6806 42.5634 51.2075C41.7809 50.234 41.2532 49.2058 41.0439 48.2687C40.9438 47.8319 40.9438 47.6135 41.0347 47.5864C41.1712 47.55 43.6005 46.9767 45.8753 46.4488C47.14 46.1578 48.6047 45.8121 49.1325 45.6847C49.6602 45.5571 50.088 45.4572 50.097 45.4572ZM51.2617 45.903L51.5527 46.2306C52.863 47.6954 54.2005 48.7783 55.8201 49.7244C56.1112 49.8883 56.3297 50.0337 56.3113 50.043C56.2478 50.0885 50.6884 52.0626 48.1135 52.9543C46.667 53.4638 45.4749 53.8732 45.4659 53.8732C45.4569 53.8732 45.3749 53.8187 45.2839 53.7551L45.1201 53.6367L45.384 53.2546C46.2391 52.0172 47.313 50.6615 49.6512 47.841L51.2617 45.903ZM58.5225 51.0982C58.5313 51.0892 58.9318 51.2346 59.4231 51.4169C60.606 51.8626 61.543 52.1446 62.7987 52.463C64.3455 52.8543 66.5837 53.2365 67.9031 53.3457C68.1033 53.3638 68.2124 53.382 68.176 53.4094C68.1121 53.4458 66.7748 53.8916 65.7922 54.201C64.2271 54.6922 59.4505 56.1025 55.5563 57.2217C54.8374 57.431 54.2187 57.6039 54.1824 57.6129C54.0915 57.6311 53.791 57.5491 53.791 57.5127C53.791 57.4946 54.0095 57.2126 54.2734 56.9033C55.5834 55.3382 56.8846 53.5913 57.9674 51.9353C58.2675 51.4803 58.5225 51.1073 58.5225 51.0982ZM56.921 51.1439C56.93 51.1529 56.284 52.1901 55.156 53.9734C54.6737 54.7286 54.1369 55.5838 53.9457 55.8841C53.7637 56.1753 53.4908 56.6302 53.3361 56.8849L53.0723 57.3491L52.9358 57.3126C52.6081 57.2216 50.3063 56.4117 49.6966 56.1662C48.9414 55.8659 48.159 55.502 47.5766 55.1927C46.8488 54.8014 45.939 54.219 46.0117 54.2009C46.0298 54.1919 47.2764 53.8551 48.7776 53.4457C52.7629 52.3629 54.9737 51.7352 56.4205 51.2802C56.6845 51.1984 56.9119 51.1346 56.921 51.1439ZM68.2487 53.8005H68.2578C68.2942 53.8916 66.8203 57.9859 66.2833 59.2778C66.1651 59.569 66.1198 59.6419 66.056 59.6326C65.9013 59.6236 63.7632 59.3234 62.462 59.1323C60.1966 58.7865 56.3933 58.1223 55.438 57.904L55.2196 57.8585L56.5752 57.549C59.4868 56.8939 60.8879 56.5391 62.3072 56.1024C64.0997 55.5564 65.8741 54.8741 67.6663 54.0371C67.9484 53.9096 68.185 53.8096 68.2487 53.8005Z" fill="url(#paint0_linear_852_476)"/>
<path d="M61.4886 0.0004663C61.2883 -0.0266883 58.0582 1.13792 55.9747 1.98398C53.1632 3.13053 50.9796 4.2224 49.6331 5.16852C49.1326 5.52345 48.5048 6.15115 48.4048 6.39681C48.3684 6.48783 48.3502 6.59696 48.3502 6.7061L49.5695 7.86163L52.4718 8.78977L59.3777 10.0272L67.2751 11.3829L67.3571 10.7005C67.3299 10.7005 67.3116 10.6914 67.2845 10.6914L66.247 10.5276L66.0378 10.1546C64.9642 8.26207 63.7814 5.91462 63.0899 4.3314C62.5532 3.10309 62.0437 1.68386 61.7615 0.664765C61.6069 0.0460684 61.5887 0.00969012 61.4887 0.000629502V0.000411207L61.4886 0.0004663ZM61.3428 0.464629H61.3521C61.3611 0.473608 61.3974 0.728544 61.434 1.02862C61.5885 2.3026 61.8708 3.53066 62.3164 4.85923C62.6531 5.85999 62.6531 5.80549 62.2619 5.68709C61.3338 5.43244 57.1759 4.71372 54.1642 4.29516C53.682 4.23139 53.2725 4.16776 53.2725 4.15863C53.2361 4.12226 55.447 2.96669 56.4205 2.51188C57.6671 1.93854 61.0882 0.510068 61.3428 0.464629ZM52.5717 4.54082L52.9268 4.65894C54.8555 5.31417 59.7049 6.24217 62.3801 6.46058C62.6802 6.48783 62.9352 6.51521 62.9442 6.51521C62.9531 6.52434 62.6986 6.66073 62.3709 6.81537C61.079 7.46133 59.6596 8.25294 58.6769 8.86266C58.3859 9.04455 58.1219 9.19021 58.0856 9.19021C58.0492 9.19021 57.8582 9.15383 57.6581 9.12644L57.2941 9.07181L56.3843 8.18005C54.7829 6.62435 53.5272 5.42331 53.0451 4.96823L52.5717 4.54082ZM52.2079 4.82272L53.4909 6.4242C54.1913 7.30669 54.901 8.17106 55.0558 8.36208C55.2105 8.55324 55.3379 8.70802 55.3289 8.71701C55.2924 8.74426 53.4727 8.38933 52.5082 8.17119C51.5165 7.94366 51.107 7.83438 50.4975 7.6435L49.997 7.47959V7.35219C50.006 6.74248 50.7795 5.83274 52.0897 4.90474L52.2079 4.82272ZM63.1081 7.00639C63.1444 7.00639 63.1898 7.08828 63.2991 7.33394C63.6084 8.01628 64.573 9.85429 64.8093 10.2091C64.8823 10.3275 65.0096 10.3366 63.7268 10.1273C60.6425 9.62675 59.6506 9.46311 59.6506 9.44499C59.6506 9.43586 59.7416 9.3721 59.8599 9.30847C60.8152 8.78078 61.7796 8.10743 62.635 7.38857C62.8443 7.21567 63.0353 7.0519 63.0715 7.02465C63.0807 7.00639 63.0989 6.9974 63.1081 7.00639Z" fill="url(#paint1_linear_852_476)"/>
<path d="M48.4683 6.26941C48.4683 6.26941 48.2683 6.58796 48.4593 7.06116C48.5777 7.35219 48.9234 7.70698 49.3146 8.07104C49.3146 8.07104 53.3634 12.0197 53.8548 12.5839C56.093 15.1679 57.0665 17.7155 57.1575 21.2276C57.2121 23.484 56.7843 25.4676 55.7199 27.7695C53.8274 31.9003 49.8331 36.4587 43.6734 41.5175L44.5743 41.2172C45.1565 40.7804 45.9481 40.3166 47.8042 39.2975C52.0896 36.9499 56.9118 34.7936 62.8259 32.5735C71.3421 29.3707 85.345 25.6221 93.3151 24.403L94.1432 24.2755L94.0158 24.0754C93.2881 22.9471 92.7875 22.2466 92.1869 21.5005C90.4401 19.335 88.3203 17.5791 85.7271 16.1233C82.1603 14.1308 77.5473 12.5749 71.7061 11.4194C70.6052 11.2008 68.1849 10.7824 66.2196 10.4821C62.0524 9.83629 59.3593 9.39035 56.3931 8.88091C55.3288 8.69888 53.7364 8.42597 52.6809 8.19857C52.1351 8.08017 51.0888 7.83451 50.2699 7.55247C49.6148 7.29755 48.6685 7.04276 48.4683 6.26941ZM50.8159 8.5441C50.8249 8.53524 50.9704 8.58961 51.1616 8.65337C51.5074 8.7715 51.9532 8.90802 52.481 9.05368C52.8803 9.16349 53.2807 9.26963 53.682 9.37209C54.2279 9.50848 54.6828 9.63587 54.6918 9.63587C54.7556 9.69964 55.6746 12.6383 55.984 13.7666C56.1021 14.1942 56.1933 14.5582 56.1841 14.5582C56.1747 14.5674 56.0749 14.4127 55.9566 14.2034C54.8921 12.329 53.2088 10.4275 51.2617 8.8989C51.007 8.717 50.8159 8.55323 50.8159 8.5441ZM55.2924 9.78152C55.3379 9.78152 55.538 9.80891 55.7836 9.86341C57.3304 10.2092 60.1055 10.7369 61.8797 11.0372C62.1799 11.0826 62.4166 11.1373 62.4166 11.1555C62.4166 11.1737 62.3073 11.2372 62.1708 11.3101C61.8707 11.4648 60.6605 12.1835 60.2602 12.4565C59.2502 13.1297 58.3404 13.8577 57.6853 14.5127C57.4214 14.7766 57.1939 14.995 57.1939 14.995C57.1939 14.995 57.1395 14.8403 57.0937 14.6492C56.7665 13.3845 56.0839 11.5101 55.4651 10.191C55.3651 9.98167 55.2831 9.79065 55.2831 9.77239C55.2831 9.79065 55.2831 9.78152 55.2924 9.78152ZM63.1717 11.2829C63.2263 11.301 63.3174 11.6104 63.4993 12.2927C63.8359 13.6121 63.9906 15.086 63.9361 16.4599C63.9177 16.842 63.8996 17.1968 63.8813 17.2424L63.854 17.3333L63.381 17.1787C62.4073 16.8694 60.8244 16.4052 59.4687 16.0231C58.6952 15.8138 58.0675 15.6228 58.0675 15.6047C58.0675 15.5499 59.1958 14.4218 59.678 13.9942C60.5967 13.1844 63.0898 11.2555 63.1717 11.2829ZM63.7995 11.3737C63.8268 11.3466 67.5663 11.9924 69.2678 12.32C70.5326 12.5657 72.3705 12.9478 72.4796 12.9933C72.5341 13.0115 72.3431 13.1207 71.7334 13.3936C69.3314 14.4764 67.5481 15.4498 65.7739 16.6327C65.31 16.9421 64.9187 17.1968 64.9096 17.1968C64.9006 17.1968 64.8915 16.933 64.8915 16.6146C64.8915 14.8859 64.5457 13.139 63.9087 11.665C63.8449 11.5194 63.7904 11.383 63.7995 11.3737ZM73.4712 13.2845C73.4986 13.3118 73.3802 14.0489 73.2711 14.4855C72.9436 15.8412 72.0611 17.8521 70.9784 19.7445C70.7873 20.0812 70.6144 20.3541 70.5961 20.3632C70.578 20.3722 70.3323 20.2357 70.0503 20.0719C68.9949 19.4534 67.7938 18.871 66.4835 18.3251C66.1197 18.1704 65.8012 18.0429 65.7921 18.0249C65.7283 17.9703 68.6581 16.0323 70.2049 15.1043C71.4332 14.3582 73.4349 13.248 73.4712 13.2845ZM74.1627 13.3936C74.2446 13.3936 75.9006 13.8486 76.7648 14.1034C78.9031 14.7403 81.3597 15.6411 82.961 16.3689L83.6251 16.6692L83.1612 16.7784C79.2489 17.6791 75.9006 18.7164 72.6705 20.0266C72.4067 20.1358 72.1701 20.2267 72.1521 20.2267C72.1338 20.2267 72.2248 20.0176 72.3431 19.7626C73.3166 17.6974 73.9444 15.5409 74.0989 13.7029C74.1082 13.53 74.1353 13.3936 74.1627 13.3936ZM57.6762 17.1787C57.7035 17.1514 58.9681 17.4517 59.6506 17.6426C60.6877 17.9339 62.8895 18.6707 62.8895 18.7254C62.8895 18.7345 62.644 18.9438 62.353 19.1986C61.1611 20.1903 60.0145 21.2366 58.6406 22.565C58.2312 22.9563 57.8855 23.2748 57.8674 23.2748C57.849 23.2748 57.8401 23.2201 57.849 23.1474C58.0582 21.6186 58.0129 19.6535 57.7217 17.6609C57.6943 17.4061 57.6671 17.1878 57.6762 17.1787ZM84.2532 17.2061C84.2712 17.2242 83.6708 18.1704 83.2887 18.7071C82.7429 19.4896 81.9419 20.527 80.1313 22.8017C79.1762 24.0026 78.1024 25.3584 77.7477 25.8132C77.3835 26.2682 77.0835 26.6502 77.0742 26.6502C77.0651 26.6502 76.947 26.4866 76.8196 26.2864C75.8004 24.7578 74.5811 23.4203 73.1346 22.2194C72.8617 21.9918 72.5615 21.7462 72.4614 21.6733C72.3612 21.6005 72.2793 21.5278 72.2793 21.5188C72.2793 21.4915 73.8259 20.8272 74.9998 20.3541C77.0561 19.517 79.8582 18.5162 81.9602 17.8701C83.0612 17.5245 84.2348 17.1878 84.2532 17.2061ZM84.9537 17.3879C84.9899 17.379 85.2085 17.4881 85.4723 17.6426C87.6833 18.9073 89.8486 20.536 91.5594 22.2102C92.0415 22.6834 93.2335 23.9209 93.2151 23.9298C93.2151 23.9298 92.7967 23.9662 92.3053 24.0026C88.4748 24.2938 83.5709 25.1035 78.8576 26.2408C78.5393 26.3135 78.2573 26.3772 78.239 26.3772C78.2209 26.3772 78.5757 26.0224 79.0217 25.5948C81.7875 22.929 83.0523 21.2457 84.5443 18.2432C84.7535 17.7974 84.9356 17.4153 84.9537 17.3879C84.9446 17.3879 84.9446 17.3879 84.9537 17.3879ZM64.6912 19.4625C64.8186 19.4897 66.0013 20.045 66.8931 20.4906C67.712 20.8999 68.9403 21.5551 69.0039 21.6096C69.013 21.6186 68.5762 21.8462 68.0396 22.1101C66.3289 22.9653 64.8641 23.7751 63.3355 24.7031C62.8988 24.967 62.5349 25.1855 62.5257 25.1855C62.4894 25.1855 62.4984 25.1489 62.7442 24.7031C63.563 23.2111 64.218 21.4278 64.5912 19.6899C64.6274 19.5534 64.6639 19.4625 64.6912 19.4625ZM63.5082 19.6808C63.5356 19.7081 63.2263 20.8272 63.0353 21.4367C62.6621 22.5924 62.0344 24.039 61.4249 25.1309C61.2791 25.3855 61.0608 25.7586 60.9425 25.9677L60.7151 26.3318L60.2056 25.8405C59.6142 25.2673 59.1319 24.9125 58.5133 24.5939C58.2675 24.4667 58.0765 24.3574 58.0765 24.3393C58.0765 24.2665 59.6323 22.8562 60.8243 21.8372C61.6795 21.1002 63.481 19.6535 63.5082 19.6808ZM70.7419 22.656L71.1877 22.9471C72.2066 23.6114 73.4075 24.4939 74.3266 25.2673C74.8451 25.6948 75.8459 26.5957 76.0462 26.8141L76.1552 26.9325L75.4184 27.1417C71.2512 28.2971 68.0304 29.3252 64.2726 30.7083C63.854 30.8629 63.4993 30.9903 63.4719 30.9903C63.4175 30.9903 63.3719 31.0357 64.3091 30.1713C66.7112 27.9605 68.8401 25.5221 70.4233 23.1472L70.7419 22.656ZM68.8402 23.1292C68.8584 23.1474 67.6118 24.9034 66.8657 25.8951C65.9741 27.0779 64.3909 29.0614 63.2991 30.3532C62.8442 30.8902 62.4531 31.336 62.4347 31.3451C62.4073 31.3542 62.3984 31.2177 62.3984 31.0084C62.3984 29.9074 62.1163 28.7337 61.625 27.733C61.4157 27.3144 61.3792 27.2143 61.4249 27.1689C61.5978 27.0141 64.2454 25.5038 65.9195 24.6031C67.0477 24.0026 68.8127 23.111 68.8402 23.1292ZM57.3394 25.9498C57.3668 25.9498 57.5761 26.0589 57.8127 26.1863C58.3949 26.5047 58.9136 26.8595 59.3776 27.2418C59.3957 27.2599 59.1593 27.4511 58.8499 27.6784C57.9855 28.2971 56.6753 29.289 55.9112 29.8985C55.1103 30.5355 55.0832 30.5536 55.1741 30.4171C55.7747 29.4982 56.0747 28.9795 56.3934 28.3155C56.6753 27.7241 56.9574 27.0234 57.1575 26.4138C57.2303 26.1499 57.3213 25.9498 57.3394 25.9498ZM60.4058 28.3517C60.4512 28.3427 60.506 28.4245 60.7515 28.7885C61.2701 29.5617 61.6704 30.5991 61.7707 31.4361L61.7886 31.6183L60.5424 32.1005C58.313 32.9647 56.2569 33.8201 54.8647 34.4569C54.4735 34.639 53.791 34.9664 53.3454 35.1849C52.8994 35.4123 52.5355 35.5852 52.5355 35.5761C52.5355 35.5671 52.8175 35.3578 53.1632 35.1029C55.8838 33.1286 58.2403 30.9631 60.0054 28.7976C60.1966 28.5701 60.3695 28.3608 60.3876 28.3517H60.4058ZM58.9955 28.6975C59.032 28.7339 57.9948 29.9075 57.285 30.6264C55.529 32.4189 53.7912 33.8201 51.6348 35.1849C51.3618 35.3578 51.1162 35.5123 51.0888 35.5307C51.025 35.5671 51.1069 35.4759 52.0533 34.4478C52.6538 33.8018 53.1087 33.2559 53.6273 32.5827C53.9731 32.137 54.0368 32.0732 54.5373 31.7182C55.8748 30.7538 58.9591 28.6611 58.9955 28.6975Z" fill="url(#paint2_radial_852_476)"/>
<mask id="path-4-inside-1_852_476" fill="white">
<path d="M19.5957 66.372C19.4279 66.372 19.26 66.3879 19.0936 66.3879C15.7035 66.5686 13.417 68.0605 12.0801 70.9741C10.9368 73.6092 11.0616 77.0535 12.093 79.7047C13.2923 82.2952 15.2303 83.6623 18.4651 84.1787C19.1496 84.2909 19.6085 84.6666 20.9341 86.2144L22.5651 88.1253H25.5234L23.5564 86.1424C22.4691 85.0551 21.5896 84.1084 21.5896 84.0252C21.5896 83.9421 22.0056 83.7598 22.509 83.6063C24.1688 83.104 25.5472 81.8217 26.5115 79.8565C27.2918 78.2783 27.4038 77.7905 27.5156 75.827C27.8083 69.9825 24.7269 66.3285 19.5956 66.3703L19.5957 66.372ZM22.1892 81.6557C20.7502 82.3527 18.6604 82.4918 17.2964 81.9914C15.8859 81.4734 14.5204 80.0087 13.9062 78.3504C13.2235 76.5372 13.3209 73.192 14.1013 71.6856C15.3566 69.287 17.0165 68.1837 19.4422 68.1837C23.04 68.1837 25.0867 70.3873 25.3539 74.5287C25.565 77.9859 24.4072 80.5796 22.1909 81.6542L22.1892 81.6557ZM73.2916 71.3642C72.0508 71.3642 71.101 71.8664 70.4613 72.856L69.9592 73.6397V71.6023H67.8117V83.8192H69.9577V79.9142C69.9577 76.3435 70.0023 75.9262 70.5012 74.9492C71.189 73.6092 72.3721 72.941 73.5156 73.2608L74.2831 73.4846V71.3674H73.2916V71.3642ZM60.6752 71.2522C60.2546 71.2522 59.8084 71.3082 59.364 71.4059C56.4904 72.1573 54.8707 74.9076 54.9697 77.7379C54.9697 80.1079 55.4301 81.2926 56.5736 82.5352C58.9163 84.4571 61.035 84.6106 63.8941 83.5794C64.3819 83.3715 64.9127 83.1317 64.9127 83.1317V81.2096L63.8941 81.7373C61.5803 82.7447 59.8372 82.7447 58.4412 81.5581C57.5507 80.6515 57.1588 79.5641 56.9782 78.3234H65.637V76.6761C65.637 73.3181 63.6159 71.1978 60.6734 71.2522H60.6752ZM57.1733 76.6091C57.1733 76.6091 57.4932 74.5144 58.6797 73.6924C59.2507 73.2894 59.906 73.0944 60.5472 73.0944C61.1902 73.0944 61.8313 73.3022 62.3606 73.7068C63.4481 74.5431 63.6303 76.5932 63.6303 76.5932H57.1733V76.6091ZM5.40086 74.4057C3.07273 72.9952 2.03973 71.9781 2.16604 70.7788C2.52736 67.4609 6.62742 67.9198 8.89797 69.1752L8.91412 66.9429C8.91412 66.9429 7.65881 66.3992 5.85982 66.3705C3.09987 66.3288 1.31533 67.2339 0.479136 69.076C-0.749047 71.7943 0.338445 73.8442 4.26899 76.131C6.4756 77.4149 7.45093 78.5295 7.45093 79.7447C7.45093 82.2553 4.42399 83.1317 1.3011 81.5565C0.658395 81.2367 0.114649 80.9696 0.0858909 80.9696C-0.0261175 81.6813 0.0316196 83.3841 0.0316196 83.3841C0.0316196 83.3841 0.991101 83.7873 2.43011 84.0652C5.99904 84.7767 9.24682 83.1026 9.5538 80.3843C9.82089 77.8324 8.89805 76.4938 5.40101 74.4038L5.40086 74.4057ZM92.298 71.2236C91.879 71.2236 91.4344 71.2811 90.9706 71.3786C88.1005 72.1302 86.4836 74.8805 86.594 77.7109C86.594 80.0775 87.053 81.2511 88.1963 82.492C90.539 84.4157 92.6576 84.5707 95.5312 83.5378C96.0173 83.33 96.5466 83.0935 96.5466 83.0935V81.1683L95.5297 81.699C93.2111 82.7031 91.4681 82.7031 90.0769 81.5168C89.1814 80.6117 88.7929 79.5371 88.6121 78.2818H97.2566V76.6347C97.2566 73.2929 95.2354 71.1708 92.293 71.227L92.298 71.2236ZM88.7959 76.5803C88.7959 76.5803 89.119 74.4886 90.3038 73.6507C90.8732 73.2463 91.5287 73.0511 92.1699 73.0511C92.8096 73.0511 93.454 73.259 93.9835 73.6651C95.0708 74.5014 95.2532 76.5658 95.2532 76.5658H88.7977L88.7959 76.5803ZM49.4339 74.4328C47.1058 73.0257 46.0759 72.0054 46.2005 70.8059C46.5619 67.4864 50.662 67.9469 52.9326 69.2023L52.9487 66.9701C52.9487 66.9701 51.6933 66.4263 49.8944 66.4007C47.1344 66.3592 45.3499 67.2641 44.5121 69.1062C43.2856 71.8245 44.3873 73.8746 48.3051 76.1612C50.5086 77.4438 51.4839 78.544 51.4839 79.7592C51.4839 82.2697 48.4585 83.1604 45.3356 81.5708C44.6959 81.251 44.1523 80.9871 44.1204 80.9871C44.0083 81.6986 44.066 83.4017 44.066 83.4017C44.066 83.4017 45.0142 83.7903 46.4485 84.0828C50.0208 84.7961 53.2701 83.1233 53.5756 80.405C53.841 77.8657 52.92 76.5273 49.4339 74.4358V74.4328ZM104.916 71.3354C103.675 71.3354 102.714 71.839 102.086 72.829L101.584 73.6093V71.5753H99.4361V83.7888H101.582V79.884C101.582 76.3149 101.625 75.896 102.126 74.9206C102.813 73.5822 103.996 72.9122 105.14 73.2335L105.907 73.4574V71.3355L104.916 71.3354ZM32.3561 74.3623V66.5812H30.191V83.816H39.2961V81.7805H32.3562V74.3623H32.3561ZM82.4254 76.7881L80.6408 81.4318L78.925 76.7625L77.182 71.588H74.9659C76.402 75.6593 77.9639 79.8008 79.5391 83.816C80.2219 83.832 80.9062 83.816 81.589 83.816L83.9988 77.7652L86.4534 71.5897H84.3347C84.3347 71.5897 83.3992 74.0426 82.4239 76.7896L82.4254 76.7881ZM37.3451 61.885C37.6936 61.885 37.9847 61.7731 38.2246 61.5333C38.4611 61.2965 38.5858 61.0183 38.5858 60.6698C38.5858 60.3211 38.4611 60.0301 38.2246 59.8062C37.9847 59.5824 37.7079 59.4702 37.3611 59.4702C37.0094 59.4702 36.7182 59.5824 36.4816 59.8189C36.2418 60.0557 36.1329 60.3467 36.1329 60.6826C36.1329 61.0344 36.245 61.3253 36.4816 61.5461C36.7054 61.7699 36.9964 61.8819 37.3451 61.8819V61.885ZM36.5776 59.9021C36.7854 59.6944 37.0381 59.5983 37.3611 59.5983C37.6649 59.5983 37.9176 59.6944 38.1288 59.9021C38.3366 60.1101 38.4486 60.3627 38.4486 60.6698C38.4486 60.9767 38.3366 61.2422 38.1288 61.4501C37.9178 61.6577 37.6649 61.757 37.3611 61.757C37.0524 61.757 36.8013 61.661 36.5936 61.4501C36.3858 61.2422 36.2738 60.9767 36.2738 60.6698C36.2738 60.3627 36.3697 60.1101 36.5776 59.9021ZM37.094 60.7818H37.2346C37.3339 60.7818 37.4314 60.8776 37.5145 61.06L37.6826 61.4371H37.9464L37.7385 61.0182C37.6539 60.8504 37.5707 60.7529 37.4731 60.7255C37.5962 60.6968 37.6936 60.6552 37.7641 60.5719C37.8343 60.5001 37.86 60.4025 37.86 60.2921C37.86 60.1643 37.8201 60.0684 37.7353 59.9979C37.6394 59.9181 37.4859 59.8749 37.2875 59.8749H36.8432V61.4371H37.0669V60.7816L37.094 60.7818ZM37.094 60.0557H37.2891C37.4299 60.0557 37.5291 60.0844 37.5834 60.126C37.6361 60.1676 37.6506 60.2221 37.6506 60.3211C37.6506 60.5018 37.5385 60.5867 37.3308 60.5867H37.091V60.0557H37.094ZM1.32963 60.6425C1.32963 60.0989 1.31371 59.6944 1.30088 59.4561H1.31371C1.36959 59.7373 1.4384 59.947 1.49436 60.0859L3.57304 64.7296H3.92168L6.00036 60.0445C6.05647 59.9167 6.11244 59.7247 6.18116 59.4576H6.19709C6.15557 59.9215 6.1412 60.3244 6.1412 60.6457V64.7442H6.85263V58.6518H5.9604L4.04962 62.8891C3.97919 63.057 3.88163 63.3083 3.75695 63.6408H3.72804C3.68652 63.4761 3.58897 63.225 3.4499 62.9179L1.58212 58.6372H0.633987V64.7295H1.31835V60.6455L1.32963 60.6425ZM8.41182 60.6538H9.02598V64.4483H8.41182V60.6538ZM8.71887 59.2626C8.84688 59.2626 8.95556 59.2193 9.03866 59.1346C9.12346 59.0514 9.1795 58.9428 9.1795 58.8149C9.1795 58.6902 9.13784 58.5782 9.04037 58.4951C8.95401 58.4103 8.84363 58.367 8.71732 58.367C8.5927 58.367 8.48076 58.4103 8.39744 58.4951C8.31294 58.5782 8.25682 58.6902 8.25682 58.8149C8.25682 58.9541 8.30002 59.0514 8.39744 59.1346C8.4936 59.2193 8.59262 59.2626 8.71732 59.2626H8.71887ZM13.4042 64.5315V63.8631C13.0683 64.1142 12.7069 64.239 12.3328 64.239C11.8852 64.239 11.522 64.0856 11.2566 63.7914C10.9928 63.5004 10.8521 63.0956 10.8521 62.592C10.8521 62.0643 10.9928 61.6452 11.2838 61.3253C11.5636 61.0183 11.9267 60.8649 12.3713 60.8649C12.7342 60.8649 13.0826 60.9769 13.4043 61.2009V60.4892C13.1117 60.3357 12.7775 60.2654 12.4 60.2654C11.7028 60.2654 11.1592 60.4892 10.7531 60.9212C10.35 61.3528 10.1422 61.9398 10.1422 62.6481C10.1422 63.278 10.3228 63.8075 10.6987 64.212C11.0904 64.6277 11.5911 64.8387 12.2051 64.8387C12.6798 64.8257 13.0683 64.7265 13.4042 64.5315ZM15.1615 62.5087C15.1615 62.0082 15.2733 61.6036 15.4812 61.3253C15.6765 61.0743 15.913 60.948 16.1929 60.948C16.4295 60.948 16.5974 60.9912 16.7204 61.0887V60.3627C16.6245 60.3211 16.4854 60.3068 16.3047 60.3068C16.0536 60.3068 15.8299 60.3913 15.6332 60.5466C15.4254 60.7112 15.259 60.9624 15.1615 61.2822H15.1457V60.3914H14.45V64.7409H15.1472V62.5087H15.1615ZM19.1639 64.8272C19.8196 64.8272 20.3473 64.6161 20.739 64.1973C21.1291 63.7813 21.3242 63.2217 21.3242 62.5244C21.3242 61.813 21.1451 61.2694 20.7805 60.8646C20.4192 60.4604 19.917 60.265 19.2614 60.265C18.6056 60.265 18.0779 60.4602 17.6863 60.8375C17.2673 61.2535 17.0466 61.8403 17.0466 62.5934C17.0466 63.249 17.2258 63.7928 17.6032 64.1973C17.9933 64.6161 18.5098 64.8257 19.1639 64.8257V64.8272ZM18.1724 61.2837C18.438 61.0039 18.7867 60.8647 19.2182 60.8647C19.6662 60.8647 20.0019 61.0039 20.2513 61.2837C20.5023 61.5764 20.6271 61.9939 20.6271 62.5518C20.6271 63.0826 20.5151 63.5 20.2785 63.7798C20.0419 64.0725 19.6933 64.2275 19.2326 64.2275C18.7849 64.2275 18.438 64.0723 18.1724 63.7798C17.9087 63.4857 17.7824 63.0826 17.7824 62.5518C17.7552 62.0241 17.8944 61.5925 18.1724 61.2837ZM24.3769 64.4483C24.6423 64.2117 24.7832 63.9207 24.7832 63.556C24.7832 63.236 24.671 62.9708 24.4632 62.7612C24.2936 62.5935 24.0316 62.4414 23.6525 62.2879C23.3166 62.1474 23.1088 62.0225 22.9968 61.9249C22.8849 61.813 22.8161 61.6741 22.8161 61.4772C22.8161 61.2965 22.8866 61.1574 23.0242 61.0456C23.1649 60.9337 23.3439 60.8793 23.5839 60.8793C23.9597 60.8793 24.2809 60.9784 24.5751 61.1879V60.4907C24.2937 60.3501 23.9883 60.283 23.6396 60.283C23.192 60.283 22.8146 60.4061 22.5363 60.6442C22.2436 60.8811 22.1046 61.1881 22.1046 61.5493C22.1046 61.869 22.2004 62.1346 22.3826 62.3296C22.5361 62.4959 22.7985 62.6656 23.163 62.8172C23.5117 62.9709 23.7483 63.1099 23.8746 63.2217C23.9993 63.3339 24.0552 63.4728 24.0552 63.6377C24.0552 64.0437 23.7771 64.2533 23.2333 64.2533C22.8143 64.2533 22.4387 64.1157 22.1027 63.8376V64.5889C22.4065 64.7714 22.7713 64.8544 23.1742 64.8544C23.6907 64.8273 24.0951 64.701 24.3734 64.4499L24.3769 64.4483ZM27.6964 60.2651C27.0407 60.2651 26.5131 60.4604 26.1214 60.8376C25.7057 61.2536 25.4817 61.8404 25.4817 62.5935C25.4817 63.2491 25.6626 63.7929 26.0383 64.1974C26.43 64.6163 26.9449 64.8258 27.6005 64.8258C28.2721 64.8258 28.7839 64.6148 29.1756 64.1956C29.5674 63.78 29.7624 63.2204 29.7624 62.523C29.7624 61.8115 29.5801 61.2679 29.2186 60.8632C28.8415 60.4587 28.3391 60.2636 27.6996 60.2636L27.6964 60.2651ZM29.0493 62.5519C29.0493 63.0826 28.9373 63.5001 28.7006 63.7799C28.4639 64.0726 28.1153 64.2275 27.6548 64.2275C27.2069 64.2275 26.86 64.0725 26.5945 63.7799C26.3307 63.4856 26.2044 63.0826 26.2044 62.5519C26.2044 61.9922 26.3436 61.5606 26.6235 61.2694C26.8871 60.9912 27.2359 60.8504 27.6692 60.8504C28.1008 60.8504 28.448 60.991 28.6988 61.2694C28.9228 61.5764 29.0476 61.9937 29.0476 62.5519H29.0493ZM30.9331 64.7281H31.6286V60.9624H32.6471V60.3771H31.6285V59.7055C31.6285 59.0949 31.865 58.7878 32.3544 58.7878C32.5191 58.7878 32.6871 58.8293 32.8118 58.8998V58.2714C32.6871 58.2154 32.5191 58.2027 32.3096 58.2027C31.9338 58.2027 31.6268 58.3147 31.3757 58.5512C31.0831 58.8294 30.928 59.1908 30.928 59.6803V60.3935H30.1923V60.9787H30.928V64.7302L30.9331 64.7281ZM33.7904 63.5416C33.7904 64.3924 34.1663 64.8257 34.9338 64.8257C35.212 64.8257 35.4214 64.781 35.5894 64.6818V64.0838C35.4615 64.1798 35.3095 64.2247 35.1417 64.2247C34.9052 64.2247 34.7388 64.1684 34.6411 64.0421C34.542 63.9176 34.486 63.7064 34.486 63.4153V60.9608H35.5893V60.3755H34.486V59.0932C34.2462 59.1763 34.0112 59.2468 33.7889 59.3169V60.3755H33.0373V60.9608H33.7889V63.54L33.7904 63.5416ZM108.626 71.5591C108.389 71.3354 108.109 71.2234 107.762 71.2234C107.411 71.2234 107.119 71.3354 106.883 71.5752C106.646 71.8102 106.534 72.1028 106.534 72.4388C106.534 72.7874 106.646 73.0785 106.881 73.3022C107.118 73.526 107.409 73.6382 107.761 73.6382C108.108 73.6382 108.4 73.526 108.64 73.2894C108.875 73.0496 109 72.773 109 72.426C108.987 72.0742 108.861 71.7831 108.624 71.5593L108.626 71.5591ZM108.514 73.2063C108.306 73.4142 108.053 73.5101 107.746 73.5101C107.443 73.5101 107.19 73.4142 106.979 73.2063C106.771 72.9952 106.659 72.7314 106.659 72.4227C106.659 72.1188 106.755 71.8664 106.966 71.6552C107.174 71.4475 107.425 71.3514 107.746 71.3514C108.05 71.3514 108.303 71.4475 108.514 71.6552C108.722 71.8664 108.834 72.1188 108.834 72.4227C108.834 72.7459 108.738 72.9952 108.514 73.2063ZM107.887 72.4946C108.012 72.4659 108.111 72.41 108.18 72.3412C108.25 72.2691 108.276 72.1716 108.276 72.0599C108.276 71.9352 108.236 71.836 108.151 71.7672C108.055 71.6872 107.9 71.644 107.703 71.644H107.259V73.2046H107.483V72.549H107.622C107.718 72.549 107.814 72.6449 107.9 72.8272L108.066 73.203H108.332L108.124 72.7839C108.052 72.6017 107.969 72.5185 107.884 72.4912L107.887 72.4946ZM107.733 72.354H107.494V71.8265H107.69C107.83 71.8265 107.927 71.8519 107.983 71.8951C108.039 71.9367 108.052 71.991 108.052 72.0902C108.052 72.2709 107.94 72.3542 107.732 72.3542L107.733 72.354ZM68.8304 60.1964H69.0255V58.6342H69.5418V58.4391H68.3139V58.6342H68.8305L68.8304 60.1964ZM70.0136 59.0228C70.0136 58.8707 70.0136 58.7461 70.0024 58.6759C70.0152 58.7589 70.044 58.815 70.0569 58.8566L70.6566 60.1964H70.7525L71.3536 58.8436C71.3698 58.8021 71.3826 58.7477 71.4096 58.6759C71.3968 58.815 71.3968 58.9266 71.3968 59.0116V60.1949H71.6047V58.4391H71.3536L70.8101 59.6512C70.7973 59.6945 70.754 59.779 70.7269 59.8752H70.7108C70.6996 59.819 70.671 59.7632 70.631 59.6674L70.0873 58.4392H69.8058V60.1982H70.0024V59.0244L70.0136 59.0228Z"/>
</mask>
<path d="M19.5957 66.372C19.4279 66.372 19.26 66.3879 19.0936 66.3879C15.7035 66.5686 13.417 68.0605 12.0801 70.9741C10.9368 73.6092 11.0616 77.0535 12.093 79.7047C13.2923 82.2952 15.2303 83.6623 18.4651 84.1787C19.1496 84.2909 19.6085 84.6666 20.9341 86.2144L22.5651 88.1253H25.5234L23.5564 86.1424C22.4691 85.0551 21.5896 84.1084 21.5896 84.0252C21.5896 83.9421 22.0056 83.7598 22.509 83.6063C24.1688 83.104 25.5472 81.8217 26.5115 79.8565C27.2918 78.2783 27.4038 77.7905 27.5156 75.827C27.8083 69.9825 24.7269 66.3285 19.5956 66.3703L19.5957 66.372ZM22.1892 81.6557C20.7502 82.3527 18.6604 82.4918 17.2964 81.9914C15.8859 81.4734 14.5204 80.0087 13.9062 78.3504C13.2235 76.5372 13.3209 73.192 14.1013 71.6856C15.3566 69.287 17.0165 68.1837 19.4422 68.1837C23.04 68.1837 25.0867 70.3873 25.3539 74.5287C25.565 77.9859 24.4072 80.5796 22.1909 81.6542L22.1892 81.6557ZM73.2916 71.3642C72.0508 71.3642 71.101 71.8664 70.4613 72.856L69.9592 73.6397V71.6023H67.8117V83.8192H69.9577V79.9142C69.9577 76.3435 70.0023 75.9262 70.5012 74.9492C71.189 73.6092 72.3721 72.941 73.5156 73.2608L74.2831 73.4846V71.3674H73.2916V71.3642ZM60.6752 71.2522C60.2546 71.2522 59.8084 71.3082 59.364 71.4059C56.4904 72.1573 54.8707 74.9076 54.9697 77.7379C54.9697 80.1079 55.4301 81.2926 56.5736 82.5352C58.9163 84.4571 61.035 84.6106 63.8941 83.5794C64.3819 83.3715 64.9127 83.1317 64.9127 83.1317V81.2096L63.8941 81.7373C61.5803 82.7447 59.8372 82.7447 58.4412 81.5581C57.5507 80.6515 57.1588 79.5641 56.9782 78.3234H65.637V76.6761C65.637 73.3181 63.6159 71.1978 60.6734 71.2522H60.6752ZM57.1733 76.6091C57.1733 76.6091 57.4932 74.5144 58.6797 73.6924C59.2507 73.2894 59.906 73.0944 60.5472 73.0944C61.1902 73.0944 61.8313 73.3022 62.3606 73.7068C63.4481 74.5431 63.6303 76.5932 63.6303 76.5932H57.1733V76.6091ZM5.40086 74.4057C3.07273 72.9952 2.03973 71.9781 2.16604 70.7788C2.52736 67.4609 6.62742 67.9198 8.89797 69.1752L8.91412 66.9429C8.91412 66.9429 7.65881 66.3992 5.85982 66.3705C3.09987 66.3288 1.31533 67.2339 0.479136 69.076C-0.749047 71.7943 0.338445 73.8442 4.26899 76.131C6.4756 77.4149 7.45093 78.5295 7.45093 79.7447C7.45093 82.2553 4.42399 83.1317 1.3011 81.5565C0.658395 81.2367 0.114649 80.9696 0.0858909 80.9696C-0.0261175 81.6813 0.0316196 83.3841 0.0316196 83.3841C0.0316196 83.3841 0.991101 83.7873 2.43011 84.0652C5.99904 84.7767 9.24682 83.1026 9.5538 80.3843C9.82089 77.8324 8.89805 76.4938 5.40101 74.4038L5.40086 74.4057ZM92.298 71.2236C91.879 71.2236 91.4344 71.2811 90.9706 71.3786C88.1005 72.1302 86.4836 74.8805 86.594 77.7109C86.594 80.0775 87.053 81.2511 88.1963 82.492C90.539 84.4157 92.6576 84.5707 95.5312 83.5378C96.0173 83.33 96.5466 83.0935 96.5466 83.0935V81.1683L95.5297 81.699C93.2111 82.7031 91.4681 82.7031 90.0769 81.5168C89.1814 80.6117 88.7929 79.5371 88.6121 78.2818H97.2566V76.6347C97.2566 73.2929 95.2354 71.1708 92.293 71.227L92.298 71.2236ZM88.7959 76.5803C88.7959 76.5803 89.119 74.4886 90.3038 73.6507C90.8732 73.2463 91.5287 73.0511 92.1699 73.0511C92.8096 73.0511 93.454 73.259 93.9835 73.6651C95.0708 74.5014 95.2532 76.5658 95.2532 76.5658H88.7977L88.7959 76.5803ZM49.4339 74.4328C47.1058 73.0257 46.0759 72.0054 46.2005 70.8059C46.5619 67.4864 50.662 67.9469 52.9326 69.2023L52.9487 66.9701C52.9487 66.9701 51.6933 66.4263 49.8944 66.4007C47.1344 66.3592 45.3499 67.2641 44.5121 69.1062C43.2856 71.8245 44.3873 73.8746 48.3051 76.1612C50.5086 77.4438 51.4839 78.544 51.4839 79.7592C51.4839 82.2697 48.4585 83.1604 45.3356 81.5708C44.6959 81.251 44.1523 80.9871 44.1204 80.9871C44.0083 81.6986 44.066 83.4017 44.066 83.4017C44.066 83.4017 45.0142 83.7903 46.4485 84.0828C50.0208 84.7961 53.2701 83.1233 53.5756 80.405C53.841 77.8657 52.92 76.5273 49.4339 74.4358V74.4328ZM104.916 71.3354C103.675 71.3354 102.714 71.839 102.086 72.829L101.584 73.6093V71.5753H99.4361V83.7888H101.582V79.884C101.582 76.3149 101.625 75.896 102.126 74.9206C102.813 73.5822 103.996 72.9122 105.14 73.2335L105.907 73.4574V71.3355L104.916 71.3354ZM32.3561 74.3623V66.5812H30.191V83.816H39.2961V81.7805H32.3562V74.3623H32.3561ZM82.4254 76.7881L80.6408 81.4318L78.925 76.7625L77.182 71.588H74.9659C76.402 75.6593 77.9639 79.8008 79.5391 83.816C80.2219 83.832 80.9062 83.816 81.589 83.816L83.9988 77.7652L86.4534 71.5897H84.3347C84.3347 71.5897 83.3992 74.0426 82.4239 76.7896L82.4254 76.7881ZM37.3451 61.885C37.6936 61.885 37.9847 61.7731 38.2246 61.5333C38.4611 61.2965 38.5858 61.0183 38.5858 60.6698C38.5858 60.3211 38.4611 60.0301 38.2246 59.8062C37.9847 59.5824 37.7079 59.4702 37.3611 59.4702C37.0094 59.4702 36.7182 59.5824 36.4816 59.8189C36.2418 60.0557 36.1329 60.3467 36.1329 60.6826C36.1329 61.0344 36.245 61.3253 36.4816 61.5461C36.7054 61.7699 36.9964 61.8819 37.3451 61.8819V61.885ZM36.5776 59.9021C36.7854 59.6944 37.0381 59.5983 37.3611 59.5983C37.6649 59.5983 37.9176 59.6944 38.1288 59.9021C38.3366 60.1101 38.4486 60.3627 38.4486 60.6698C38.4486 60.9767 38.3366 61.2422 38.1288 61.4501C37.9178 61.6577 37.6649 61.757 37.3611 61.757C37.0524 61.757 36.8013 61.661 36.5936 61.4501C36.3858 61.2422 36.2738 60.9767 36.2738 60.6698C36.2738 60.3627 36.3697 60.1101 36.5776 59.9021ZM37.094 60.7818H37.2346C37.3339 60.7818 37.4314 60.8776 37.5145 61.06L37.6826 61.4371H37.9464L37.7385 61.0182C37.6539 60.8504 37.5707 60.7529 37.4731 60.7255C37.5962 60.6968 37.6936 60.6552 37.7641 60.5719C37.8343 60.5001 37.86 60.4025 37.86 60.2921C37.86 60.1643 37.8201 60.0684 37.7353 59.9979C37.6394 59.9181 37.4859 59.8749 37.2875 59.8749H36.8432V61.4371H37.0669V60.7816L37.094 60.7818ZM37.094 60.0557H37.2891C37.4299 60.0557 37.5291 60.0844 37.5834 60.126C37.6361 60.1676 37.6506 60.2221 37.6506 60.3211C37.6506 60.5018 37.5385 60.5867 37.3308 60.5867H37.091V60.0557H37.094ZM1.32963 60.6425C1.32963 60.0989 1.31371 59.6944 1.30088 59.4561H1.31371C1.36959 59.7373 1.4384 59.947 1.49436 60.0859L3.57304 64.7296H3.92168L6.00036 60.0445C6.05647 59.9167 6.11244 59.7247 6.18116 59.4576H6.19709C6.15557 59.9215 6.1412 60.3244 6.1412 60.6457V64.7442H6.85263V58.6518H5.9604L4.04962 62.8891C3.97919 63.057 3.88163 63.3083 3.75695 63.6408H3.72804C3.68652 63.4761 3.58897 63.225 3.4499 62.9179L1.58212 58.6372H0.633987V64.7295H1.31835V60.6455L1.32963 60.6425ZM8.41182 60.6538H9.02598V64.4483H8.41182V60.6538ZM8.71887 59.2626C8.84688 59.2626 8.95556 59.2193 9.03866 59.1346C9.12346 59.0514 9.1795 58.9428 9.1795 58.8149C9.1795 58.6902 9.13784 58.5782 9.04037 58.4951C8.95401 58.4103 8.84363 58.367 8.71732 58.367C8.5927 58.367 8.48076 58.4103 8.39744 58.4951C8.31294 58.5782 8.25682 58.6902 8.25682 58.8149C8.25682 58.9541 8.30002 59.0514 8.39744 59.1346C8.4936 59.2193 8.59262 59.2626 8.71732 59.2626H8.71887ZM13.4042 64.5315V63.8631C13.0683 64.1142 12.7069 64.239 12.3328 64.239C11.8852 64.239 11.522 64.0856 11.2566 63.7914C10.9928 63.5004 10.8521 63.0956 10.8521 62.592C10.8521 62.0643 10.9928 61.6452 11.2838 61.3253C11.5636 61.0183 11.9267 60.8649 12.3713 60.8649C12.7342 60.8649 13.0826 60.9769 13.4043 61.2009V60.4892C13.1117 60.3357 12.7775 60.2654 12.4 60.2654C11.7028 60.2654 11.1592 60.4892 10.7531 60.9212C10.35 61.3528 10.1422 61.9398 10.1422 62.6481C10.1422 63.278 10.3228 63.8075 10.6987 64.212C11.0904 64.6277 11.5911 64.8387 12.2051 64.8387C12.6798 64.8257 13.0683 64.7265 13.4042 64.5315ZM15.1615 62.5087C15.1615 62.0082 15.2733 61.6036 15.4812 61.3253C15.6765 61.0743 15.913 60.948 16.1929 60.948C16.4295 60.948 16.5974 60.9912 16.7204 61.0887V60.3627C16.6245 60.3211 16.4854 60.3068 16.3047 60.3068C16.0536 60.3068 15.8299 60.3913 15.6332 60.5466C15.4254 60.7112 15.259 60.9624 15.1615 61.2822H15.1457V60.3914H14.45V64.7409H15.1472V62.5087H15.1615ZM19.1639 64.8272C19.8196 64.8272 20.3473 64.6161 20.739 64.1973C21.1291 63.7813 21.3242 63.2217 21.3242 62.5244C21.3242 61.813 21.1451 61.2694 20.7805 60.8646C20.4192 60.4604 19.917 60.265 19.2614 60.265C18.6056 60.265 18.0779 60.4602 17.6863 60.8375C17.2673 61.2535 17.0466 61.8403 17.0466 62.5934C17.0466 63.249 17.2258 63.7928 17.6032 64.1973C17.9933 64.6161 18.5098 64.8257 19.1639 64.8257V64.8272ZM18.1724 61.2837C18.438 61.0039 18.7867 60.8647 19.2182 60.8647C19.6662 60.8647 20.0019 61.0039 20.2513 61.2837C20.5023 61.5764 20.6271 61.9939 20.6271 62.5518C20.6271 63.0826 20.5151 63.5 20.2785 63.7798C20.0419 64.0725 19.6933 64.2275 19.2326 64.2275C18.7849 64.2275 18.438 64.0723 18.1724 63.7798C17.9087 63.4857 17.7824 63.0826 17.7824 62.5518C17.7552 62.0241 17.8944 61.5925 18.1724 61.2837ZM24.3769 64.4483C24.6423 64.2117 24.7832 63.9207 24.7832 63.556C24.7832 63.236 24.671 62.9708 24.4632 62.7612C24.2936 62.5935 24.0316 62.4414 23.6525 62.2879C23.3166 62.1474 23.1088 62.0225 22.9968 61.9249C22.8849 61.813 22.8161 61.6741 22.8161 61.4772C22.8161 61.2965 22.8866 61.1574 23.0242 61.0456C23.1649 60.9337 23.3439 60.8793 23.5839 60.8793C23.9597 60.8793 24.2809 60.9784 24.5751 61.1879V60.4907C24.2937 60.3501 23.9883 60.283 23.6396 60.283C23.192 60.283 22.8146 60.4061 22.5363 60.6442C22.2436 60.8811 22.1046 61.1881 22.1046 61.5493C22.1046 61.869 22.2004 62.1346 22.3826 62.3296C22.5361 62.4959 22.7985 62.6656 23.163 62.8172C23.5117 62.9709 23.7483 63.1099 23.8746 63.2217C23.9993 63.3339 24.0552 63.4728 24.0552 63.6377C24.0552 64.0437 23.7771 64.2533 23.2333 64.2533C22.8143 64.2533 22.4387 64.1157 22.1027 63.8376V64.5889C22.4065 64.7714 22.7713 64.8544 23.1742 64.8544C23.6907 64.8273 24.0951 64.701 24.3734 64.4499L24.3769 64.4483ZM27.6964 60.2651C27.0407 60.2651 26.5131 60.4604 26.1214 60.8376C25.7057 61.2536 25.4817 61.8404 25.4817 62.5935C25.4817 63.2491 25.6626 63.7929 26.0383 64.1974C26.43 64.6163 26.9449 64.8258 27.6005 64.8258C28.2721 64.8258 28.7839 64.6148 29.1756 64.1956C29.5674 63.78 29.7624 63.2204 29.7624 62.523C29.7624 61.8115 29.5801 61.2679 29.2186 60.8632C28.8415 60.4587 28.3391 60.2636 27.6996 60.2636L27.6964 60.2651ZM29.0493 62.5519C29.0493 63.0826 28.9373 63.5001 28.7006 63.7799C28.4639 64.0726 28.1153 64.2275 27.6548 64.2275C27.2069 64.2275 26.86 64.0725 26.5945 63.7799C26.3307 63.4856 26.2044 63.0826 26.2044 62.5519C26.2044 61.9922 26.3436 61.5606 26.6235 61.2694C26.8871 60.9912 27.2359 60.8504 27.6692 60.8504C28.1008 60.8504 28.448 60.991 28.6988 61.2694C28.9228 61.5764 29.0476 61.9937 29.0476 62.5519H29.0493ZM30.9331 64.7281H31.6286V60.9624H32.6471V60.3771H31.6285V59.7055C31.6285 59.0949 31.865 58.7878 32.3544 58.7878C32.5191 58.7878 32.6871 58.8293 32.8118 58.8998V58.2714C32.6871 58.2154 32.5191 58.2027 32.3096 58.2027C31.9338 58.2027 31.6268 58.3147 31.3757 58.5512C31.0831 58.8294 30.928 59.1908 30.928 59.6803V60.3935H30.1923V60.9787H30.928V64.7302L30.9331 64.7281ZM33.7904 63.5416C33.7904 64.3924 34.1663 64.8257 34.9338 64.8257C35.212 64.8257 35.4214 64.781 35.5894 64.6818V64.0838C35.4615 64.1798 35.3095 64.2247 35.1417 64.2247C34.9052 64.2247 34.7388 64.1684 34.6411 64.0421C34.542 63.9176 34.486 63.7064 34.486 63.4153V60.9608H35.5893V60.3755H34.486V59.0932C34.2462 59.1763 34.0112 59.2468 33.7889 59.3169V60.3755H33.0373V60.9608H33.7889V63.54L33.7904 63.5416ZM108.626 71.5591C108.389 71.3354 108.109 71.2234 107.762 71.2234C107.411 71.2234 107.119 71.3354 106.883 71.5752C106.646 71.8102 106.534 72.1028 106.534 72.4388C106.534 72.7874 106.646 73.0785 106.881 73.3022C107.118 73.526 107.409 73.6382 107.761 73.6382C108.108 73.6382 108.4 73.526 108.64 73.2894C108.875 73.0496 109 72.773 109 72.426C108.987 72.0742 108.861 71.7831 108.624 71.5593L108.626 71.5591ZM108.514 73.2063C108.306 73.4142 108.053 73.5101 107.746 73.5101C107.443 73.5101 107.19 73.4142 106.979 73.2063C106.771 72.9952 106.659 72.7314 106.659 72.4227C106.659 72.1188 106.755 71.8664 106.966 71.6552C107.174 71.4475 107.425 71.3514 107.746 71.3514C108.05 71.3514 108.303 71.4475 108.514 71.6552C108.722 71.8664 108.834 72.1188 108.834 72.4227C108.834 72.7459 108.738 72.9952 108.514 73.2063ZM107.887 72.4946C108.012 72.4659 108.111 72.41 108.18 72.3412C108.25 72.2691 108.276 72.1716 108.276 72.0599C108.276 71.9352 108.236 71.836 108.151 71.7672C108.055 71.6872 107.9 71.644 107.703 71.644H107.259V73.2046H107.483V72.549H107.622C107.718 72.549 107.814 72.6449 107.9 72.8272L108.066 73.203H108.332L108.124 72.7839C108.052 72.6017 107.969 72.5185 107.884 72.4912L107.887 72.4946ZM107.733 72.354H107.494V71.8265H107.69C107.83 71.8265 107.927 71.8519 107.983 71.8951C108.039 71.9367 108.052 71.991 108.052 72.0902C108.052 72.2709 107.94 72.3542 107.732 72.3542L107.733 72.354ZM68.8304 60.1964H69.0255V58.6342H69.5418V58.4391H68.3139V58.6342H68.8305L68.8304 60.1964ZM70.0136 59.0228C70.0136 58.8707 70.0136 58.7461 70.0024 58.6759C70.0152 58.7589 70.044 58.815 70.0569 58.8566L70.6566 60.1964H70.7525L71.3536 58.8436C71.3698 58.8021 71.3826 58.7477 71.4096 58.6759C71.3968 58.815 71.3968 58.9266 71.3968 59.0116V60.1949H71.6047V58.4391H71.3536L70.8101 59.6512C70.7973 59.6945 70.754 59.779 70.7269 59.8752H70.7108C70.6996 59.819 70.671 59.7632 70.631 59.6674L70.0873 58.4392H69.8058V60.1982H70.0024V59.0244L70.0136 59.0228Z" fill="white" stroke="black" mask="url(#path-4-inside-1_852_476)"/>
</g>
<defs>
<filter id="filter0_d_852_476" x="0" y="0" width="118" height="96.1254" filterUnits="userSpaceOnUse" color-interpolation-filters="sRGB">
<feFlood flood-opacity="0" result="BackgroundImageFix"/>
<feColorMatrix in="SourceAlpha" type="matrix" values="0 0 0 0 0 0 0 0 0 0 0 0 0 0 0 0 0 0 127 0" result="hardAlpha"/>
<feOffset dx="5" dy="4"/>
<feGaussianBlur stdDeviation="2"/>
<feComposite in2="hardAlpha" operator="out"/>
<feColorMatrix type="matrix" values="0 0 0 0 0 0 0 0 0 0 0 0 0 0 0 0 0 0 0.25 0"/>
<feBlend mode="normal" in2="BackgroundImageFix" result="effect1_dropShadow_852_476"/>
<feBlend mode="normal" in="SourceGraphic" in2="effect1_dropShadow_852_476" result="shape"/>
</filter>
<linearGradient id="paint0_linear_852_476" x1="48.2825" y1="54.1623" x2="52.6351" y2="51.5905" gradientUnits="userSpaceOnUse">
<stop stop-color="#909CA9"/>
<stop offset="1" stop-color="#EDEDEE"/>
</linearGradient>
<linearGradient id="paint1_linear_852_476" x1="48.382" y1="5.67387" x2="51.8843" y2="5.67387" gradientUnits="userSpaceOnUse">
<stop stop-color="#939FAB"/>
<stop offset="1" stop-color="#DCDEE1"/>
</linearGradient>
<radialGradient id="paint2_radial_852_476" cx="0" cy="0" r="1" gradientUnits="userSpaceOnUse" gradientTransform="translate(66.0549 21.7366) rotate(-171.457) scale(4.51547 9.03318)">
<stop stop-color="#EE352C"/>
<stop offset="1" stop-color="#A91D22"/>
</radialGradient>
</defs>
</svg>
