<svg width="70" height="70" viewBox="0 0 70 70" fill="none" xmlns="http://www.w3.org/2000/svg">
<path d="M69.1199 30.7483C68.6714 30.0463 65.4531 24.327 63.7182 21.2446C62.7953 19.606 62.0666 18.3114 61.7604 17.7744L61.7358 17.7307L61.7084 17.6889C60.9948 16.5295 59.9803 15.2011 58.4573 15.2011C58.2097 15.2058 57.9626 15.235 57.7177 15.2886C57.6671 15.2986 57.6152 15.3105 57.5605 15.3185C57.2255 15.3722 56.1851 15.6168 53.7133 16.2094C51.7992 16.6648 48.9131 17.3568 48.4756 17.4165L48.3786 17.4284L48.2842 17.4543C46.9171 17.8082 46.012 18.6912 45.6101 20.0773C45.3981 20.8091 45.1698 22.2946 46.012 24.0267C46.2212 24.4682 46.9458 25.9278 48.1913 28.4355C49.0198 30.106 49.9508 31.9793 50.7547 33.606L35.5327 38.7784L20.5977 3.19176L20.5704 3.12415L20.5389 3.05852L20.4788 2.92926C19.8677 1.62472 19.1075 0 16.9119 0C16.7574 0 16.596 1.21495e-07 16.4156 0.0218751C15.7867 0.071591 13.4871 0.334091 10.8252 0.640341C7.88718 0.976421 3.86634 1.4358 3.34409 1.45568H3.24428L3.13628 1.47159C1.88669 1.64858 0.980254 2.38636 0.442957 3.65909C-0.452537 5.78494 0.248819 8.17131 0.478503 8.95483C0.939239 10.5398 5.13507 23.4062 8.836 34.7634C11.2969 42.3082 13.8371 50.1097 14.0449 50.8017C14.4103 52.0945 15.036 53.1963 15.8397 53.9625C16.6434 54.7287 17.5876 55.1236 18.5484 55.0952C19.0018 55.0922 19.4537 55.0189 19.8964 54.8764H19.9251L19.9524 54.8665C21.8473 54.1943 27.8588 51.975 32.1476 50.3741C32.4073 51.0344 32.6808 51.7324 32.9679 52.4503C35.9661 60.1065 38.1494 65.6449 38.8686 67.0588C39.2377 67.8125 40.3314 70 42.3904 70C43.1369 70 43.8204 69.7216 44.5423 69.4253L44.7515 69.3398H44.7597H44.7679C46.2075 68.7432 65.3697 58.967 66.3513 58.3327L66.3814 58.3128C67.1252 57.8335 68.249 57.1097 68.5935 55.2503C68.8191 54.0332 68.6181 52.7983 67.9947 51.5793L67.9851 51.5614L67.9755 51.5435C67.8593 51.3247 67.4287 50.5074 66.8449 49.3759C65.5967 46.9756 63.5801 43.0977 61.8083 39.723C64.183 38.8281 67.1129 37.7125 67.739 37.4261C69.3072 36.744 69.7816 35.3003 69.9265 34.4969C70.0345 33.8705 70.1753 32.2696 69.1199 30.7483ZM25.3705 42.3202C22.9356 43.1494 21.2389 43.7281 20.1903 44.0901C19.2784 41.4372 17.4915 36.2051 15.747 31.0983C11.6811 19.1824 9.5811 13.0474 8.47643 9.83977L9.59067 9.70057C11.4145 9.47188 13.9123 9.15966 15.3027 8.99063C17.5941 14.6105 25.4635 33.9082 28.4685 41.2662L25.3705 42.3202ZM49.728 55.5724C46.4181 57.1634 44.6243 58.0324 43.655 58.5037C42.7937 56.4474 40.8988 51.8378 39.2158 47.7273L55.0339 41.8648C55.7175 43.219 57.0259 45.7864 59.6085 50.7997C57.138 52.0009 53.0187 53.9855 49.728 55.5724ZM57.3663 31.3847L54.1179 25.1145C55.9869 24.6392 57.0628 24.3648 57.6931 24.1997L59.3337 27.1588L60.9661 30.106C59.845 30.5017 58.5407 30.9651 57.3663 31.3847Z" fill="#F0F0F0" fill-opacity="0.9"/>
</svg>
