<svg width="77" height="105" viewBox="0 0 77 105" fill="none" xmlns="http://www.w3.org/2000/svg">
<g filter="url(#filter0_d_852_455)">
<path d="M61.6245 89.1078L33.9997 96.6554L6.37469 89.1078L0 19.0307H68L61.6245 89.1078Z" fill="#2062AF"/>
<path d="M33.9994 24.707V90.6358L34.0619 90.6532L56.4173 84.5447L61.5775 24.707H33.9994Z" fill="#3C9CD7"/>
<path d="M18.3215 8.73505V4.56406H24.3188V0H13.8236V12.8998H24.3188V8.73505H18.3215ZM35.1071 4.56406H39.3V0H28.8039V4.56406C30.2081 5.98896 30.9406 6.67094 32.9716 8.73173C31.7841 8.73173 28.8039 8.73587 28.8039 8.73587V12.8998H39.3V8.73505L35.1071 4.56406ZM49.9836 4.56406H54.1765V0H43.6798V4.56406C45.084 5.98896 45.8168 6.67094 47.8477 8.73173C46.6608 8.73173 43.6798 8.73587 43.6798 8.73587V12.8998H54.1765V8.73505L49.9836 4.56406Z" fill="white"/>
<path d="M14.2029 50.5846L14.8586 58.8572L33.9747 50.5637V42.2291L14.2029 50.5846Z" fill="url(#paint0_linear_852_455)"/>
<path d="M55.1528 33.2794L33.9751 42.2292V50.5637L54.3096 41.7419L55.1528 33.2794Z" fill="url(#paint1_linear_852_455)"/>
<path d="M14.2334 50.5847L14.8893 58.8572L44.2206 58.9521L43.5644 69.9821L33.9129 72.7394L24.6347 70.3624L24.0725 63.5161H15.4515L16.576 76.733L34.0063 81.9626L51.3424 76.8278L53.5914 50.5847H14.2334Z" fill="url(#paint2_linear_852_455)"/>
<path opacity="0.05" d="M33.975 50.5847H14.2031L14.8588 58.8572L33.975 58.9192V50.5847ZM33.975 72.7129L33.8813 72.7397L24.6044 70.3624L24.0422 63.5161H15.4214L16.5458 76.7333L33.975 81.9626V72.7129Z" fill="black"/>
<path d="M12.4225 33.2794H55.1528L54.3096 41.7419H13.4532L12.4225 33.2794Z" fill="url(#paint3_linear_852_455)"/>
</g>
<defs>
<filter id="filter0_d_852_455" x="0" y="0" width="77" height="104.655" filterUnits="userSpaceOnUse" color-interpolation-filters="sRGB">
<feFlood flood-opacity="0" result="BackgroundImageFix"/>
<feColorMatrix in="SourceAlpha" type="matrix" values="0 0 0 0 0 0 0 0 0 0 0 0 0 0 0 0 0 0 127 0" result="hardAlpha"/>
<feOffset dx="5" dy="4"/>
<feGaussianBlur stdDeviation="2"/>
<feComposite in2="hardAlpha" operator="out"/>
<feColorMatrix type="matrix" values="0 0 0 0 0 0 0 0 0 0 0 0 0 0 0 0 0 0 0.25 0"/>
<feBlend mode="normal" in2="BackgroundImageFix" result="effect1_dropShadow_852_455"/>
<feBlend mode="normal" in="SourceGraphic" in2="effect1_dropShadow_852_455" result="shape"/>
</filter>
<linearGradient id="paint0_linear_852_455" x1="24.0888" y1="58.8575" x2="24.0888" y2="42.2291" gradientUnits="userSpaceOnUse">
<stop offset="0.387" stop-color="#D1D3D4" stop-opacity="0"/>
<stop offset="1" stop-color="#D1D3D4"/>
</linearGradient>
<linearGradient id="paint1_linear_852_455" x1="44.5638" y1="50.564" x2="44.5638" y2="33.2796" gradientUnits="userSpaceOnUse">
<stop offset="0.387" stop-color="#D1D3D4" stop-opacity="0"/>
<stop offset="1" stop-color="#D1D3D4"/>
</linearGradient>
<linearGradient id="paint2_linear_852_455" x1="14.2334" y1="66.2739" x2="53.5914" y2="66.2739" gradientUnits="userSpaceOnUse">
<stop stop-color="#E8E7E5"/>
<stop offset="1" stop-color="white"/>
</linearGradient>
<linearGradient id="paint3_linear_852_455" x1="12.4225" y1="37.5106" x2="55.1525" y2="37.5106" gradientUnits="userSpaceOnUse">
<stop stop-color="#E8E7E5"/>
<stop offset="1" stop-color="white"/>
</linearGradient>
</defs>
</svg>
