<svg width="101" height="100" viewBox="0 0 101 100" fill="none" xmlns="http://www.w3.org/2000/svg">
<g filter="url(#filter0_d_852_473)">
<path d="M1.92333 50.6434C-0.641109 48.0789 -0.641109 43.9212 1.92333 41.3567L41.3567 1.92333C43.9212 -0.641109 48.0789 -0.641109 50.6434 1.92333L90.0766 41.3567C92.6411 43.9212 92.6411 48.0789 90.0766 50.6434L50.6434 90.0766C48.0789 92.6411 43.9212 92.6411 41.3567 90.0766L1.92333 50.6434Z" fill="#EE513B"/>
<path d="M33.3464 10.0593L29.3533 14.0525L39.6668 24.3661C39.2495 25.2612 39.0166 26.2595 39.0166 27.3122C39.0166 30.3009 40.8944 32.8509 43.5344 33.8468V59.0765C40.8944 60.0724 39.0166 62.6225 39.0166 65.6111C39.0166 69.4673 42.1426 72.5933 45.9987 72.5933C49.8548 72.5933 52.9809 69.4673 52.9809 65.6111C52.9809 62.9017 51.4376 60.5525 49.1819 59.3952V33.8813L59.0407 43.7401C58.6438 44.6171 58.423 45.5906 58.423 46.6158C58.423 50.4719 61.549 53.5979 65.4051 53.5979C69.2613 53.5979 72.3873 50.4719 72.3873 46.6158C72.3873 42.7596 69.2613 39.6336 65.4051 39.6336C64.6557 39.6336 63.9341 39.7516 63.2573 39.9701L52.669 29.3818C52.8718 28.728 52.9809 28.0327 52.9809 27.3122C52.9809 23.456 49.8548 20.33 45.9987 20.33C45.2782 20.33 44.5832 20.4391 43.929 20.6418L33.3464 10.0593Z" fill="white"/>
</g>
<defs>
<filter id="filter0_d_852_473" x="0" y="0" width="101" height="100" filterUnits="userSpaceOnUse" color-interpolation-filters="sRGB">
<feFlood flood-opacity="0" result="BackgroundImageFix"/>
<feColorMatrix in="SourceAlpha" type="matrix" values="0 0 0 0 0 0 0 0 0 0 0 0 0 0 0 0 0 0 127 0" result="hardAlpha"/>
<feOffset dx="5" dy="4"/>
<feGaussianBlur stdDeviation="2"/>
<feComposite in2="hardAlpha" operator="out"/>
<feColorMatrix type="matrix" values="0 0 0 0 0 0 0 0 0 0 0 0 0 0 0 0 0 0 0.25 0"/>
<feBlend mode="normal" in2="BackgroundImageFix" result="effect1_dropShadow_852_473"/>
<feBlend mode="normal" in="SourceGraphic" in2="effect1_dropShadow_852_473" result="shape"/>
</filter>
</defs>
</svg>
