<svg width="58" height="56" viewBox="0 0 58 56" fill="none" xmlns="http://www.w3.org/2000/svg">
<path fill-rule="evenodd" clip-rule="evenodd" d="M28.9982 0C12.9847 0 0 12.8527 0 28.7109C0 41.3931 8.30849 52.1537 19.8342 55.9505C21.2842 56.2143 21.8134 55.3278 21.8134 54.567C21.8134 53.8852 21.788 52.0801 21.7735 49.6847C13.7061 51.4198 12.0042 45.8359 12.0042 45.8359C10.6865 42.52 8.7852 41.6372 8.7852 41.6372C6.15163 39.8554 8.98455 39.8913 8.98455 39.8913C11.8936 40.094 13.4252 42.8501 13.4252 42.8501C16.0134 47.2373 20.213 45.9705 21.866 45.2348C22.1288 43.3795 22.8792 42.1145 23.7075 41.3968C17.2677 40.6719 10.498 38.2101 10.498 27.2091C10.498 24.0744 11.6272 21.5121 13.4832 19.5042C13.1841 18.7775 12.1891 15.86 13.766 11.9071C13.766 11.9071 16.2019 11.1355 21.7409 14.8498C24.0555 14.2128 26.535 13.8952 29.0018 13.8826C31.465 13.8952 33.9463 14.2128 36.2627 14.8498C41.7981 11.1355 44.2287 11.9071 44.2287 11.9071C45.811 15.86 44.8159 18.7775 44.5168 19.5042C46.3764 21.5121 47.4984 24.0744 47.4984 27.2091C47.4984 38.237 40.7178 40.6646 34.2581 41.3752C35.2984 42.2616 36.2265 44.0129 36.2265 46.6918C36.2265 50.5298 36.1902 53.625 36.1902 54.567C36.1902 55.335 36.7122 56.2286 38.184 55.9469C49.6988 52.1429 58 41.3895 58 28.7109C58 12.8527 45.0152 0 28.9982 0Z" fill="#121212"/>
</svg>
