<svg width="96" height="93" viewBox="0 0 96 93" fill="none" xmlns="http://www.w3.org/2000/svg">
<g filter="url(#filter0_d_852_464)">
<g clip-path="url(#clip0_852_464)">
<path d="M73.95 0H13.05C5.84268 0 0 5.70837 0 12.75V72.25C0 79.2916 5.84268 85 13.05 85H73.95C81.1573 85 87 79.2916 87 72.25V12.75C87 5.70837 81.1573 0 73.95 0Z" fill="#F7DF1E"/>
<path d="M55.0547 61.4258C56.7539 64.248 59.1328 66.2402 63.041 66.2402C66.4395 66.2402 68.6484 64.5801 68.6484 62.2559C68.6484 59.5996 66.4395 58.6035 62.7012 56.9434L60.6621 56.1133C54.7148 53.623 50.8066 50.6348 50.8066 44.1602C50.8066 38.1836 55.3945 33.5352 62.7012 33.5352C67.9688 33.5352 71.707 35.3613 74.2559 40.0098L67.9688 43.9941C66.6094 41.5039 65.0801 40.5078 62.7012 40.5078C60.3223 40.5078 58.793 42.002 58.793 43.9941C58.793 46.3184 60.3223 47.3145 63.8906 48.8086L65.9297 49.6387C72.8965 52.627 76.8047 55.4492 76.8047 62.2559C76.8047 69.3945 71.0273 73.3789 63.2109 73.3789C55.5645 73.3789 50.6367 69.8926 48.2578 65.2441L55.0547 61.4258ZM26.168 62.0898C27.5273 64.248 28.5469 66.2402 31.4355 66.2402C34.1543 66.2402 35.8535 65.2441 35.8535 61.2598V33.7012H44.0098V60.9277C44.0098 69.2285 39.082 72.8809 31.7754 72.8809C25.1484 72.8809 21.4102 69.5605 19.541 65.5762L26.168 62.0898Z" fill="black"/>
</g>
</g>
<defs>
<filter id="filter0_d_852_464" x="0" y="0" width="96" height="93" filterUnits="userSpaceOnUse" color-interpolation-filters="sRGB">
<feFlood flood-opacity="0" result="BackgroundImageFix"/>
<feColorMatrix in="SourceAlpha" type="matrix" values="0 0 0 0 0 0 0 0 0 0 0 0 0 0 0 0 0 0 127 0" result="hardAlpha"/>
<feOffset dx="5" dy="4"/>
<feGaussianBlur stdDeviation="2"/>
<feComposite in2="hardAlpha" operator="out"/>
<feColorMatrix type="matrix" values="0 0 0 0 0 0 0 0 0 0 0 0 0 0 0 0 0 0 0.25 0"/>
<feBlend mode="normal" in2="BackgroundImageFix" result="effect1_dropShadow_852_464"/>
<feBlend mode="normal" in="SourceGraphic" in2="effect1_dropShadow_852_464" result="shape"/>
</filter>
<clipPath id="clip0_852_464">
<rect width="87" height="85" fill="white"/>
</clipPath>
</defs>
</svg>
