<svg width="79" height="79" viewBox="0 0 79 79" fill="none" xmlns="http://www.w3.org/2000/svg">
<g clip-path="url(#clip0_852_681)">
<path d="M78.5 39.5C78.5 61.0391 61.0391 78.5 39.5 78.5C17.9609 78.5 0.5 61.0391 0.5 39.5C0.5 17.9609 17.9609 0.5 39.5 0.5C61.0391 0.5 78.5 17.9609 78.5 39.5Z" fill="#121212" stroke="#FAFAFA"/>
<path d="M53.4716 53.4793H47.6083V44.2986C47.6083 42.1076 47.562 39.2917 44.5532 39.2917C41.4981 39.2917 41.0275 41.6756 41.0275 44.1366V53.4793H35.1643V34.5934H40.7961V37.1701H40.8732C41.6602 35.6889 43.5734 34.1228 46.4279 34.1228C52.3684 34.1228 53.4639 38.0342 53.4639 43.1183L53.4716 53.4793ZM28.5526 32.0089C26.6625 32.0089 25.1504 30.4813 25.1504 28.6066C25.1504 26.7319 26.6702 25.2044 28.5526 25.2044C30.4351 25.2044 31.9549 26.7319 31.9549 28.6066C31.9549 30.4813 30.4273 32.0089 28.5526 32.0089ZM31.492 53.4793H25.6133V34.5934H31.492V53.4793ZM56.4032 19.75H22.6739C21.0615 19.75 19.75 21.0229 19.75 22.6045V56.4727C19.75 58.0465 21.0538 59.3271 22.6739 59.3271H56.3955C58.0079 59.3271 59.3271 58.0542 59.3271 56.4727V22.6045C59.3271 21.0229 58.0079 19.75 56.4032 19.75Z" fill="white"/>
</g>
<defs>
<clipPath id="clip0_852_681">
<rect width="79" height="79" fill="white"/>
</clipPath>
</defs>
</svg>
