<svg width="96" height="96" viewBox="0 0 96 96" fill="none" xmlns="http://www.w3.org/2000/svg">
<g filter="url(#filter0_d_852_470)">
<path d="M86.7121 13.025L45.8438 86.8515C44.9998 88.3755 42.8323 88.3846 41.9755 86.8678L0.297155 13.0319C-0.635783 11.3788 0.763002 9.37666 2.61706 9.71124L43.5295 17.099C43.7905 17.1461 44.0577 17.1457 44.3185 17.0978L84.3751 9.72192C86.2229 9.38168 87.6288 11.3687 86.7121 13.025Z" fill="url(#paint0_linear_852_470)"/>
<path d="M63.018 0.0216902L32.7743 6.00831C32.5326 6.05609 32.3135 6.18368 32.1514 6.37101C31.9893 6.55834 31.8935 6.79479 31.879 7.04315L30.0187 38.7852C29.9752 39.5329 30.6547 40.1131 31.3768 39.9447L39.7971 37.9819C40.5852 37.7981 41.297 38.4993 41.135 39.2995L38.6335 51.6751C38.4649 52.5077 39.2389 53.2202 40.0441 52.9732L45.2449 51.3767C46.0512 51.1294 46.8259 51.8438 46.6555 52.6773L42.6799 72.1165C42.4311 73.3323 44.0321 73.9952 44.6997 72.9528L45.1457 72.2567L69.7898 22.5717C70.2025 21.7398 69.4913 20.7914 68.5864 20.9676L59.9194 22.6575C59.1046 22.8162 58.4117 22.0499 58.6416 21.2447L64.2986 1.43384C64.5287 0.627075 63.8334 -0.139788 63.018 0.0216902Z" fill="url(#paint1_linear_852_470)"/>
</g>
<defs>
<filter id="filter0_d_852_470" x="0" y="0" width="96" height="95.9999" filterUnits="userSpaceOnUse" color-interpolation-filters="sRGB">
<feFlood flood-opacity="0" result="BackgroundImageFix"/>
<feColorMatrix in="SourceAlpha" type="matrix" values="0 0 0 0 0 0 0 0 0 0 0 0 0 0 0 0 0 0 127 0" result="hardAlpha"/>
<feOffset dx="5" dy="4"/>
<feGaussianBlur stdDeviation="2"/>
<feComposite in2="hardAlpha" operator="out"/>
<feColorMatrix type="matrix" values="0 0 0 0 0 0 0 0 0 0 0 0 0 0 0 0 0 0 0.25 0"/>
<feBlend mode="normal" in2="BackgroundImageFix" result="effect1_dropShadow_852_470"/>
<feBlend mode="normal" in="SourceGraphic" in2="effect1_dropShadow_852_470" result="shape"/>
</filter>
<linearGradient id="paint0_linear_852_470" x1="-0.720572" y1="7.07246" x2="50.8137" y2="76.3517" gradientUnits="userSpaceOnUse">
<stop stop-color="#41D1FF"/>
<stop offset="1" stop-color="#BD34FE"/>
</linearGradient>
<linearGradient id="paint1_linear_852_470" x1="41.1791" y1="1.64682" x2="50.5647" y2="65.3797" gradientUnits="userSpaceOnUse">
<stop stop-color="#FFEA83"/>
<stop offset="0.0833" stop-color="#FFDD35"/>
<stop offset="1" stop-color="#FFA800"/>
</linearGradient>
</defs>
</svg>
