<svg width="381" height="498" viewBox="0 0 381 498" fill="none" xmlns="http://www.w3.org/2000/svg">
<g clip-path="url(#clip0_852_591)">
<rect x="14" y="41" width="352.219" height="776" rx="35" fill="#9575DE"/>
<circle cx="309.752" cy="109.767" r="29.2493" stroke="#FAFAFA" stroke-width="3"/>
<rect x="135.143" y="95.0532" width="111.052" height="30.5447" rx="8.5" stroke="#FAFAFA" stroke-width="3"/>
<rect x="49.0448" y="172.206" width="282.13" height="130.061" rx="15.5" stroke="#FAFAFA" stroke-width="3"/>
<rect x="279.503" y="261.777" width="33.6628" height="19.1268" rx="4.5" stroke="#FAFAFA"/>
<rect x="288.448" y="283.021" width="15.7723" height="7.94525" rx="2.5" stroke="#FAFAFA"/>
<rect x="195.523" y="382.419" width="135.651" height="103.225" rx="13.5" stroke="#FAFAFA" stroke-width="3"/>
<rect x="212.414" y="457.454" width="50.4352" height="19.1268" rx="4.5" stroke="#FAFAFA"/>
<rect x="212.414" y="444.036" width="37.0173" height="7.94525" rx="2.5" stroke="#FAFAFA"/>
<rect x="212.414" y="404.9" width="95.1614" height="10.1816" rx="2.5" stroke="#FAFAFA"/>
<g filter="url(#filter0_d_852_591)">
<path d="M14 76C14 56.67 29.67 41 49 41H189.55V817H49C29.6701 817 14 801.33 14 782V76Z" fill="url(#paint0_linear_852_591)"/>
</g>
<rect x="47.5448" y="79.0173" width="15.6542" height="15.6542" rx="2" fill="#2C3333"/>
<rect x="65.4352" y="79.0173" width="15.6542" height="15.6542" rx="2" fill="#2C3333"/>
<rect x="65.4352" y="96.9077" width="15.6542" height="15.6542" rx="2" fill="#2C3333"/>
<rect x="47.5448" y="96.9077" width="15.6542" height="15.6542" rx="2" fill="#2C3333"/>
<mask id="path-16-inside-1_852_591" fill="white">
<path d="M47.5448 187.706C47.5448 178.317 55.156 170.706 64.5448 170.706H190.669V303.767H64.5448C55.156 303.767 47.5448 296.155 47.5448 286.767V187.706Z"/>
</mask>
<path d="M47.5448 187.706C47.5448 178.317 55.156 170.706 64.5448 170.706H190.669V303.767H64.5448C55.156 303.767 47.5448 296.155 47.5448 286.767V187.706Z" fill="#2C3333"/>
<path d="M46.5448 187.706C46.5448 177.765 54.6037 169.706 64.5448 169.706H190.669V171.706H64.5448C55.7082 171.706 48.5448 178.869 48.5448 187.706H46.5448ZM190.669 304.767H64.5448C54.6037 304.767 46.5448 296.708 46.5448 286.767H48.5448C48.5448 295.603 55.7082 302.767 64.5448 302.767H190.669V304.767ZM64.5448 304.767C54.6037 304.767 46.5448 296.708 46.5448 286.767V187.706C46.5448 177.765 54.6037 169.706 64.5448 169.706V171.706C55.7082 171.706 48.5448 178.869 48.5448 187.706V286.767C48.5448 295.603 55.7082 302.767 64.5448 302.767V304.767ZM190.669 170.706V303.767V170.706Z" fill="#181818" mask="url(#path-16-inside-1_852_591)"/>
<rect x="48.0448" y="381.419" width="137.651" height="105.225" rx="14.5" fill="#2C3333" stroke="#181818"/>
<path d="M135.143 103.553C135.143 98.8588 138.948 95.0532 143.643 95.0532H188.05V125.598H143.643C138.948 125.598 135.143 121.792 135.143 117.098V103.553Z" fill="#484848" stroke="#484848" stroke-width="3"/>
<rect x="52.399" y="348.875" width="113.288" height="13.7723" rx="3.5" fill="#484848" stroke="#484848" stroke-width="3"/>
<rect x="59.7261" y="191.833" width="117.643" height="11.4179" rx="4" fill="#484848" stroke="#484848" stroke-width="2"/>
<rect x="59.7261" y="225.377" width="63.9712" height="11.4179" rx="4" fill="#484848" stroke="#484848" stroke-width="2"/>
<rect x="63.199" y="404.4" width="96.1614" height="11.1816" rx="3" fill="#484848"/>
<rect x="63.199" y="456.954" width="51.4352" height="20.1268" rx="5" fill="#484848" fill-opacity="0.533333"/>
<rect x="63.199" y="443.536" width="38.0173" height="8.94525" rx="3" fill="#484848" fill-opacity="0.533333"/>
</g>
<defs>
<filter id="filter0_d_852_591" x="13" y="41" width="183.55" height="788" filterUnits="userSpaceOnUse" color-interpolation-filters="sRGB">
<feFlood flood-opacity="0" result="BackgroundImageFix"/>
<feColorMatrix in="SourceAlpha" type="matrix" values="0 0 0 0 0 0 0 0 0 0 0 0 0 0 0 0 0 0 127 0" result="hardAlpha"/>
<feOffset dx="3" dy="8"/>
<feGaussianBlur stdDeviation="2"/>
<feComposite in2="hardAlpha" operator="out"/>
<feColorMatrix type="matrix" values="0 0 0 0 0 0 0 0 0 0 0 0 0 0 0 0 0 0 0.25 0"/>
<feBlend mode="normal" in2="BackgroundImageFix" result="effect1_dropShadow_852_591"/>
<feBlend mode="normal" in="SourceGraphic" in2="effect1_dropShadow_852_591" result="shape"/>
</filter>
<linearGradient id="paint0_linear_852_591" x1="14" y1="429" x2="189.55" y2="429" gradientUnits="userSpaceOnUse">
<stop stop-color="#9D50BB"/>
<stop offset="1" stop-color="#6E48AA"/>
</linearGradient>
<clipPath id="clip0_852_591">
<rect width="381" height="498" fill="white"/>
</clipPath>
</defs>
</svg>
