<svg width="458" height="280" viewBox="0 0 458 280" fill="none" xmlns="http://www.w3.org/2000/svg">
<path d="M454.49 34.2003H57.713C60.3849 8.01565 71.0725 1.33589 78.2866 0.801514H443.001C462.666 4.22155 458.854 24.4924 454.49 34.2003Z" fill="#00B7FF"/>
<ellipse cx="7.21413" cy="7.48132" rx="7.21413" ry="7.48132" transform="matrix(1 0 -0.121869 0.992546 71.0726 9.88599)" fill="#FC2947"/>
<ellipse cx="7.21413" cy="7.48132" rx="7.21413" ry="7.48132" transform="matrix(1 0 -0.121869 0.992546 96.9432 9.88599)" fill="#FFE084"/>
<ellipse cx="7.21413" cy="7.48132" rx="7.21413" ry="7.48132" transform="matrix(1 0 -0.121869 0.992546 122.593 9.88599)" fill="#1E996F"/>
<path d="M56.5658 34.2002H201.469L144.904 279.214H45C20.1472 279.214 4.53215 259.583 10.1228 235.367L56.5658 34.2002Z" fill="#303030"/>
<path d="M203.761 34.2002H455.362L406.67 245.111C402.321 263.945 383.126 279.214 363.796 279.214H147.195L203.761 34.2002Z" fill="#303030"/>
<line y1="-8.5" x2="109.549" y2="-8.5" transform="matrix(1 0 -0.121869 0.992546 69.4695 58.5146)" stroke="#FFE5CA" stroke-width="17"/>
<line y1="-5.5" x2="67.3319" y2="-5.5" transform="matrix(1 0 -0.207912 0.978148 78.5539 102.334)" stroke="#FFE5CA" stroke-width="11"/>
<line y1="-5.5" x2="109.014" y2="-5.5" transform="matrix(1 0 -0.292372 0.956305 50.2318 140.809)" stroke="#FFE5CA" stroke-width="11"/>
<line y1="-5.5" x2="67.3319" y2="-5.5" transform="matrix(1 0 -0.207912 0.978148 81.7601 83.0959)" stroke="#FFE5CA" stroke-width="11"/>
<line y1="-5.5" x2="67.3319" y2="-5.5" transform="matrix(1 0 -0.207912 0.978148 239.868 65.8123)" stroke="#8CC0DE" stroke-width="11"/>
<line y1="-5.5" x2="67.3319" y2="-5.5" transform="matrix(1 0 -0.207912 0.978148 313.906 65.8123)" stroke="#22A699" stroke-width="11"/>
<line y1="-5.5" x2="82.2651" y2="-5.5" transform="matrix(1 0 -0.207912 0.978148 194.838 260.651)" stroke="#8CC0DE" stroke-width="11"/>
<line y1="-5.5" x2="34.6379" y2="-5.5" transform="matrix(1 0 -0.207912 0.978148 284.897 260.651)" stroke="#22A699" stroke-width="11"/>
<line y1="-5.5" x2="30.3082" y2="-5.5" transform="matrix(1 0 -0.207912 0.978148 224.714 131.624)" stroke="#8CC0DE" stroke-width="11"/>
<line y1="-5.5" x2="67.3319" y2="-5.5" transform="matrix(1 0 -0.207912 0.978148 265.413 131.624)" stroke="#22A699" stroke-width="11"/>
<line y1="-5.5" x2="67.3319" y2="-5.5" transform="matrix(1 0 -0.207912 0.978148 224.281 199.601)" stroke="#22A699" stroke-width="11"/>
<line y1="-5.5" x2="67.3319" y2="-5.5" transform="matrix(1 0 -0.207912 0.978148 231.641 97.4192)" stroke="#B31312" stroke-width="11"/>
<line y1="-5.5" x2="67.3319" y2="-5.5" transform="matrix(1 0 -0.207912 0.978148 253.723 97.4192)" stroke="#B31312" stroke-width="11"/>
<line y1="-5.5" x2="129.892" y2="-5.5" transform="matrix(1 0 -0.207912 0.978148 219.951 164.097)" stroke="#B31312" stroke-width="11"/>
<line y1="-5.5" x2="21.6487" y2="-5.5" transform="matrix(1 0 -0.207912 0.978148 342.049 131.624)" stroke="#B31312" stroke-width="11"/>
<line y1="-5.5" x2="21.6487" y2="-5.5" transform="matrix(1 0 -0.207912 0.978148 308.277 199.601)" stroke="#B31312" stroke-width="11"/>
<line y1="-5.5" x2="67.3319" y2="-5.5" transform="matrix(1 0 -0.207912 0.978148 329.926 97.4192)" stroke="#8CC0DE" stroke-width="11"/>
<rect width="142.315" height="19.7721" transform="matrix(1 0 -0.190809 0.981627 40.6881 108.212)" fill="#B9E9FC"/>
<line y1="-5.5" x2="67.3319" y2="-5.5" transform="matrix(1 0 -0.207912 0.978148 73.2101 121.572)" stroke="#FFE5CA" stroke-width="11"/>
<ellipse cx="7.21413" cy="7.48132" rx="7.21413" ry="7.48132" transform="matrix(1 0 -0.121869 0.992546 214.414 54.9875)" fill="#1E996F"/>
<ellipse cx="7.21413" cy="7.48132" rx="7.21413" ry="7.48132" transform="matrix(1 0 -0.121869 0.992546 206.187 87.4609)" fill="#1E996F"/>
<ellipse cx="7.21413" cy="7.48132" rx="7.21413" ry="7.48132" transform="matrix(1 0 -0.121869 0.992546 197.961 119.934)" fill="#1E996F"/>
<ellipse cx="7.21413" cy="7.48132" rx="7.21413" ry="7.48132" transform="matrix(1 0 -0.121869 0.992546 189.734 152.407)" fill="#1E996F"/>
<ellipse cx="7.21413" cy="7.48132" rx="7.21413" ry="7.48132" transform="matrix(1 0 -0.121869 0.992546 181.508 184.88)" fill="#1E996F"/>
<ellipse cx="7.21413" cy="7.48132" rx="7.21413" ry="7.48132" transform="matrix(1 0 -0.121869 0.992546 173.281 217.353)" fill="#1E996F"/>
<ellipse cx="7.21413" cy="7.48132" rx="7.21413" ry="7.48132" transform="matrix(1 0 -0.121869 0.992546 165.055 249.826)" fill="#1E996F"/>
</svg>
