<svg width="792" height="796" viewBox="0 0 792 796" fill="none" xmlns="http://www.w3.org/2000/svg">
<path opacity="0.05" d="M58.0854 64.3358C72.8597 61.1215 87.63 56.0716 102.396 49.1862C117.17 41.5257 131.945 35.0971 146.719 29.9004C161.493 29.3457 176.268 31.2302 191.042 35.554C205.808 42.9371 220.579 50.2916 235.353 57.6176C250.127 61.8109 264.902 63.5485 279.676 62.8306C294.45 57.5115 309.225 51.0095 323.999 43.3246C338.765 36.5207 353.535 31.5851 368.31 28.5176C383.084 30.4837 397.858 34.5546 412.633 40.7303C427.407 48.505 442.177 55.4435 456.943 61.5457C471.718 63.4058 486.492 62.7531 501.266 59.5878C516.041 52.7268 530.815 45.4661 545.589 37.8056C560.364 32.5681 575.134 29.6434 589.9 29.0316C604.675 33.3146 619.449 39.1395 634.223 46.5063C648.997 53.8567 663.772 59.649 678.546 63.883C693.312 63.2141 708.083 60.2363 722.857 54.9499C742.795 50.675 748.061 57.0547 738.655 74.0888C719.655 87.7292 702.164 101.365 686.182 114.998C679.484 128.63 678.734 142.262 683.931 155.894C698.999 169.535 716.049 183.171 735.082 196.803C750.623 210.435 761.375 224.067 767.339 237.7C761.384 251.34 750.639 264.976 735.106 278.608C716.073 292.241 699.019 305.873 683.943 319.505C678.738 333.137 679.48 346.774 686.17 360.414C702.144 374.046 719.63 387.678 738.631 401.31C753.217 414.943 762.734 428.579 767.18 442.219C759.756 455.852 747.849 469.484 731.46 483.116C712.525 496.748 696.025 510.384 681.96 524.025C678.281 537.657 680.512 551.289 688.654 564.921C705.427 578.553 723.232 592.19 742.069 605.83C755.595 619.462 763.811 633.094 766.715 646.727C757.872 660.359 744.884 673.995 727.752 687.636C713.63 704.058 699.508 721.496 685.387 739.949C671.265 752.652 657.143 759.806 643.022 761.413C628.9 751.24 614.778 737.323 600.657 719.66C586.535 701.949 572.413 687.941 558.292 677.638C544.17 679.098 530.048 686.122 515.926 698.71C501.805 717.139 487.683 734.602 473.561 751.098C459.44 758.717 445.318 760.292 431.196 755.821C417.075 741.136 402.953 724.445 388.831 705.747C374.71 690.907 360.588 681.121 346.466 676.39C332.345 683.765 318.223 695.635 304.101 712C289.98 730.47 275.858 746.101 261.736 758.893C247.615 760.614 233.493 756.437 219.371 746.362C205.249 728.74 191.132 711.053 177.018 693.301C162.897 682.908 148.775 678.38 134.653 679.718C120.532 692.225 106.41 707.68 92.2883 726.085C72.8801 739.227 61.4466 736.821 57.9875 718.865C57.3838 704.319 55.6829 689.773 52.8846 675.227C48.985 660.681 45.2976 646.135 41.8222 631.589C40.1417 617.043 39.6807 602.498 40.4394 587.952C43.3519 573.414 46.766 558.872 50.6819 544.326C54.0757 529.78 56.5435 515.234 58.0854 500.688C57.1636 486.143 55.1934 471.597 52.1749 457.051C48.2427 442.505 44.6205 427.959 41.3083 413.413C39.9214 398.867 39.7664 384.321 40.8433 369.775C43.9678 355.229 47.5003 340.688 51.4406 326.15C54.6549 311.604 56.878 297.058 58.1099 282.512C56.878 267.966 54.6549 253.42 51.4406 238.874C47.5003 224.328 43.9678 209.783 40.8433 195.237C39.7664 180.691 39.9214 166.145 41.3083 151.599C44.6205 137.053 48.2427 122.507 52.1749 107.961C55.1934 93.4154 57.1636 78.8735 58.0854 64.3358Z" stroke="#0B0B0C" stroke-width="2" stroke-linecap="round" stroke-dasharray="2 10"/>
<path opacity="0.09" d="M98.7498 50.6317C113.326 46.1414 127.984 40.6837 142.724 34.2587C157.378 28.8579 171.879 25.2536 186.228 23.4459C200.175 26.4019 213.949 31.3982 227.551 38.4349C241.001 47.2682 254.504 55.5125 268.062 63.1677C281.923 67.1317 295.986 68.7097 310.251 67.9019C324.854 63.1027 339.526 57.4743 354.269 51.0167C368.901 45.8679 383.373 42.6173 397.684 41.2648C411.591 44.6841 425.333 50.0625 438.909 57.4C452.357 66.2496 465.868 74.3675 479.44 81.7538C493.34 85.2625 507.441 86.3853 521.745 85.1222C536.372 80.0304 551.057 74.2516 565.801 67.7859C580.408 62.9298 594.848 60.0531 609.12 59.1558C622.989 63.0303 636.704 68.7749 650.265 76.3895C663.715 85.2228 677.238 93.1862 690.835 100.28C704.773 103.333 718.914 103.997 733.257 102.27C749.425 99.8633 749.224 106.019 732.653 120.739C714.302 132.491 698.939 144.501 686.562 156.767C684.242 169.875 687.169 183.43 695.343 197.434C710.646 212.04 726.539 226.693 743.021 241.391C754.317 255.658 760.776 269.513 762.398 282.954C753.346 295.501 740.393 307.714 723.538 319.593C704.585 331.303 687.807 343.197 673.203 355.274C667.843 368.125 667.863 381.435 673.265 395.204C687.081 409.677 702.401 424.281 719.224 439.016C732.56 453.456 741.535 467.523 746.149 481.217C739.967 494.007 729.306 506.414 714.166 518.438C695.14 530.141 677.411 541.951 660.979 553.865C652.691 566.477 649.773 579.543 652.224 593.062C664.114 607.372 678.373 621.886 695.001 636.604C709.947 651.172 721.137 665.427 728.571 679.368C725.414 692.405 717.326 705.03 704.307 717.241C689.037 733.708 673.869 748.923 658.803 762.885C644.455 768.451 630.569 768.509 617.144 763.059C604.51 748.253 592.052 731.431 579.767 712.593C567.234 696.6 554.337 684.911 541.076 677.526C526.889 681.19 512.31 689.434 497.34 702.258C482.065 718.79 466.92 733.732 451.905 747.085C437.638 751.602 423.841 750.599 410.515 744.076C397.94 728.587 385.511 711.411 373.228 692.549C360.641 677.19 347.673 666.347 334.322 660.019C320.045 664.747 305.394 673.849 290.369 687.324C275.095 703.847 259.978 718.452 245.02 731.139C230.842 734.598 217.135 732.539 203.898 724.96C191.375 708.844 178.971 691.376 166.685 672.555C154.04 657.886 140.996 647.929 127.555 642.682C113.19 648.443 98.4699 658.362 83.3941 672.438C62.6045 688.053 50.2698 688.545 46.39 673.914C45.6266 659.899 44.0096 645.811 41.539 631.651C38.6946 617.46 36.3822 603.317 34.602 589.224C34.9685 575.304 36.5503 561.486 39.3474 547.772C43.9898 534.213 48.9246 520.684 54.1516 507.183C58.4932 493.599 61.8228 479.93 64.1403 466.174C64.0191 452.213 62.9058 438.172 60.8003 424.051C57.9071 409.856 55.3553 395.689 53.1449 381.551C52.8367 367.574 53.7516 353.704 55.8895 339.942C60.1093 326.348 64.8248 312.796 70.0363 299.285C74.7763 285.735 78.6298 272.114 81.597 258.422C82.1505 244.518 81.6065 230.521 79.9652 216.431C77.1451 202.242 74.4628 188.068 71.9184 173.91C70.9843 159.88 71.237 145.95 72.6766 132.121C76.4004 118.485 80.7986 104.91 85.8712 91.3958C90.8876 77.8689 95.1804 64.2809 98.7498 50.6317Z" stroke="#0B0B0C" stroke-width="2" stroke-linecap="round" stroke-dasharray="6 2"/>
<path opacity="0.13" d="M138.09 38.1501C152.518 33.3169 166.958 28.4402 181.409 23.52C195.431 21.0753 209.097 20.7137 222.409 22.435C234.988 28.5085 247.309 36.0732 259.372 45.129C271.35 54.7251 283.503 63.2789 295.828 70.7907C308.84 74.3228 322.225 75.6387 335.984 74.7382C350.313 70.5337 364.723 65.8339 379.213 60.6388C393.425 57.126 407.312 55.4903 420.876 55.7318C433.687 60.4462 446.188 66.9533 458.379 75.2532C470.337 84.9698 482.398 94.0626 494.56 102.531C507.317 107.51 520.459 110.257 533.984 110.773C548.155 107.452 562.487 103.211 576.979 98.0493C591.325 93.6986 605.404 90.9451 619.214 89.7886C632.266 93.0379 644.977 98.3106 657.347 105.607C669.326 115.153 681.342 124.511 693.393 133.681C705.923 139.994 718.824 144.153 732.096 146.157C745.051 146.667 741.555 153.222 721.608 165.821C705.85 176.229 693.939 187.296 685.875 199.023C687.456 212.384 693.243 226.462 703.235 241.256C717.579 256.791 731.343 272.232 744.527 287.578C751.448 301.849 753.72 315.328 751.344 328.015C739.743 339.131 725.098 349.733 707.407 359.82C688.81 369.744 672.496 380.057 658.467 390.76C652.953 402.921 652.257 415.898 656.379 429.692C668.044 444.771 681.173 460.1 695.766 475.677C707.696 490.81 715.951 505.312 720.531 519.184C715.501 531.419 706.147 542.922 692.47 553.693C673.978 563.635 655.798 573.63 637.933 583.679C625.922 594.725 618.482 606.554 615.614 619.166C622.116 633.366 631.86 648.117 644.844 663.421C659.267 678.978 671.64 694.182 681.962 709.032C684.025 722.475 681.255 735.096 673.651 746.892C657.688 760.394 642.226 770.98 627.265 778.652C613.902 776.939 601.355 770.436 589.623 759.144C578.965 741.506 568.381 723.454 557.871 704.988C546.514 691.501 534.389 682.521 521.496 678.049C506.926 683.372 491.757 692.237 475.989 704.646C459.909 718.88 444.179 731.064 428.798 741.197C414.863 742.795 401.777 739.433 389.54 731.108C378.622 715.04 367.939 697.571 357.49 678.702C346.511 662.995 334.852 651.277 322.514 643.548C308.481 645.767 293.734 652.156 278.273 662.713C262.184 677.004 246.282 690.197 230.567 702.292C216.102 707.045 202.474 706.867 189.681 701.758C178.402 687.812 167.518 671.542 157.031 652.948C146.338 635.56 135.075 621.493 123.242 610.747C109.771 609.669 95.5117 613.219 80.4639 621.398C58.2761 635.444 44.6661 636.055 39.6341 623.232C38.7676 609.711 37.3985 596.104 35.5268 582.412C34.0008 568.779 33.2751 555.282 33.3496 541.921C35.7416 528.947 39.2548 516.168 43.8893 503.584C49.9794 491.248 56.1418 478.924 62.3767 466.613C67.4293 454.1 71.4164 441.406 74.3378 428.53C74.8882 415.242 74.5331 401.804 73.2725 388.216C71.3525 374.515 69.7944 360.876 68.5982 347.299C69.2598 334.039 71.1116 320.981 74.1536 308.126C79.2867 295.626 84.9874 283.22 91.2558 270.906C97.2977 258.562 102.588 246.089 107.125 233.489C109.396 220.502 110.515 207.32 110.485 193.941C108.911 180.3 107.197 166.63 105.343 152.933C104.557 139.425 104.808 126.095 106.097 112.941C109.766 100.193 114.385 87.6059 119.952 75.1808C126.291 62.8872 132.337 50.5437 138.09 38.1501Z" stroke="#0B0B0C" stroke-width="2" stroke-linecap="round" stroke-dasharray="2 1"/>
<path opacity="0.17" d="M176.331 27.1886C190.408 23.1612 204.285 19.8909 217.963 17.3779C230.773 18.2473 243.045 21.1851 254.778 26.1912C265.608 34.7219 276.205 44.1363 286.569 54.4342C297.094 64.1418 307.971 72.4741 319.199 79.431C331.464 82.4093 344.236 83.416 357.513 82.451C371.463 78.9132 385.458 75.1888 399.497 71.2778C413.039 69.3196 426.107 69.1811 438.699 70.862C450.236 76.6599 461.347 84.0839 472.034 93.1339C482.388 103.505 492.875 113.346 503.494 122.656C514.918 128.889 526.867 133.074 539.341 135.214C552.796 133.595 566.528 130.886 580.538 127.085C594.53 123.389 608.212 120.873 621.585 119.537C633.973 122.042 645.833 126.571 657.166 133.125C667.746 142.619 678.211 152.543 688.561 162.896C699.313 171.727 710.497 178.871 722.114 184.327C732.368 188.631 727.598 196.502 707.804 207.941C695.891 217.803 688.041 228.72 684.254 240.692C688.808 254.822 696.347 269.723 706.871 285.396C719.206 301.529 730.075 317.288 739.478 332.671C742.12 346.306 740.498 358.834 734.612 370.255C721.039 379.696 705.215 388.555 687.14 396.832C669.138 405.119 653.437 414.006 640.038 423.493C634.386 434.983 632.994 447.57 635.859 461.254C645.404 476.674 656.347 492.456 668.688 508.599C679.104 524.236 686.482 539.091 690.822 553.165C686.806 565.078 678.743 575.94 666.633 585.751C649.166 594.186 631.217 602.495 612.787 610.68C598.062 619.816 586.962 629.892 579.487 640.91C580.581 654.145 585.312 668.32 593.68 683.436C605.81 699.516 617.489 715.483 628.716 731.339C634.644 745.823 636.536 759.26 634.394 771.649C618.848 779.889 604.279 784.35 590.688 785.031C579.385 776.867 569.017 765.085 559.584 749.685C550.987 731.056 542.155 713.334 533.088 696.521C522.396 685.995 510.585 679.806 497.658 677.954C482.596 684.322 466.88 693.218 450.511 704.641C434.085 716.285 418.263 725.592 403.046 732.56C389.908 731.488 377.902 726.041 367.027 716.217C357.858 699.799 348.981 682.251 340.397 663.574C331.085 647.709 320.873 635.323 309.761 626.416C296.376 626.333 281.98 630.143 266.573 637.846C250.087 649.72 233.705 661.194 217.425 672.27C202.572 677.832 188.806 679.189 176.128 676.34C165.66 664.945 155.949 650.62 146.997 633.364C138.371 614.845 129.26 598.206 119.662 583.446C108.109 576.245 95.4163 573.468 81.5838 575.115C65.8723 583.995 49.741 594.498 33.19 606.624C36.0345 594.518 37.8008 582.132 38.489 569.468C37.7634 556.439 36.9154 543.377 35.9449 530.285C35.9776 517.451 36.9856 504.87 38.9692 492.541C43.2432 480.804 48.4857 469.314 54.6969 458.069C61.9011 447.091 68.975 436.078 75.9187 425.032C81.4248 413.614 85.8528 401.917 89.2027 389.941C90.3174 377.387 90.6186 364.623 90.1063 351.649C89.0806 338.542 88.43 325.531 88.1546 312.618C89.6663 300.159 92.3143 287.997 96.0986 276.134C101.952 264.806 108.422 253.637 115.508 242.627C122.617 231.624 129.122 220.465 135.024 209.149C138.871 197.302 141.577 185.16 143.142 172.722C142.908 159.811 142.279 146.802 141.253 133.695C140.709 120.712 140.967 107.937 142.026 95.3689C145.313 83.3769 149.685 71.6658 155.144 60.2355C162.064 49.1831 169.126 38.1675 176.331 27.1886Z" stroke="#0B0B0C" stroke-width="2" stroke-linecap="round" stroke-dasharray="3 9"/>
<path opacity="0.21" d="M213.747 18.6774C226.999 16.514 239.793 15.6684 252.129 16.1405C263.169 20.2819 273.583 26.2183 283.372 33.9496C292.3 44.1367 301.126 54.5995 309.852 65.3381C319.109 74.586 328.906 82.2814 339.244 88.4242C350.913 90.7977 363.163 91.5123 375.996 90.568C389.472 87.7657 402.924 85.0456 416.351 82.4077C429.033 81.8944 441.106 83.1042 452.57 86.0369C462.726 92.7214 472.37 100.856 481.5 110.439C490.214 121.235 499.081 131.595 508.1 141.52C518.052 148.764 528.653 154.169 539.903 157.736C552.401 157.72 565.326 156.501 578.678 154.079C592.202 151.164 605.451 149.021 618.425 147.651C630.307 149.416 641.524 153.066 652.075 158.601C661.478 167.433 670.566 177.162 679.34 187.788C688.178 198.203 697.402 207.534 707.01 215.781C715.005 224.362 710.527 234.501 693.575 246.2C685.939 256.359 682.055 267.835 681.924 280.628C688.213 295.673 696.277 311.341 706.115 327.632C715.63 343.809 723.093 359.266 728.505 374.004C727.199 386.375 722.15 397.439 713.359 407.193C698.417 414.789 681.927 421.843 663.891 428.354C646.67 435.151 631.705 442.739 618.995 451.118C613.222 461.932 611.163 474.048 612.818 487.467C620.323 502.939 629.141 518.872 639.272 535.265C648.086 551.196 654.454 566.265 658.374 580.471C655.187 592.191 648.328 602.624 637.797 611.768C621.747 618.975 604.615 625.803 586.401 632.252C569.996 639.335 556.228 647.343 545.097 656.276C541.209 667.751 540.936 680.494 544.277 694.505C552.783 710.328 562.126 726.441 572.305 742.842C580.196 758.449 585.28 773.072 587.559 786.71C573.781 788.525 561.353 786.49 550.276 780.607C541.713 767.556 533.939 752.271 526.954 734.751C520.117 716.781 512.626 700.675 504.482 686.431C493.961 678.962 482.077 675.38 468.828 675.685C453.316 682.442 437.242 690.8 420.607 700.759C404.339 709.671 388.938 716.112 374.403 720.082C362.456 716.677 351.84 709.481 342.553 698.494C335.203 681.987 328.167 664.587 321.443 646.294C313.853 630.473 305.211 617.649 295.516 607.824C283.123 605.716 269.479 607.162 254.583 612.164C238.15 621.545 221.66 631.089 205.114 640.794C189.91 646.673 175.902 649.142 163.091 648.2C153.01 639.476 144.049 627.561 136.208 612.455C129.449 594.263 122.488 576.647 115.325 559.609C106.395 547.606 96.1657 539.305 84.6375 534.707C70.4543 537.676 55.3192 543.359 39.2319 551.755C41.2828 540.094 42.5254 528.15 42.9597 515.921C42.7319 503.461 42.7428 491.084 42.9924 478.791C44.7353 467.022 47.5252 455.62 51.362 444.586C57.285 434.283 63.9701 424.248 71.4173 414.481C79.383 404.886 87.0394 395.188 94.3866 385.385C100.14 375.023 104.832 364.288 108.461 353.181C110.042 341.355 110.911 329.279 111.068 316.954C110.856 304.499 111.021 292.176 111.563 279.986C113.791 268.387 117.098 257.162 121.484 246.312C127.861 236.169 134.889 226.254 142.567 216.567C150.484 206.964 157.954 197.205 164.978 187.288C170.231 176.751 174.403 165.834 177.493 154.537C178.635 142.558 179.189 130.371 179.154 117.978C179.018 105.55 179.4 93.2995 180.299 81.2256C183.043 69.8077 186.872 58.7706 191.786 48.1142C198.579 38.117 205.899 28.3047 213.747 18.6774Z" stroke="#0B0B0C" stroke-width="2" stroke-linecap="round" stroke-dasharray="1 1"/>
<path opacity="0.25" d="M250.339 13.9487C262.171 14.4208 273.305 16.4613 283.739 20.0703C292.649 27.0551 300.955 35.3871 308.656 45.0663C315.787 56.0365 323.023 66.7632 330.364 77.2462C338.66 85.6188 347.666 92.4006 357.382 97.5916C368.61 99.4109 380.431 99.9181 392.846 99.1133C405.784 97.1217 418.589 95.4278 431.26 94.0317C442.953 94.8346 453.921 97.2435 464.164 101.259C472.908 108.615 481.08 117.254 488.682 127.175C495.789 138.179 503.051 148.837 510.469 159.149C518.919 167.179 528.093 173.585 537.992 178.367C549.384 179.821 561.339 180.031 573.857 178.995C586.806 176.981 599.575 175.366 612.166 174.148C623.702 175.301 634.5 178.089 644.559 182.514C653.139 190.235 661.182 199.165 668.687 209.301C675.787 220.32 683.094 230.887 690.609 241.001C696.705 253.84 693.479 266.959 680.93 280.356C677.273 291.457 676.672 303.925 679.129 317.76C685.869 333.527 693.288 349.594 701.386 365.961C707.591 381.487 711.452 395.957 712.971 409.372C708.219 419.981 700.328 429.178 689.297 436.961C673.582 442.652 656.915 447.911 639.297 452.738C623.038 458.185 608.921 464.587 596.945 471.947C591.084 482.059 588.415 493.598 588.936 506.565C594.515 521.811 601.309 537.597 609.318 553.924C616.512 569.894 621.784 584.997 625.134 599.234C622.578 610.829 616.797 620.972 607.791 629.664C593.393 635.945 577.53 641.565 560.202 646.523C543.117 651.599 527.731 657.432 514.043 664.023C505.994 673.153 501.188 683.734 499.625 695.766C503.738 710.354 509.561 725.704 517.093 741.817C513.763 752.367 505.535 743.315 492.408 714.659C486.743 698.668 480.001 685.078 472.182 673.888C461.427 669.241 449.21 667.851 435.533 669.716C419.754 676.263 403.62 683.603 387.131 691.736C371.513 697.926 357.005 701.641 343.608 702.881C333.171 697.527 324.177 688.954 316.628 677.161C311.117 660.828 305.914 643.807 301.021 626.097C295.162 610.538 288.162 597.521 280.022 587.046C268.9 583.218 256.348 582.575 242.367 585.118C226.421 592.037 210.214 599.541 193.744 607.629C178.33 613.365 164.084 616.487 151.007 616.994C140.933 610.828 132.274 601.511 125.029 589.041C119.671 572.366 114.529 555.21 109.602 537.575C103.532 522.485 96.2608 510.075 87.7868 500.344C76.3003 497.327 63.4193 497.417 49.144 500.615C50.6183 489.259 51.6423 477.7 52.216 465.94C52.8824 454.212 54.083 442.729 55.8178 431.49C59.3092 421.038 63.8092 411.04 69.3176 401.494C76.5902 392.739 84.3891 384.217 92.7144 375.926C101.111 367.676 109.053 359.222 116.542 350.564C122.348 341.152 127.153 331.29 130.957 320.979C132.926 309.836 134.298 298.43 135.072 286.759C135.594 274.976 136.491 263.361 137.765 251.914C140.608 241.173 144.448 230.873 149.282 221.016C156.019 212.021 163.422 203.325 171.49 194.928C179.976 186.718 188.17 178.372 196.071 169.891C202.51 160.762 207.973 151.196 212.462 141.193C214.993 130.311 216.799 119.103 217.879 107.57C218.374 95.7655 219.08 84.0599 219.996 72.4532C222.237 61.441 225.43 50.8563 229.577 40.6991C235.71 31.4337 242.631 22.5169 250.339 13.9487Z" stroke="#0B0B0C" stroke-width="2" stroke-linecap="round" stroke-dasharray="4 7"/>
<path opacity="0.29" d="M285.816 14.4715C295.643 17.8948 304.626 22.8323 312.765 29.2841C319.433 38.3902 325.65 48.3188 331.415 59.0699C337.059 70.024 343.054 80.3431 349.402 90.0271C357.105 97.282 365.637 103.033 374.999 107.28C385.926 108.701 397.395 109.154 409.406 108.639C421.738 107.527 433.816 106.872 445.641 106.674C456.26 108.67 466.064 112.127 475.053 117.045C482.417 124.895 489.168 133.861 495.305 143.941C500.901 154.981 506.645 165.753 512.538 176.258C519.498 184.854 527.231 192.046 535.738 197.834C545.91 200.619 556.768 202.174 568.312 202.5C580.584 201.496 592.811 200.573 604.992 199.733C616.299 200.488 626.872 202.557 636.712 205.94C644.871 212.357 652.296 220.105 658.987 229.187C664.753 239.92 670.456 250.767 676.095 261.728C682.434 271.445 689.444 279.943 697.124 287.222C685.857 293.615 677.23 301.472 671.243 310.792C670.686 323.122 672.296 336.649 676.074 351.373C682.074 367.338 687.885 383.198 693.507 398.953C696.232 413.102 696.579 425.929 694.549 437.433C687.006 445.891 676.956 452.959 664.397 458.637C648.471 462.447 632.079 465.995 615.222 469.281C600.066 473.519 586.883 478.85 575.673 485.275C569.757 494.635 566.554 505.494 566.065 517.853C569.882 532.607 574.794 547.969 580.801 563.938C586.402 579.681 590.542 594.61 593.221 608.725C591.122 620.2 586.266 630.147 578.652 638.566C566.037 644.212 551.751 648.932 535.796 652.727C518.946 656.016 502.961 659.79 487.841 664.047C476.695 670.508 468.2 678.438 462.355 687.837C461.938 700.236 463.655 713.822 467.507 728.596C468.468 733.475 465.072 720.698 457.317 690.263C452.089 677.077 445.446 666.446 437.387 658.369C426.12 656.079 413.459 656.313 399.403 659.071C383.651 664.872 367.817 670.823 351.899 676.923C337.377 680.505 324.164 681.726 312.261 680.584C303.545 673.691 296.318 664.121 290.58 651.874C286.859 635.97 283.424 619.552 280.273 602.62C276.102 587.529 270.752 574.564 264.223 563.726C254.585 558.514 243.393 556.097 230.647 556.475C215.576 561.049 200.022 566.494 183.985 572.808C168.577 577.989 154.203 581.312 140.863 582.779C130.51 578.84 121.747 572.033 114.574 562.358C109.984 548.023 106.069 532.468 102.832 515.694C99.3755 499.329 95.0496 484.526 89.8539 471.283C81.8344 463.134 72.211 457.879 60.9838 455.518C62.3259 444.481 63.595 433.399 64.7912 422.272C66.7113 411.555 69.3468 401.231 72.6978 391.298C77.8573 382.377 83.9035 373.943 90.8364 365.996C99.0925 358.792 107.638 351.748 116.472 344.864C125.01 337.807 132.986 330.443 140.401 322.772C146.156 314.172 150.986 305.064 154.889 295.447C157.206 284.941 159.032 274.167 160.366 263.126C161.57 252.003 163.139 241.088 165.073 230.379C168.441 220.465 172.718 211.051 177.903 202.134C184.853 194.206 192.462 186.639 200.729 179.431C209.571 172.551 218.253 165.579 226.777 158.513C234.177 150.834 240.744 142.689 246.478 134.078C250.361 124.449 253.447 114.379 255.738 103.868C257.07 92.8164 258.339 81.7344 259.546 70.6224C261.491 59.9107 264.162 49.606 267.559 39.7082C272.766 30.804 278.851 22.3917 285.816 14.4715Z" stroke="#0B0B0C" stroke-width="2" stroke-linecap="round" stroke-dasharray="4 5"/>
<path opacity="0.33" d="M319.541 21.4584C326.934 27.6608 333.505 35.0806 339.256 43.718C343.859 54.0812 348.262 64.7368 352.463 75.685C357.103 85.994 362.328 95.4231 368.137 103.972C375.611 110.053 383.963 114.816 393.193 118.263C403.911 119.504 415.066 120.092 426.66 120.026C438.311 119.861 449.588 120.26 460.492 121.224C469.981 124.284 478.603 128.645 486.359 134.305C492.404 142.502 497.82 151.646 502.605 161.738C506.816 172.673 511.166 183.407 515.656 193.939C521.184 202.909 527.505 210.701 534.621 217.317C543.512 221.283 553.186 224.074 563.642 225.691C575.118 225.801 586.709 225.733 598.414 225.486C609.531 226.132 619.995 227.744 629.807 230.323C637.921 235.448 645.163 241.868 651.531 249.584C656.52 259.371 661.145 269.695 665.406 280.555C669.773 291.27 674.59 301.315 679.857 310.689C672.593 318.361 667.645 327.582 665.014 338.35C666.342 351.782 668.918 366.05 672.74 381.154C677.071 396.598 680.611 411.508 683.36 425.883C682.764 438.025 679.955 448.684 674.934 457.86C665.332 463.966 653.835 468.796 640.442 472.351C624.816 474.419 609.087 476.418 593.258 478.349C579.298 481.534 567.114 485.909 556.705 491.474C550.815 500.057 547.182 510.159 545.806 521.779C548.036 535.815 551.245 550.508 555.433 565.857C559.518 581.126 562.526 595.679 564.457 609.516C562.648 620.845 558.552 630.641 552.169 638.904C541.345 644.181 528.814 648.318 514.577 651.317C498.672 653.198 482.975 655.218 467.483 657.376C454.412 661.156 443.304 666.248 434.16 672.651C429.614 682.145 427.246 693.099 427.056 705.514C429.016 706.121 427.77 691.929 423.317 662.937C417.803 652.877 410.686 645.209 401.965 639.934C390.092 639.361 377.028 640.573 362.773 643.569C347.411 648.201 332.266 652.511 317.336 656.499C304.282 657.688 292.674 656.719 282.514 653.591C275.628 645.578 270.205 635.382 266.245 623.005C264.21 607.754 262.424 592.134 260.884 576.144C258.305 561.706 254.551 549.02 249.623 538.086C241.572 531.826 231.908 527.965 220.63 526.505C206.758 528.914 192.192 532.36 176.93 536.842C161.791 541.142 147.456 544.242 133.926 546.143C123.129 543.964 113.961 539.356 106.421 532.318C101.934 520.727 98.5324 507.516 96.2163 492.685C94.7064 476.666 92.8252 461.194 90.5727 446.268C86.2036 434.5 80.3196 424.993 72.9207 417.745C74.696 407.228 76.713 396.878 78.9717 386.695C82.3757 377.279 86.5556 368.384 91.5114 360.009C98.1252 352.735 105.438 345.935 113.45 339.608C122.33 333.863 131.28 328.165 140.302 322.515C148.739 316.463 156.56 310.004 163.766 303.137C169.386 295.206 174.186 286.727 178.165 277.697C180.815 267.766 183.076 257.58 184.948 247.138C186.787 236.673 188.977 226.439 191.518 216.435C195.342 207.301 199.976 198.71 205.42 190.662C212.483 183.699 220.179 177.156 228.507 171.031C237.509 165.368 246.473 159.679 255.4 153.966C263.527 147.716 270.975 141.007 277.745 133.837C282.877 125.58 287.22 116.794 290.773 107.478C293.119 97.3543 295.187 87.0384 296.976 76.5306C298.943 66.1521 301.358 56.0735 304.22 46.2947C308.498 37.4651 313.605 29.1864 319.541 21.4584Z" stroke="#0B0B0C" stroke-width="2" stroke-linecap="round" stroke-dasharray="7 8"/>
<path opacity="0.37" d="M350.576 35.5875C355.44 43.9511 359.661 53.1174 363.24 63.0862C366.223 73.8003 369.31 84.3839 372.501 94.8368C376.672 104.067 381.617 112.329 387.336 119.622C394.866 124.654 403.251 128.616 412.493 131.508C423.014 132.802 433.831 133.725 444.944 134.28C455.832 135.114 466.228 136.563 476.133 138.627C484.488 142.628 491.935 147.762 498.476 154.03C503.303 162.438 507.497 171.639 511.055 181.634C514.033 192.354 517.125 202.931 520.332 213.365C524.533 222.557 529.511 230.777 535.266 238.026C542.836 243.007 551.26 246.922 560.537 249.769C571.084 251.031 581.914 251.938 593.026 252.493C603.899 253.346 614.275 254.821 624.154 256.917C632.468 260.968 639.872 266.151 646.365 272.465C651.157 280.917 655.322 290.154 658.861 300.174C661.833 310.9 664.93 321.471 668.153 331.886C664.288 341.259 662.131 351.998 661.681 364.103C663.601 378.104 665.973 392.467 668.797 407.192C670.876 421.32 671.831 434.549 671.661 446.879C668.154 456.537 662.738 464.669 655.415 471.274C644.513 475.015 632.259 477.675 618.656 479.254C603.747 479.789 589 480.454 574.415 481.248C561.716 483.551 550.574 487.101 540.99 491.897C535.158 499.695 531.185 508.981 529.073 519.756C529.935 532.911 531.645 546.744 534.201 561.254C536.866 575.852 538.779 589.848 539.941 603.242C538.255 614.359 534.744 624.009 529.407 632.193C520.275 637.35 509.529 641.216 497.167 643.789C482.735 644.706 468.039 645.412 453.079 645.906C439.227 647.286 426.649 649.686 415.345 653.106C407.538 659.324 401.645 667.073 397.666 676.355C397.524 673.764 395.646 659.822 392.032 634.529C385.656 627.442 377.666 622.371 368.064 619.315C355.684 619.732 342.408 621.26 328.238 623.901C313.655 627.069 299.578 629.607 286.005 631.514C274.685 630.605 264.886 627.795 256.609 623.084C251.558 614.341 247.891 603.862 245.606 591.649C245.092 577.236 244.782 562.569 244.675 547.647C243.539 534.012 241.269 521.793 237.865 510.993C231.411 503.989 223.35 499.002 213.681 496.03C201.245 496.516 187.932 498.098 173.742 500.776C159.165 503.938 145.107 506.444 131.568 508.295C120.309 507.31 110.577 504.417 102.371 499.617C97.3918 490.784 93.7887 480.232 91.5618 467.96C91.073 453.515 90.767 438.836 90.644 423.921C89.4721 410.331 87.1535 398.173 83.688 387.449C86.3992 377.832 89.5663 368.586 93.1896 359.71C98.1314 351.889 103.805 344.648 110.211 337.988C117.955 332.41 126.19 327.218 134.914 322.414C144.053 317.952 153.094 313.405 162.034 308.773C170.18 303.516 177.708 297.765 184.618 291.519C190.088 284.109 194.854 276.142 198.916 267.618C201.901 258.221 204.591 248.592 206.985 238.732C209.43 228.913 212.199 219.348 215.292 210.038C219.52 201.646 224.462 193.819 230.116 186.558C237.198 180.449 244.875 174.817 253.149 169.662C262.153 165.082 271.215 160.553 280.336 156.075C288.958 151.189 297.065 145.896 304.657 140.195C310.879 133.398 316.371 126.013 321.133 118.037C324.617 109.049 327.672 99.7137 330.301 90.031C332.644 80.1304 335.155 70.3649 337.836 60.7344C341.432 51.8265 345.679 43.4441 350.576 35.5875Z" stroke="#0B0B0C" stroke-width="2" stroke-linecap="round" stroke-dasharray="7 9"/>
<path opacity="0.41" d="M377.979 56.7316C380.592 66.3867 382.856 76.4029 384.773 86.7803C386.762 97.0922 389.153 106.975 391.946 116.429C396.154 124.404 401.235 131.452 407.189 137.575C414.957 141.798 423.483 145.221 432.768 147.846C443.029 149.43 453.422 150.88 463.948 152.197C473.962 154.041 483.389 156.51 492.23 159.602C499.425 164.417 505.711 170.196 511.087 176.94C514.783 185.441 517.862 194.599 520.324 204.414C522.207 214.838 524.179 225.162 526.242 235.386C529.214 244.662 532.925 253.155 537.374 260.863C543.609 266.701 550.731 271.599 558.741 275.555C568.216 277.979 578.129 279.941 588.481 281.442C598.972 282.783 609.161 284.449 619.046 286.441C627.662 289.758 635.435 293.969 642.367 299.074C647.473 306.09 651.765 313.97 655.243 322.713C657.575 332.664 659.668 342.861 661.523 353.304C659.922 364.223 659.336 376.112 659.765 388.969C661.159 402.741 662.407 416.371 663.51 429.857C663.123 441.939 661.513 452.862 658.681 462.625C652.861 469.54 645.508 475.007 636.623 479.025C625.116 480.556 612.733 481.249 599.474 481.106C585.606 480.396 572.063 479.995 558.846 479.902C547.428 481.505 537.332 484.369 528.559 488.494C522.845 495.522 518.632 503.968 515.918 513.832C515.602 525.982 516.01 538.82 517.143 552.345C518.525 566.095 519.403 579.373 519.779 592.18C518.078 603.016 514.965 612.512 510.441 620.669C502.827 625.883 493.779 629.741 483.296 632.243C470.641 632.684 457.435 632.597 443.679 631.982C430.036 631.485 417.062 631.623 404.756 632.395C394.787 635.374 386.292 639.757 379.271 645.544C374.618 640.421 369.744 627.608 364.648 607.105C357.088 602.462 348.077 599.348 337.614 597.764C324.989 598.47 311.833 599.729 298.146 601.541C284.712 603.088 272.034 603.838 260.11 603.792C250.692 601.108 242.797 596.816 236.428 590.918C233.125 581.789 231.094 571.325 230.335 559.527C231.131 546.077 232.084 532.463 233.195 518.682C233.306 505.955 232.356 494.346 230.344 483.856C225.457 476.396 219.003 470.586 210.983 466.428C200.144 465.252 188.291 465.138 175.424 466.087C161.693 467.947 148.186 469.57 134.903 470.956C123.3 470.573 113.002 468.815 104.011 465.68C98.1188 459.291 93.7318 451.309 90.8498 441.736C90.388 429.613 90.6198 416.758 91.5452 403.173C92.5884 389.464 93.042 376.375 92.906 363.909C96.885 355.651 101.414 347.915 106.494 340.701C112.828 334.678 119.766 329.228 127.308 324.35C135.807 320.371 144.577 316.653 153.615 313.196C162.707 309.79 171.568 306.165 180.198 302.321C187.953 297.646 195.119 292.412 201.696 286.619C207.012 279.63 211.757 272.093 215.931 264.009C219.253 255.127 222.368 246.049 225.276 236.775C228.291 227.601 231.598 218.706 235.198 210.088C239.781 202.403 244.973 195.296 250.775 188.768C257.83 183.418 265.425 178.586 273.558 174.27C282.425 170.65 291.422 167.154 300.55 163.782C309.435 160.179 317.961 156.237 326.13 151.954C333.228 146.656 339.704 140.762 345.558 134.272C350.188 126.632 354.318 118.517 357.948 109.928C360.974 100.765 363.938 91.5442 366.84 82.264C370.139 73.3601 373.852 64.8493 377.979 56.7316Z" stroke="#0B0B0C" stroke-width="2" stroke-linecap="round" stroke-dasharray="6 4"/>
<path opacity="0.45" d="M400.96 83.9066C401.914 93.9126 402.88 103.914 403.858 113.909C405.537 123.282 407.856 132.078 410.815 140.3C415.438 147.053 420.95 153.014 427.352 158.183C435.369 161.903 443.999 165.084 453.241 167.725C463.093 169.813 472.911 171.936 482.695 174.095C491.724 176.927 500.092 180.341 507.798 184.338C513.828 189.838 518.969 196.129 523.22 203.213C525.868 211.711 527.931 220.736 529.409 230.287C530.326 240.337 531.304 250.327 532.344 260.257C534.193 269.477 536.722 278.093 539.931 286.104C544.828 292.601 550.615 298.312 557.291 303.237C565.539 306.762 574.352 309.781 583.729 312.291C593.623 314.353 603.425 316.495 613.136 318.719C621.983 321.702 630.134 325.309 637.59 329.539C643.34 335.289 648.203 341.821 652.181 349.137C654.609 357.842 656.498 367.027 657.848 376.693C657.195 388.489 656.949 400.748 657.11 413.47C657.168 426.064 656.722 438.092 655.771 449.553C653.046 459.033 649.185 467.23 644.189 474.145C636.746 478.311 628.159 481.197 618.427 482.803C606.933 482.416 594.935 481.463 582.432 479.944C569.821 478.302 557.616 477.123 545.818 476.407C535.637 477.495 526.551 479.815 518.56 483.366C513.01 489.67 508.634 497.288 505.433 506.22C504.14 517.297 503.447 529.048 503.353 541.472C503.574 554.261 503.488 566.7 503.096 578.788C501.255 589.25 498.368 598.541 494.434 606.662C488.092 612.065 480.55 616.118 471.805 618.822C461.027 619.252 449.559 618.902 437.404 617.772C424.722 616.051 412.247 614.561 399.977 613.304C388.976 613.483 378.963 614.767 369.936 617.153C361.854 620.109 356.895 615.365 355.059 602.921C352.081 594.837 347.633 588.06 341.717 582.59C332.967 579.642 323.064 577.724 312.01 576.838C299.53 577.209 286.894 577.718 274.104 578.366C262.166 578.254 251.167 577.313 241.106 575.543C233.654 571.439 227.67 566.029 223.156 559.311C221.457 550.088 220.879 539.867 221.423 528.648C223.312 516.242 225.306 503.738 227.404 491.136C228.569 479.364 228.759 468.46 227.974 458.423C224.544 450.752 219.639 444.387 213.259 439.33C204.095 436.75 193.833 435.147 182.475 434.52C169.878 435.006 157.215 435.545 144.485 436.139C132.779 435.821 122.082 434.606 112.393 432.493C105.404 427.989 99.8833 422.172 95.8318 415.042C94.5349 405.461 94.3015 394.934 95.1316 383.46C97.1311 370.956 99.1462 358.433 101.177 345.891C106.501 339.406 112.357 333.512 118.745 328.209C126.157 324.059 133.998 320.396 142.267 317.219C151.09 314.653 160.005 312.191 169.012 309.832C177.78 307.217 186.253 304.263 194.431 300.972C201.724 296.687 208.491 291.817 214.732 286.362C219.937 279.731 224.687 272.588 228.981 264.933C232.635 256.571 236.161 248.06 239.561 239.399C243.096 230.891 246.888 222.679 250.938 214.761C255.823 207.771 261.216 201.35 267.115 195.499C274.077 190.854 281.517 186.74 289.434 183.156C298.056 180.365 306.852 177.768 315.821 175.367C324.746 172.928 333.452 170.237 341.939 167.293C349.661 163.49 356.883 159.132 363.607 154.219C369.268 148.099 374.438 141.429 379.117 134.207C383.015 126.119 386.699 117.784 390.169 109.203C393.59 100.567 397.187 92.1349 400.96 83.9066Z" stroke="#0B0B0C" stroke-width="2" stroke-linecap="round" stroke-dasharray="10 10"/>
<path opacity="0.49" d="M419.15 115.372C419.271 124.923 419.727 134.229 420.52 143.288C422.508 151.441 425.273 159.017 428.814 166.018C434.048 171.74 440.091 176.861 446.942 181.382C455.108 184.908 463.694 188.125 472.7 191.032C481.948 193.757 491.001 196.624 499.859 199.632C507.768 203.36 514.976 207.609 521.483 212.377C526.337 218.395 530.346 225.039 533.51 232.312C535.19 240.706 536.325 249.503 536.917 258.702C536.971 268.314 537.065 277.891 537.199 287.433C538.024 296.468 539.447 305.049 541.468 313.178C545.055 320.144 549.488 326.471 554.768 332.159C561.665 336.645 569.212 340.645 577.409 344.158C586.423 347.049 595.555 349.857 604.802 352.583C613.641 355.605 621.998 358.993 629.875 362.746C636.336 367.549 641.971 372.976 646.779 379.027C649.903 386.329 652.29 394.189 653.937 402.608C653.086 414.264 652.196 425.867 651.267 437.418C649.599 447.984 647.286 457.681 644.329 466.511C639.668 473.081 634.066 478.393 627.522 482.448C619.156 484.057 610.009 484.629 600.081 484.166C589.081 482.273 577.85 480.069 566.386 477.556C555.139 475.318 544.312 473.648 533.905 472.545C524.886 473.296 516.746 475.214 509.485 478.298C504.106 483.907 499.626 490.718 496.046 498.73C493.938 508.708 492.317 519.33 491.184 530.595C490.382 542.316 489.416 553.819 488.287 565.102C486.2 575.095 483.374 584.107 479.809 592.138C474.453 597.78 468.155 602.156 460.913 605.267C451.91 606.038 442.211 605.881 431.819 604.798C420.57 602.572 409.217 600.199 397.76 597.681C386.751 595.775 376.275 594.58 366.332 594.097C354.827 592.93 346.491 587.095 341.326 576.592C336.589 570.854 330.524 566.111 323.131 562.363C313.473 560.301 303.044 558.822 291.843 557.926C280.003 557.509 268.342 556.957 256.86 556.271C246.692 554.602 237.568 552.15 229.488 548.916C223.988 543.75 219.846 537.567 217.062 530.366C216.773 521.298 217.449 511.505 219.093 500.989C221.833 489.651 224.638 478.264 227.509 466.828C229.518 456.038 230.655 445.9 230.921 436.416C228.803 428.717 225.34 422.025 220.532 416.34C213.066 412.646 204.484 409.789 194.786 407.768C183.552 406.896 172.012 406.254 160.165 405.841C148.71 405.136 137.921 403.931 127.798 402.228C119.784 398.945 113.063 394.694 107.634 389.474C104.929 382.215 103.461 374.029 103.23 364.916C104.912 354.37 107.134 343.421 109.893 332.068C116.383 327.615 123.299 323.729 130.64 320.412C138.691 318.042 146.988 316.001 155.532 314.29C164.292 312.866 172.996 311.376 181.647 309.82C189.907 307.731 197.845 305.21 205.46 302.258C212.268 298.229 218.639 293.616 224.571 288.418C229.671 282.122 234.434 275.369 238.86 268.16C242.841 260.357 246.747 252.452 250.576 244.447C254.558 236.644 258.764 229.141 263.195 221.939C268.304 215.655 273.83 209.921 279.773 204.736C286.59 200.72 293.812 197.243 301.437 194.305C309.702 192.221 318.166 190.403 326.827 188.848C335.575 187.423 344.221 185.855 352.766 184.144C360.811 181.767 368.497 178.91 375.824 175.573C382.304 171.106 388.351 166.062 393.966 160.44C398.787 153.771 403.31 146.699 407.536 139.222C411.424 131.295 415.296 123.345 419.15 115.372Z" stroke="#0B0B0C" stroke-width="2" stroke-linecap="round" stroke-dasharray="5 1"/>
<path opacity="0.53" d="M432.723 148.915C432.855 157.471 433.561 165.673 434.839 173.523C437.566 180.458 441.084 186.898 445.396 192.842C451.236 197.832 457.735 202.414 464.894 206.589C472.962 210.186 481.248 213.647 489.752 216.972C498.151 220.362 506.232 223.956 513.993 227.755C520.663 232.225 526.624 237.139 531.876 242.496C535.558 248.834 538.46 255.664 540.582 262.986C541.358 271.14 541.642 279.601 541.436 288.369C540.724 297.452 540.032 306.528 539.359 315.597C539.249 324.304 539.651 332.691 540.566 340.758C542.87 347.957 545.959 354.67 549.832 360.899C555.264 366.143 561.387 370.955 568.203 375.335C576.063 379.062 584.216 382.611 592.662 385.982C601.138 389.324 609.372 392.817 617.364 396.462C624.373 400.721 630.717 405.4 636.395 410.5C640.513 416.566 643.841 423.125 646.381 430.176C644.565 440.556 642.456 450.474 640.054 459.931C636.675 467.824 632.67 474.717 628.042 480.611C622.008 484.256 615.282 486.785 607.863 488.199C599.201 487.637 590.065 486.319 580.456 484.242C570.298 481.287 560.094 478.251 549.843 475.132C539.953 472.606 530.459 470.713 521.36 469.453C507.481 473.845 495.655 481.514 485.881 492.46C483.115 501.336 480.726 510.813 478.713 520.893C477.035 531.493 475.28 541.979 473.449 552.349C471.029 561.778 468.121 570.425 464.724 578.291C460.07 584.143 454.716 588.869 448.663 592.468C441.211 593.844 433.144 594.234 424.46 593.639C414.838 591.542 404.944 589.009 394.777 586.04C384.531 582.928 374.467 580.116 364.586 577.604C350.739 573.087 339.413 566.37 330.608 557.451C324.181 553.309 316.713 549.818 308.204 546.977C298.194 545.075 287.8 543.412 277.022 541.99C266.313 540.524 256.05 538.779 246.233 536.755C233.173 528.601 223.606 518.264 217.533 505.743C218.447 497.015 220.16 487.786 222.673 478.059C226.063 467.783 229.475 457.493 232.907 447.191C235.565 437.373 237.461 428.03 238.597 419.163C233.084 406.292 224.057 395.617 211.515 387.139C201.851 385.02 191.699 383.206 181.059 381.697C170.246 380.296 159.766 378.688 149.617 376.872C140.9 374.161 133.191 370.821 126.487 366.852C122.164 361.396 119.062 355.176 117.181 348.194C122.239 333.874 131.019 323.001 143.521 315.574C151.725 314.709 160.02 313.989 168.405 313.415C176.745 312.783 184.952 311.93 193.027 310.858C200.64 309.063 207.952 306.779 214.963 304.005C221.291 300.137 227.272 295.722 232.905 290.759C237.927 284.802 242.706 278.463 247.242 271.743C251.494 264.554 255.712 257.311 259.896 250.012C264.232 242.973 268.756 236.226 273.467 229.771C278.723 224.188 284.301 219.129 290.203 214.595C296.807 211.17 303.739 208.277 310.998 205.915C318.817 204.435 326.831 203.265 335.04 202.407C343.423 201.844 351.785 201.241 360.128 200.598C368.198 199.518 376.033 198.071 383.633 196.256C390.631 193.461 397.286 190.125 403.599 186.248C409.226 181.259 414.547 175.78 419.56 169.809C424.087 163.075 428.474 156.11 432.723 148.915Z" stroke="#0B0B0C" stroke-width="2" stroke-linecap="round" stroke-dasharray="2 8"/>
<path opacity="0.56" d="M442.427 182.216C445.441 196.184 451.288 208.703 459.968 219.773C473.376 228.407 487.769 236.54 503.148 244.172C516.966 252.605 528.536 262.187 537.858 272.918C541.522 286.562 542.866 301.392 541.888 317.409C539.107 334.36 537.197 350.865 536.158 366.922C539.717 380.611 546.105 392.853 555.321 403.647C569.082 412.11 583.649 420.153 599.024 427.778C612.509 436.382 623.64 446.189 632.417 457.2C625.48 472.057 616.752 483.432 606.232 491.325C591.771 491.521 575.87 488.911 558.53 483.496C540.411 476.564 523.096 471.2 506.587 467.404C493.493 470.263 482.384 477 473.261 487.615C467.255 504.287 461.804 522.04 456.909 540.874C450.724 557.197 442.927 570.378 433.517 580.415C420.114 582.69 405.057 581.734 388.346 577.546C370.201 570.563 352.537 564.517 335.353 559.407C325.755 549.817 312.651 542.026 296.041 536.034C276.587 531.502 258.346 526.343 241.319 520.557C231.068 511.302 225.048 499.876 223.26 486.278C228.331 469.16 234.7 451.375 242.369 432.924C247.346 415.855 248.863 400.56 246.923 387.04C236.512 377.868 222.749 370.41 205.635 364.668C186.181 360.137 168.2 354.849 151.692 348.805C142.253 339.133 137.043 327.292 136.06 313.28C151.324 312.7 166.84 312.605 182.61 312.994C197.631 311.924 211.792 309.177 225.092 304.754C236.314 296.281 246.692 286.173 256.226 274.43C265.101 261.385 274.263 248.898 283.712 236.97C294.781 228.199 306.887 221.45 320.031 216.722C334.941 215.452 350.275 215.001 366.033 215.368C381.382 214.937 395.982 213.047 409.834 209.698C421.633 202.35 432.497 193.189 442.427 182.216Z" stroke="#0B0B0C" stroke-width="2" stroke-linecap="round" stroke-dasharray="9 6"/>
<path opacity="0.6" d="M449.414 213.191C454.529 224.999 462.057 235.81 471.999 245.626C485.113 254.147 498.452 262.572 512.015 270.899C523.183 280.22 532.124 290.456 538.839 301.606C540.479 314.832 540.126 328.881 537.778 343.754C533.812 359.284 530.496 374.55 527.831 389.553C528.947 403.004 532.574 415.418 538.712 426.796C549.464 436.287 561.56 445.227 574.998 453.615C588.298 462.051 600.15 471.087 610.555 480.721C601.392 489.759 590.865 495.469 578.975 497.848C564.612 494.232 549.528 488.858 533.721 481.725C517.938 474.653 502.894 469.376 488.588 465.896C476.764 468.46 466.306 474.348 457.214 483.56C450.272 497.984 443.773 513.499 437.719 530.107C431.045 545.205 423.399 557.937 414.781 568.304C403.481 572.143 390.884 572.825 376.99 570.348C361.381 563.698 345.616 556.667 329.695 549.255C317.155 541.38 302.521 534.365 285.793 528.211C268.873 522.126 253.89 515.25 240.845 507.582C234.455 497.181 231.693 485.284 232.56 471.893C238.885 456.268 246.145 440.254 254.338 423.853C260.211 408.413 263.197 394.16 263.297 381.092C256.089 371.018 245.661 362.271 232.012 354.851C214.906 348.852 198.128 342.714 181.676 336.437C174.603 323.643 180.651 315.576 199.819 312.234C213.231 311.24 225.931 308.502 237.918 304.018C248.423 295.946 258.389 286.564 267.818 275.873C276.905 264.352 286.243 253.429 295.831 243.105C306.595 235.666 318.112 230.058 330.38 226.279C344.018 225.836 358.068 226.384 372.529 227.922C386.995 229.493 401.063 230.095 414.732 229.727C427.044 226.054 438.604 220.542 449.414 213.191Z" stroke="#0B0B0C" stroke-width="2" stroke-linecap="round" stroke-dasharray="9 6"/>
<path opacity="0.64" d="M454.951 240.426C461.984 250.578 470.729 260.194 481.188 269.274C493.193 277.858 504.814 286.567 516.051 295.402C524.414 305.134 530.69 315.529 534.878 326.586C534.698 339.012 532.851 351.967 529.336 365.453C524.41 379.375 519.937 393.159 515.916 406.805C514.865 419.505 515.932 431.542 519.116 442.916C526.624 452.918 535.759 462.411 546.521 471.395C546.22 484.954 532.787 487.252 506.224 478.288C492.67 471.63 479.7 466.819 467.312 463.856C456.589 466.176 446.736 471.267 437.753 479.129C430.154 491.354 422.887 504.633 415.952 518.966C408.794 532.591 401.109 544.556 392.896 554.862C383.078 560.053 372.381 562.451 360.802 562.055C347.754 556.999 334.303 550.677 320.447 543.087C306.694 535.687 292.214 528.516 277.006 521.575C263.586 514.062 252.427 505.84 243.529 496.909C240.677 486.073 240.773 474.306 243.818 461.61C251.011 447.606 258.837 433.402 267.298 418.998C273.79 405.215 277.952 392.167 279.784 379.853C275.531 369.458 268.36 359.983 258.272 351.428C244.185 344.133 229.559 337.004 214.396 330.041C203.82 319.261 206.063 312.985 221.124 311.213C232.899 309.87 244.157 306.889 254.898 302.271C264.703 294.68 274.201 286.117 283.392 276.581C292.454 266.632 301.709 257.299 311.158 248.58C321.411 242.413 332.174 237.86 343.446 234.922C355.691 235.073 368.273 236.303 381.19 238.611C394.333 241.61 407.326 244.13 420.168 246.171C432.261 245.839 443.855 243.925 454.951 240.426Z" stroke="#0B0B0C" stroke-width="2" stroke-linecap="round"/>
<path opacity="0.68" d="M460.145 263.237C468.32 272.303 477.417 281.158 487.437 289.801C497.593 298.414 506.952 307.206 515.515 316.176C521.095 325.826 524.82 335.888 526.689 346.363C524.961 357.647 521.879 369.234 517.445 381.126C511.818 393.294 506.477 405.394 501.421 417.426C498.578 428.96 497.419 440.115 497.943 450.893C502.234 460.832 508.187 470.393 515.803 479.577C513.707 487.139 500.818 484.743 477.137 472.388C465.604 466.535 454.467 462.428 443.727 460.068C433.979 462.158 424.732 466.477 415.986 473.025C408.041 483.139 400.312 494.212 392.798 506.244C385.261 518.172 377.486 529.042 369.473 538.854C360.629 544.964 351.28 548.829 341.426 550.45C330.585 547.677 319.366 543.225 307.77 537.093C294.799 529.456 282.167 521.747 269.874 513.966C260.477 505.526 253.329 496.584 248.431 487.141C248.617 476.547 251.068 465.448 255.785 453.843C263.495 441.567 271.589 429.199 280.069 416.741C286.935 404.654 291.977 392.973 295.196 381.697C293.561 371.52 289.426 361.902 282.79 352.84C272.129 344.693 260.393 336.782 247.581 329.109C246.386 316.76 256.013 307.268 276.462 300.631C285.561 293.645 294.517 286 303.329 277.698C312.119 269.335 321.042 261.564 330.098 254.386C339.649 249.413 349.514 245.812 359.691 243.584C370.479 244.111 381.509 245.716 392.782 248.401C404.318 252.221 415.836 255.979 427.336 259.674C438.533 262.024 449.47 263.211 460.145 263.237Z" stroke="#0B0B0C" stroke-width="2" stroke-linecap="round" stroke-dasharray="2 1"/>
<path opacity="0.72" d="M465.601 281.794C473.79 290.138 482.197 298.452 490.822 306.735C498.591 315.137 505.361 323.675 511.133 332.351C514.118 341.419 515.555 350.696 515.444 360.181C512.488 370.058 508.481 380.08 503.423 390.246C497.379 400.547 491.493 410.827 485.765 421.086C481.58 431.131 478.648 441.005 476.969 450.706C478.312 459.992 481.171 469.069 485.545 477.937C481.21 481.687 468.8 476.864 448.313 463.468C438.565 458.633 429.029 455.342 419.705 453.594C410.864 455.411 402.265 458.966 393.91 464.258C385.941 472.354 378.083 481.291 370.337 491.069C362.638 501.129 354.859 510.607 346.999 519.504C338.8 525.984 330.378 530.824 321.735 534.022C312.596 533.616 303.224 531.546 293.619 527.811C283.152 519.847 273.659 511.752 265.141 503.528C259.839 494.862 256.509 485.919 255.151 476.702C257.737 466.95 261.959 456.969 267.818 446.759C275.698 436.279 283.776 425.771 292.052 415.236C299.042 404.87 304.667 394.696 308.927 384.714C309.467 375.236 307.992 366.038 304.501 357.123C297.373 348.707 288.939 340.467 279.199 332.403C276.829 318.647 284.378 308.003 301.845 300.469C310.225 294.219 318.552 287.585 326.826 280.567C335.127 273.743 343.502 267.464 351.953 261.731C360.657 257.833 369.516 255.066 378.53 253.43C387.866 254.13 397.344 255.832 406.964 258.536C416.763 262.606 426.597 266.923 436.464 271.486C446.268 275.589 455.981 279.025 465.601 281.794Z" stroke="#0B0B0C" stroke-width="2" stroke-linecap="round" stroke-dasharray="1 1"/>
<path opacity="0.76" d="M471.18 296.862C478.227 304.596 485.001 312.345 491.502 320.108C496.626 327.944 500.749 335.832 503.869 343.772C504.61 351.837 504.146 359.966 502.475 368.157C498.662 376.453 494.071 384.793 488.702 393.179C482.559 401.604 476.473 410.027 470.444 418.447C465.401 426.815 461.226 435.138 457.918 443.415C456.835 451.576 456.973 459.669 458.333 467.693C451.528 469.414 439.432 464.003 422.044 451.459C413.842 447.723 405.706 445.249 397.637 444.038C389.711 445.556 381.852 448.366 374.061 452.467C366.39 458.702 358.751 465.629 351.145 473.25C343.564 481.367 335.971 489.244 328.365 496.88C320.687 503.124 312.953 508.312 305.163 512.446C297.238 513.988 289.242 514.167 281.174 512.98C274.29 505.09 268.584 497.138 264.055 489.124C262.433 480.95 262.356 472.699 263.823 464.371C268.101 455.896 273.47 447.359 279.931 438.762C287.638 430.107 295.419 421.444 303.273 412.773C310.141 404.162 316.028 395.603 320.933 387.095C323.149 378.719 323.842 370.428 323.011 362.22C319.183 354.162 314.083 346.174 307.713 338.257C306.783 323.021 313.948 311.257 329.207 302.966C336.833 297.584 344.445 292.03 352.045 286.305C359.671 280.93 367.318 276.032 374.986 271.611C382.739 268.656 390.539 266.597 398.386 265.434C406.323 266.146 414.31 267.725 422.346 270.171C430.454 273.994 438.581 278.245 446.726 282.924C454.889 287.798 463.04 292.444 471.18 296.862Z" stroke="#0B0B0C" stroke-width="2" stroke-linecap="round" stroke-dasharray="3 6"/>
<path opacity="0.8" d="M475.98 309.584C485.02 323.48 491.226 337.285 494.599 351C490.829 364.485 484.132 377.882 474.507 391.188C462.615 404.414 451.817 417.675 442.111 430.971C433.099 444.738 419.27 446.744 400.621 436.989C386.856 433.52 372.973 433.884 358.97 438.08C344.768 448.277 330.536 459.538 316.274 471.864C302.083 481.711 287.995 488.455 274.011 492.097C269.972 477.773 270.295 463.589 274.981 449.545C286.744 435.735 299.84 421.964 314.27 408.232C325.936 394.411 334.03 380.48 338.552 366.439C334.358 352.111 326.707 337.671 315.599 323.122C329.009 320.58 342.492 315.779 356.047 308.72C369.66 299.851 383.248 291.76 396.811 284.449C410.234 281.491 423.569 281.326 436.813 283.954C449.905 291.368 462.961 299.911 475.98 309.584Z" stroke="#0B0B0C" stroke-width="2" stroke-linecap="round" stroke-dasharray="6 2"/>
<path opacity="0.84" d="M478.469 321.043C482.699 332.708 484.531 344.088 483.965 355.184C478.415 365.706 470.953 376 461.579 386.067C450.592 395.953 440.123 405.896 430.174 415.896C423.627 426.301 419.504 436.986 417.803 447.949C407.333 437.321 396.666 428.415 385.801 421.231C374.358 418.99 362.61 419.325 350.558 422.237C338.035 429.233 325.399 437.21 312.647 446.167C294.738 451.253 286.958 446.705 289.305 432.523C300.889 422.033 313.084 411.615 325.891 401.267C336.803 390.691 345.454 379.853 351.843 368.756C352.358 356.972 350.046 344.854 344.906 332.401C356.359 328.647 367.955 323.703 379.695 317.567C391.494 310.93 403.205 305.042 414.828 299.904C426.077 297.9 437.098 297.878 447.892 299.838C458.243 305.582 468.435 312.65 478.469 321.043Z" stroke="#0B0B0C" stroke-width="2" stroke-linecap="round" stroke-dasharray="7 5"/>
<path opacity="0.88" d="M476.822 332.076C476.904 340.959 475.339 349.511 472.127 357.732C465.884 365.337 458.523 372.71 450.044 379.851C440.523 386.789 431.167 393.76 421.974 400.764C414.422 408.094 408.204 415.7 403.321 423.581C395.312 416.257 387.025 410.321 378.459 405.773C369.237 404.454 359.691 404.702 349.823 406.515C339.446 410.873 328.911 415.985 318.218 421.851C313.107 417.923 320.002 408.111 338.905 392.418C348.458 384.871 356.735 377.064 363.738 368.998C367.277 360.235 368.939 351.087 368.722 341.552C378.362 337.669 388.088 333.362 397.9 328.632C407.664 324.099 417.305 320.188 426.824 316.896C435.927 315.651 444.772 315.677 453.358 316.974C461.405 320.876 469.227 325.91 476.822 332.076Z" stroke="#0B0B0C" stroke-width="2" stroke-linecap="round" stroke-dasharray="6 2"/>
<path opacity="0.92" d="M469.31 342.927C462.317 354.258 452.364 364.722 439.452 374.319C424.231 383.24 410.118 392.485 397.112 402.054C384.596 395.445 371.075 392.269 356.548 392.526C339.227 396.861 338.29 393.691 353.736 383.018C367.868 372.886 378.726 361.794 386.313 349.744C401.604 343.632 416.656 338.335 431.47 333.852C444.944 333.941 457.557 336.966 469.31 342.927Z" stroke="#0B0B0C" stroke-width="2" stroke-linecap="round"/>
<path opacity="0.96" d="M454.758 353.317C447.248 359.516 438.638 365.294 428.927 370.649C418.184 375.597 407.601 380.606 397.178 385.677C388.469 382.865 379.205 381.474 369.387 381.504C369.447 377.258 378.881 369.004 397.687 356.742C408.208 353.564 418.488 351.009 428.527 349.079C437.767 349.209 446.51 350.622 454.758 353.317Z" stroke="#0B0B0C" stroke-width="2" stroke-linecap="round" stroke-dasharray="2 10"/>
</svg>
