<svg width="368" height="368" viewBox="0 0 368 368" fill="none" xmlns="http://www.w3.org/2000/svg">
<path d="M184.005 216.557C202.154 216.557 216.866 201.844 216.866 183.695C216.866 165.546 202.154 150.834 184.005 150.834C165.856 150.834 151.143 165.546 151.143 183.695C151.143 201.844 165.856 216.557 184.005 216.557Z" fill="#33373E" fill-opacity="0.4"/>
<path fill-rule="evenodd" clip-rule="evenodd" d="M184.011 116.882C228.132 116.882 269.119 123.213 300.023 133.852C337.258 146.671 360.152 166.102 360.152 183.696C360.152 202.031 335.889 222.673 295.904 235.921C265.674 245.937 225.893 251.165 184.011 251.165C141.071 251.165 100.408 246.258 69.8376 235.811C31.1601 222.591 7.86426 201.682 7.86426 183.696C7.86426 166.245 29.7229 146.964 66.4347 134.165C97.4541 123.35 139.453 116.882 184.005 116.882H184.011Z" stroke="#33373E" stroke-opacity="0.4" stroke-width="11.2354"/>
<path fill-rule="evenodd" clip-rule="evenodd" d="M125.852 150.481C147.894 112.26 173.854 79.917 198.509 58.4606C228.215 32.6088 256.485 22.4845 271.726 31.2731C287.609 40.4326 293.37 71.7638 284.87 113.019C278.451 144.211 263.101 181.283 242.178 217.564C220.725 254.762 196.161 287.535 171.841 308.793C141.068 335.694 111.316 345.429 95.7355 336.444C80.6172 327.732 74.8358 299.159 82.0884 260.962C88.2163 228.688 103.595 189.074 125.845 150.48L125.852 150.481Z" stroke="#33373E" stroke-opacity="0.4" stroke-width="11.2354"/>
<path fill-rule="evenodd" clip-rule="evenodd" d="M125.894 217.661C103.789 179.484 88.7396 140.833 82.4578 108.757C74.896 70.1097 80.2425 40.5609 95.4695 31.7467C111.337 22.5604 141.358 33.2166 172.856 61.1842C196.671 82.3289 221.125 114.136 242.109 150.383C263.623 187.545 279.747 225.195 286.02 256.881C293.957 296.978 287.533 327.614 271.967 336.625C256.864 345.369 229.226 336.112 199.756 310.751C174.856 289.325 148.216 256.217 125.894 217.66V217.661Z" stroke="#33373E" stroke-opacity="0.4" stroke-width="11.2354"/>
</svg>
