<svg width="329" height="438" viewBox="0 0 329 438" fill="none" xmlns="http://www.w3.org/2000/svg">
<path fill-rule="evenodd" clip-rule="evenodd" d="M94.2516 130.276C125.435 99.0631 158.881 74.5407 188.249 60.1967C223.634 42.9143 253.561 40.4516 266.008 52.8855C278.979 65.8437 276.434 97.5983 257.547 135.248C243.273 163.716 218.851 195.551 189.251 225.181C158.902 255.559 126.692 280.858 97.6995 295.097C61.0118 313.116 29.754 314.819 17.0303 302.108C4.68192 289.78 6.49273 260.684 23.3844 225.666C37.6566 196.078 62.7637 161.794 94.2449 130.274L94.2516 130.276Z" stroke="#33373E" stroke-opacity="0.2" stroke-width="11.2354"/>
<path fill-rule="evenodd" clip-rule="evenodd" d="M181.695 267.218C199.46 249.436 218.513 235.465 235.245 227.294C255.403 217.448 272.452 216.045 279.543 223.129C286.933 230.511 285.483 248.601 274.723 270.05C266.592 286.268 252.679 304.405 235.815 321.284C218.525 338.591 200.176 353.003 183.659 361.115C162.758 371.381 144.951 372.351 137.702 365.109C130.667 358.086 131.699 341.511 141.322 321.561C149.453 304.704 163.756 285.173 181.691 267.216L181.695 267.218Z" stroke="#33373E" stroke-opacity="0.2" stroke-width="11.2354"/>
<path fill-rule="evenodd" clip-rule="evenodd" d="M254.173 350.998C266.14 339.019 278.976 329.608 290.248 324.103C303.828 317.47 315.313 316.525 320.09 321.297C325.069 326.27 324.092 338.457 316.843 352.907C311.365 363.832 301.992 376.05 290.632 387.421C278.984 399.08 266.623 408.79 255.496 414.254C241.416 421.17 229.419 421.824 224.536 416.945C219.797 412.214 220.492 401.047 226.975 387.608C232.452 376.252 242.088 363.094 254.17 350.997L254.173 350.998Z" stroke="#33373E" stroke-opacity="0.2" stroke-width="11.2354"/>
</svg>
