<svg width="403" height="717" viewBox="0 0 403 717" fill="none" xmlns="http://www.w3.org/2000/svg">
<path d="M437.251 520.636C389.418 633.803 253.851 795.636 94.251 537.636C74.751 508.136 18.751 396.136 4.25097 551.636C4.25097 570.136 -3.24903 666.136 63.751 714.136" stroke="#484848" stroke-opacity="0.2" stroke-width="7"/>
<path d="M418.177 307.882C373.306 322.95 280.546 295.708 268.474 66.1919C268.268 57.8129 255.523 -13.8987 217.627 50.1982C213.403 57.9702 155.608 153.647 161.549 251.961C167.49 350.275 205.485 385.949 234.473 395.112C244.157 401.855 299.793 425.727 296.888 498.003C297.301 514.761 323.371 649.01 372.751 547.215C387.282 516.931 410.055 462.725 455.814 418.663" stroke="#484848" stroke-opacity="0.2" stroke-width="7"/>
</svg>
