<svg width="30" height="30" viewBox="0 0 30 30" fill="none" xmlns="http://www.w3.org/2000/svg">
<path opacity="0.5" d="M29.5 15.0823C29.5 23.0421 23.0075 29.5 14.9925 29.5C13.3814 29.5 11.8326 29.2391 10.3858 28.7581C9.80737 27.2951 9.4895 25.7015 9.4895 24.0329C9.4895 21.0697 10.4923 18.34 12.18 16.1596C14.0574 18.5329 16.9726 20.0576 20.2451 20.0576C23.97 20.0576 27.2316 18.0824 29.0274 15.1284C29.0833 15.0364 29.2178 14.9705 29.3682 14.9907C29.4366 14.9999 29.4735 15.0239 29.4865 15.0363C29.4867 15.0366 29.487 15.0368 29.4873 15.0371C29.4922 15.0416 29.5 15.0489 29.5 15.0823Z" fill="url(#paint0_linear_833_113)" stroke="url(#paint1_linear_833_113)"/>
<path d="M0 14.9177C0 21.4197 4.18487 26.9501 10.0233 28.9929C9.36675 27.4139 9.0045 25.6831 9.0045 23.8682C9.0045 20.5547 10.2121 17.5215 12.2137 15.1799C11.136 13.6203 10.5053 11.7316 10.5053 9.69648C10.5053 6.1736 12.3953 3.08952 15.2224 1.39146C15.8167 1.03449 15.7019 0 15.0075 0C6.71908 0 0 6.67886 0 14.9177Z" fill="url(#paint2_linear_833_113)"/>
<defs>
<linearGradient id="paint0_linear_833_113" x1="8.9895" y1="22.2437" x2="30" y2="22.2437" gradientUnits="userSpaceOnUse">
<stop stop-color="#232526"/>
<stop offset="1" stop-color="#414345"/>
</linearGradient>
<linearGradient id="paint1_linear_833_113" x1="9.31171" y1="25.417" x2="30.7839" y2="17.324" gradientUnits="userSpaceOnUse">
<stop stop-color="#C0BFBD"/>
<stop offset="1" stop-color="white"/>
</linearGradient>
<linearGradient id="paint2_linear_833_113" x1="0.23933" y1="20.4274" x2="18.0543" y2="17.7589" gradientUnits="userSpaceOnUse">
<stop stop-color="#C0BFBD"/>
<stop offset="1" stop-color="white"/>
</linearGradient>
</defs>
</svg>
