<svg width="30" height="30" viewBox="0 0 30 30" fill="none" xmlns="http://www.w3.org/2000/svg">
<path d="M21.9767 15C21.9767 18.8531 18.8531 21.9767 14.9999 21.9767C11.1468 21.9767 8.02319 18.8531 8.02319 15C8.02319 11.1469 11.1468 8.02325 14.9999 8.02325C18.8531 8.02325 21.9767 11.1469 21.9767 15Z" fill="url(#paint0_linear_833_112)"/>
<path fill-rule="evenodd" clip-rule="evenodd" d="M15 0C15.578 0 16.0465 0.468544 16.0465 1.04651V3.83721C16.0465 4.41518 15.578 4.88372 15 4.88372C14.422 4.88372 13.9535 4.41518 13.9535 3.83721V1.04651C13.9535 0.468544 14.422 0 15 0ZM0 15C0 14.422 0.468544 13.9535 1.04651 13.9535H3.83721C4.41518 13.9535 4.88372 14.422 4.88372 15C4.88372 15.578 4.41518 16.0465 3.83721 16.0465H1.04651C0.468544 16.0465 0 15.578 0 15ZM25.1163 15C25.1163 14.422 25.5848 13.9535 26.1628 13.9535H28.9535C29.5314 13.9535 30 14.422 30 15C30 15.578 29.5314 16.0465 28.9535 16.0465H26.1628C25.5848 16.0465 25.1163 15.578 25.1163 15ZM15 25.1163C15.578 25.1163 16.0465 25.5848 16.0465 26.1628V28.9535C16.0465 29.5314 15.578 30 15 30C14.422 30 13.9535 29.5314 13.9535 28.9535V26.1628C13.9535 25.5848 14.422 25.1163 15 25.1163Z" fill="url(#paint1_linear_833_112)"/>
<g opacity="0.5">
<path d="M3.37561 3.44037C3.76561 3.01382 4.42756 2.98419 4.85412 3.37419L7.95461 6.20896C8.38117 6.59896 8.41079 7.26091 8.02079 7.68747C7.63079 8.11403 6.96884 8.14366 6.54229 7.75366L3.4418 4.91889C3.01524 4.52889 2.98561 3.86693 3.37561 3.44037Z" fill="url(#paint2_linear_833_112)"/>
<path d="M26.6259 3.44037C27.0159 3.86693 26.9863 4.52889 26.5598 4.91889L23.4592 7.75366C23.0326 8.14366 22.3707 8.11403 21.9807 7.68747C21.5907 7.26091 21.6204 6.59896 22.0469 6.20896L25.1474 3.37419C25.574 2.98419 26.2359 3.01382 26.6259 3.44037Z" fill="url(#paint3_linear_833_112)"/>
<path d="M22.0131 22.0112C22.4218 21.6025 23.0843 21.6026 23.493 22.0113L26.5935 25.1122C27.0022 25.5209 27.0022 26.1834 26.5935 26.5921C26.1848 27.0008 25.5222 27.0008 25.1135 26.592L22.013 23.4912C21.6043 23.0824 21.6044 22.4199 22.0131 22.0112Z" fill="url(#paint4_linear_833_112)"/>
<path d="M7.9886 22.0115C8.39729 22.42 8.39729 23.0827 7.9886 23.4914L4.88783 26.5921C4.47913 27.0008 3.81653 27.0008 3.40784 26.5921C2.99914 26.1834 2.99914 25.5209 3.40784 25.1122L6.50861 22.0113C6.9173 21.6028 7.57992 21.6028 7.9886 22.0115Z" fill="url(#paint5_linear_833_112)"/>
</g>
<defs>
<linearGradient id="paint0_linear_833_112" x1="8.23718" y1="17.8544" x2="23.3525" y2="13.6481" gradientUnits="userSpaceOnUse">
<stop stop-color="#C0BFBD"/>
<stop offset="1" stop-color="white"/>
</linearGradient>
<linearGradient id="paint1_linear_833_112" x1="0" y1="15" x2="30" y2="15" gradientUnits="userSpaceOnUse">
<stop stop-color="#757F9A"/>
<stop offset="1" stop-color="#D7DDE8"/>
</linearGradient>
<linearGradient id="paint2_linear_833_112" x1="3.10144" y1="5.56392" x2="8.29496" y2="5.56392" gradientUnits="userSpaceOnUse">
<stop stop-color="#8E9EAB"/>
<stop offset="1" stop-color="#EEF2F3"/>
</linearGradient>
<linearGradient id="paint3_linear_833_112" x1="21.7065" y1="5.56392" x2="26.9001" y2="5.56392" gradientUnits="userSpaceOnUse">
<stop stop-color="#8E9EAB"/>
<stop offset="1" stop-color="#EEF2F3"/>
</linearGradient>
<linearGradient id="paint4_linear_833_112" x1="21.7065" y1="24.3017" x2="26.9" y2="24.3017" gradientUnits="userSpaceOnUse">
<stop stop-color="#8E9EAB"/>
<stop offset="1" stop-color="#EEF2F3"/>
</linearGradient>
<linearGradient id="paint5_linear_833_112" x1="3.10132" y1="24.3018" x2="8.29512" y2="24.3018" gradientUnits="userSpaceOnUse">
<stop stop-color="#8E9EAB"/>
<stop offset="1" stop-color="#EEF2F3"/>
</linearGradient>
</defs>
</svg>
