<svg width="30" height="30" viewBox="0 0 30 30" fill="none" xmlns="http://www.w3.org/2000/svg">
<path d="M21.9767 15C21.9767 18.8531 18.8531 21.9767 15 21.9767C11.1469 21.9767 8.02325 18.8531 8.02325 15C8.02325 11.1469 11.1469 8.02325 15 8.02325C18.8531 8.02325 21.9767 11.1469 21.9767 15Z" fill="url(#paint0_linear_852_735)"/>
<path fill-rule="evenodd" clip-rule="evenodd" d="M15 0C15.578 0 16.0465 0.468544 16.0465 1.04651V3.83721C16.0465 4.41518 15.578 4.88372 15 4.88372C14.422 4.88372 13.9535 4.41518 13.9535 3.83721V1.04651C13.9535 0.468544 14.422 0 15 0ZM0 15C0 14.422 0.468544 13.9535 1.04651 13.9535H3.83721C4.41518 13.9535 4.88372 14.422 4.88372 15C4.88372 15.578 4.41518 16.0465 3.83721 16.0465H1.04651C0.468544 16.0465 0 15.578 0 15ZM25.1163 15C25.1163 14.422 25.5848 13.9535 26.1628 13.9535H28.9535C29.5314 13.9535 30 14.422 30 15C30 15.578 29.5314 16.0465 28.9535 16.0465H26.1628C25.5848 16.0465 25.1163 15.578 25.1163 15ZM15 25.1163C15.578 25.1163 16.0465 25.5848 16.0465 26.1628V28.9535C16.0465 29.5314 15.578 30 15 30C14.422 30 13.9535 29.5314 13.9535 28.9535V26.1628C13.9535 25.5848 14.422 25.1163 15 25.1163Z" fill="url(#paint1_linear_852_735)"/>
<g opacity="0.5">
<path d="M3.3757 3.44037C3.7657 3.01382 4.42765 2.98419 4.85421 3.37419L7.9547 6.20896C8.38126 6.59896 8.41088 7.26091 8.02088 7.68747C7.63088 8.11403 6.96893 8.14366 6.54239 7.75366L3.44189 4.91889C3.01533 4.52889 2.9857 3.86693 3.3757 3.44037Z" fill="url(#paint2_linear_852_735)"/>
<path d="M26.6259 3.44037C27.0159 3.86693 26.9863 4.52889 26.5598 4.91889L23.4592 7.75366C23.0326 8.14366 22.3706 8.11403 21.9806 7.68747C21.5906 7.26091 21.6204 6.59896 22.0469 6.20896L25.1474 3.37419C25.5739 2.98419 26.2359 3.01382 26.6259 3.44037Z" fill="url(#paint3_linear_852_735)"/>
<path d="M22.0132 22.0112C22.4219 21.6025 23.0844 21.6026 23.4931 22.0113L26.5935 25.1122C27.0022 25.5209 27.0022 26.1834 26.5935 26.5921C26.1848 27.0008 25.5222 27.0008 25.1135 26.592L22.013 23.4912C21.6043 23.0824 21.6045 22.4199 22.0132 22.0112Z" fill="url(#paint4_linear_852_735)"/>
<path d="M7.98867 22.0115C8.39735 22.42 8.39735 23.0827 7.98867 23.4914L4.88789 26.5921C4.4792 27.0008 3.81659 27.0008 3.4079 26.5921C2.9992 26.1834 2.9992 25.5209 3.4079 25.1122L6.50867 22.0113C6.91736 21.6028 7.57998 21.6028 7.98867 22.0115Z" fill="url(#paint5_linear_852_735)"/>
</g>
<defs>
<linearGradient id="paint0_linear_852_735" x1="8.02325" y1="15" x2="21.9767" y2="15" gradientUnits="userSpaceOnUse">
<stop stop-color="#232526"/>
<stop offset="1" stop-color="#414345"/>
</linearGradient>
<linearGradient id="paint1_linear_852_735" x1="0" y1="15" x2="30" y2="15" gradientUnits="userSpaceOnUse">
<stop stop-color="#232526"/>
<stop offset="1" stop-color="#414345"/>
</linearGradient>
<linearGradient id="paint2_linear_852_735" x1="3.10153" y1="5.56392" x2="8.29506" y2="5.56392" gradientUnits="userSpaceOnUse">
<stop stop-color="#232526"/>
<stop offset="1" stop-color="#414345"/>
</linearGradient>
<linearGradient id="paint3_linear_852_735" x1="21.7065" y1="5.56392" x2="26.9001" y2="5.56392" gradientUnits="userSpaceOnUse">
<stop stop-color="#232526"/>
<stop offset="1" stop-color="#414345"/>
</linearGradient>
<linearGradient id="paint4_linear_852_735" x1="21.7066" y1="24.3017" x2="26.9001" y2="24.3017" gradientUnits="userSpaceOnUse">
<stop stop-color="#232526"/>
<stop offset="1" stop-color="#414345"/>
</linearGradient>
<linearGradient id="paint5_linear_852_735" x1="3.10138" y1="24.3018" x2="8.29518" y2="24.3018" gradientUnits="userSpaceOnUse">
<stop stop-color="#232526"/>
<stop offset="1" stop-color="#414345"/>
</linearGradient>
</defs>
</svg>
